G04 #@! TF.GenerationSoftware,KiCad,Pcbnew,5.0.1-33cea8e~68~ubuntu18.04.1*
G04 #@! TF.CreationDate,2018-11-12T21:08:18+01:00*
G04 #@! TF.ProjectId,ustepper_pololu,75737465707065725F706F6C6F6C752E,rev?*
G04 #@! TF.SameCoordinates,Original*
G04 #@! TF.FileFunction,Legend,Top*
G04 #@! TF.FilePolarity,Positive*
%FSLAX46Y46*%
G04 Gerber Fmt 4.6, Leading zero omitted, Abs format (unit mm)*
G04 Created by KiCad (PCBNEW 5.0.1-33cea8e~68~ubuntu18.04.1) date lun 12 nov 2018 21:08:18 CET*
%MOMM*%
%LPD*%
G01*
G04 APERTURE LIST*
%ADD10C,0.300000*%
%ADD11C,0.100000*%
%ADD12C,0.200000*%
%ADD13C,0.150000*%
%ADD14C,0.120000*%
G04 APERTURE END LIST*
D10*
X192292871Y-87941242D02*
X193435728Y-87941242D01*
D11*
X177289280Y-56510890D02*
X177289280Y-56320414D01*
X177241661Y-56225176D01*
X177194042Y-56177557D01*
X177051185Y-56082319D01*
X176860709Y-56034700D01*
X176479757Y-56034700D01*
X176384519Y-56082319D01*
X176336900Y-56129938D01*
X176289280Y-56225176D01*
X176289280Y-56415652D01*
X176336900Y-56510890D01*
X176384519Y-56558509D01*
X176479757Y-56606128D01*
X176717852Y-56606128D01*
X176813090Y-56558509D01*
X176860709Y-56510890D01*
X176908328Y-56415652D01*
X176908328Y-56225176D01*
X176860709Y-56129938D01*
X176813090Y-56082319D01*
X176717852Y-56034700D01*
X176765471Y-54844223D02*
X176765471Y-54510890D01*
X177289280Y-54368033D02*
X177289280Y-54844223D01*
X176289280Y-54844223D01*
X176289280Y-54368033D01*
X177289280Y-53939461D02*
X176289280Y-53939461D01*
X177289280Y-53368033D01*
X176289280Y-53368033D01*
X177003566Y-52939461D02*
X177003566Y-52463271D01*
X177289280Y-53034700D02*
X176289280Y-52701366D01*
X177289280Y-52368033D01*
D10*
X180862871Y-70783542D02*
X182005728Y-70783542D01*
X181434300Y-71354971D02*
X181434300Y-70212114D01*
D11*
X205597580Y-71622180D02*
X204597580Y-71622180D01*
X205597580Y-71145990D02*
X204597580Y-71145990D01*
X205597580Y-70574561D01*
X204597580Y-70574561D01*
X205978533Y-69050752D02*
X205930914Y-69098371D01*
X205788057Y-69193609D01*
X205692819Y-69241228D01*
X205549961Y-69288847D01*
X205311866Y-69336466D01*
X205121390Y-69336466D01*
X204883295Y-69288847D01*
X204740438Y-69241228D01*
X204645200Y-69193609D01*
X204502342Y-69098371D01*
X204454723Y-69050752D01*
X205597580Y-68145990D02*
X205597580Y-68717419D01*
X205597580Y-68431704D02*
X204597580Y-68431704D01*
X204740438Y-68526942D01*
X204835676Y-68622180D01*
X204883295Y-68717419D01*
X204597580Y-67526942D02*
X204597580Y-67431704D01*
X204645200Y-67336466D01*
X204692819Y-67288847D01*
X204788057Y-67241228D01*
X204978533Y-67193609D01*
X205216628Y-67193609D01*
X205407104Y-67241228D01*
X205502342Y-67288847D01*
X205549961Y-67336466D01*
X205597580Y-67431704D01*
X205597580Y-67526942D01*
X205549961Y-67622180D01*
X205502342Y-67669800D01*
X205407104Y-67717419D01*
X205216628Y-67765038D01*
X204978533Y-67765038D01*
X204788057Y-67717419D01*
X204692819Y-67669800D01*
X204645200Y-67622180D01*
X204597580Y-67526942D01*
X204597580Y-66907895D02*
X205597580Y-66574561D01*
X204597580Y-66241228D01*
X205978533Y-66003133D02*
X205930914Y-65955514D01*
X205788057Y-65860276D01*
X205692819Y-65812657D01*
X205549961Y-65765038D01*
X205311866Y-65717419D01*
X205121390Y-65717419D01*
X204883295Y-65765038D01*
X204740438Y-65812657D01*
X204645200Y-65860276D01*
X204502342Y-65955514D01*
X204454723Y-66003133D01*
X204848400Y-63056304D02*
X204800780Y-63151542D01*
X204800780Y-63294400D01*
X204848400Y-63437257D01*
X204943638Y-63532495D01*
X205038876Y-63580114D01*
X205229352Y-63627733D01*
X205372209Y-63627733D01*
X205562685Y-63580114D01*
X205657923Y-63532495D01*
X205753161Y-63437257D01*
X205800780Y-63294400D01*
X205800780Y-63199161D01*
X205753161Y-63056304D01*
X205705542Y-63008685D01*
X205372209Y-63008685D01*
X205372209Y-63199161D01*
X205800780Y-62580114D02*
X204800780Y-62580114D01*
X205800780Y-62008685D01*
X204800780Y-62008685D01*
X205800780Y-61532495D02*
X204800780Y-61532495D01*
X204800780Y-61294400D01*
X204848400Y-61151542D01*
X204943638Y-61056304D01*
X205038876Y-61008685D01*
X205229352Y-60961066D01*
X205372209Y-60961066D01*
X205562685Y-61008685D01*
X205657923Y-61056304D01*
X205753161Y-61151542D01*
X205800780Y-61294400D01*
X205800780Y-61532495D01*
X176525976Y-77326380D02*
X175954547Y-77326380D01*
X176240261Y-77326380D02*
X176240261Y-76326380D01*
X176145023Y-76469238D01*
X176049785Y-76564476D01*
X175954547Y-76612095D01*
X177383119Y-76326380D02*
X177192642Y-76326380D01*
X177097404Y-76374000D01*
X177049785Y-76421619D01*
X176954547Y-76564476D01*
X176906928Y-76754952D01*
X176906928Y-77135904D01*
X176954547Y-77231142D01*
X177002166Y-77278761D01*
X177097404Y-77326380D01*
X177287880Y-77326380D01*
X177383119Y-77278761D01*
X177430738Y-77231142D01*
X177478357Y-77135904D01*
X177478357Y-76897809D01*
X177430738Y-76802571D01*
X177383119Y-76754952D01*
X177287880Y-76707333D01*
X177097404Y-76707333D01*
X177002166Y-76754952D01*
X176954547Y-76802571D01*
X176906928Y-76897809D01*
X178668833Y-77326380D02*
X178668833Y-76326380D01*
X178906928Y-76326380D01*
X179049785Y-76374000D01*
X179145023Y-76469238D01*
X179192642Y-76564476D01*
X179240261Y-76754952D01*
X179240261Y-76897809D01*
X179192642Y-77088285D01*
X179145023Y-77183523D01*
X179049785Y-77278761D01*
X178906928Y-77326380D01*
X178668833Y-77326380D01*
X179668833Y-77326380D02*
X179668833Y-76326380D01*
X180716452Y-77326380D02*
X180383119Y-76850190D01*
X180145023Y-77326380D02*
X180145023Y-76326380D01*
X180525976Y-76326380D01*
X180621214Y-76374000D01*
X180668833Y-76421619D01*
X180716452Y-76516857D01*
X180716452Y-76659714D01*
X180668833Y-76754952D01*
X180621214Y-76802571D01*
X180525976Y-76850190D01*
X180145023Y-76850190D01*
D10*
X175044091Y-49095171D02*
X175044091Y-50095171D01*
X174401234Y-49095171D02*
X174401234Y-49880885D01*
X174472662Y-50023742D01*
X174615520Y-50095171D01*
X174829805Y-50095171D01*
X174972662Y-50023742D01*
X175044091Y-49952314D01*
X175686948Y-50023742D02*
X175901234Y-50095171D01*
X176258377Y-50095171D01*
X176401234Y-50023742D01*
X176472662Y-49952314D01*
X176544091Y-49809457D01*
X176544091Y-49666600D01*
X176472662Y-49523742D01*
X176401234Y-49452314D01*
X176258377Y-49380885D01*
X175972662Y-49309457D01*
X175829805Y-49238028D01*
X175758377Y-49166600D01*
X175686948Y-49023742D01*
X175686948Y-48880885D01*
X175758377Y-48738028D01*
X175829805Y-48666600D01*
X175972662Y-48595171D01*
X176329805Y-48595171D01*
X176544091Y-48666600D01*
X176972662Y-49095171D02*
X177544091Y-49095171D01*
X177186948Y-48595171D02*
X177186948Y-49880885D01*
X177258377Y-50023742D01*
X177401234Y-50095171D01*
X177544091Y-50095171D01*
X178615520Y-50023742D02*
X178472662Y-50095171D01*
X178186948Y-50095171D01*
X178044091Y-50023742D01*
X177972662Y-49880885D01*
X177972662Y-49309457D01*
X178044091Y-49166600D01*
X178186948Y-49095171D01*
X178472662Y-49095171D01*
X178615520Y-49166600D01*
X178686948Y-49309457D01*
X178686948Y-49452314D01*
X177972662Y-49595171D01*
X179329805Y-49095171D02*
X179329805Y-50595171D01*
X179329805Y-49166600D02*
X179472662Y-49095171D01*
X179758377Y-49095171D01*
X179901234Y-49166600D01*
X179972662Y-49238028D01*
X180044091Y-49380885D01*
X180044091Y-49809457D01*
X179972662Y-49952314D01*
X179901234Y-50023742D01*
X179758377Y-50095171D01*
X179472662Y-50095171D01*
X179329805Y-50023742D01*
X180686948Y-49095171D02*
X180686948Y-50595171D01*
X180686948Y-49166600D02*
X180829805Y-49095171D01*
X181115520Y-49095171D01*
X181258377Y-49166600D01*
X181329805Y-49238028D01*
X181401234Y-49380885D01*
X181401234Y-49809457D01*
X181329805Y-49952314D01*
X181258377Y-50023742D01*
X181115520Y-50095171D01*
X180829805Y-50095171D01*
X180686948Y-50023742D01*
X182615520Y-50023742D02*
X182472662Y-50095171D01*
X182186948Y-50095171D01*
X182044091Y-50023742D01*
X181972662Y-49880885D01*
X181972662Y-49309457D01*
X182044091Y-49166600D01*
X182186948Y-49095171D01*
X182472662Y-49095171D01*
X182615520Y-49166600D01*
X182686948Y-49309457D01*
X182686948Y-49452314D01*
X181972662Y-49595171D01*
X183329805Y-50095171D02*
X183329805Y-49095171D01*
X183329805Y-49380885D02*
X183401234Y-49238028D01*
X183472662Y-49166600D01*
X183615520Y-49095171D01*
X183758377Y-49095171D01*
X186044091Y-50095171D02*
X186044091Y-49309457D01*
X185972662Y-49166600D01*
X185829805Y-49095171D01*
X185544091Y-49095171D01*
X185401234Y-49166600D01*
X186044091Y-50023742D02*
X185901234Y-50095171D01*
X185544091Y-50095171D01*
X185401234Y-50023742D01*
X185329805Y-49880885D01*
X185329805Y-49738028D01*
X185401234Y-49595171D01*
X185544091Y-49523742D01*
X185901234Y-49523742D01*
X186044091Y-49452314D01*
X187686948Y-49095171D02*
X188258377Y-49095171D01*
X187901234Y-48595171D02*
X187901234Y-49880885D01*
X187972662Y-50023742D01*
X188115520Y-50095171D01*
X188258377Y-50095171D01*
X188758377Y-50095171D02*
X188758377Y-49095171D01*
X188758377Y-49380885D02*
X188829805Y-49238028D01*
X188901234Y-49166600D01*
X189044091Y-49095171D01*
X189186948Y-49095171D01*
X189901234Y-50095171D02*
X189758377Y-50023742D01*
X189686948Y-49952314D01*
X189615520Y-49809457D01*
X189615520Y-49380885D01*
X189686948Y-49238028D01*
X189758377Y-49166600D01*
X189901234Y-49095171D01*
X190115520Y-49095171D01*
X190258377Y-49166600D01*
X190329805Y-49238028D01*
X190401234Y-49380885D01*
X190401234Y-49809457D01*
X190329805Y-49952314D01*
X190258377Y-50023742D01*
X190115520Y-50095171D01*
X189901234Y-50095171D01*
X190901234Y-49095171D02*
X191686948Y-49095171D01*
X190901234Y-50095171D01*
X191686948Y-50095171D01*
X192472662Y-50095171D02*
X192329805Y-50023742D01*
X192258377Y-49952314D01*
X192186948Y-49809457D01*
X192186948Y-49380885D01*
X192258377Y-49238028D01*
X192329805Y-49166600D01*
X192472662Y-49095171D01*
X192686948Y-49095171D01*
X192829805Y-49166600D01*
X192901234Y-49238028D01*
X192972662Y-49380885D01*
X192972662Y-49809457D01*
X192901234Y-49952314D01*
X192829805Y-50023742D01*
X192686948Y-50095171D01*
X192472662Y-50095171D01*
X193544091Y-50023742D02*
X193686948Y-50095171D01*
X193972662Y-50095171D01*
X194115520Y-50023742D01*
X194186948Y-49880885D01*
X194186948Y-49809457D01*
X194115520Y-49666600D01*
X193972662Y-49595171D01*
X193758377Y-49595171D01*
X193615520Y-49523742D01*
X193544091Y-49380885D01*
X193544091Y-49309457D01*
X193615520Y-49166600D01*
X193758377Y-49095171D01*
X193972662Y-49095171D01*
X194115520Y-49166600D01*
X195829805Y-49095171D02*
X196186948Y-50095171D01*
X196544091Y-49095171D01*
X196972662Y-48595171D02*
X197901234Y-48595171D01*
X197401234Y-49166600D01*
X197615520Y-49166600D01*
X197758377Y-49238028D01*
X197829805Y-49309457D01*
X197901234Y-49452314D01*
X197901234Y-49809457D01*
X197829805Y-49952314D01*
X197758377Y-50023742D01*
X197615520Y-50095171D01*
X197186948Y-50095171D01*
X197044091Y-50023742D01*
X196972662Y-49952314D01*
D11*
X191169052Y-77313680D02*
X190597623Y-77313680D01*
X190883338Y-77313680D02*
X190883338Y-76313680D01*
X190788100Y-76456538D01*
X190692861Y-76551776D01*
X190597623Y-76599395D01*
X192883338Y-76361300D02*
X192788100Y-76313680D01*
X192645242Y-76313680D01*
X192502385Y-76361300D01*
X192407147Y-76456538D01*
X192359528Y-76551776D01*
X192311909Y-76742252D01*
X192311909Y-76885109D01*
X192359528Y-77075585D01*
X192407147Y-77170823D01*
X192502385Y-77266061D01*
X192645242Y-77313680D01*
X192740480Y-77313680D01*
X192883338Y-77266061D01*
X192930957Y-77218442D01*
X192930957Y-76885109D01*
X192740480Y-76885109D01*
X193359528Y-77313680D02*
X193359528Y-76313680D01*
X193930957Y-77313680D01*
X193930957Y-76313680D01*
X194407147Y-77313680D02*
X194407147Y-76313680D01*
X194645242Y-76313680D01*
X194788100Y-76361300D01*
X194883338Y-76456538D01*
X194930957Y-76551776D01*
X194978576Y-76742252D01*
X194978576Y-76885109D01*
X194930957Y-77075585D01*
X194883338Y-77170823D01*
X194788100Y-77266061D01*
X194645242Y-77313680D01*
X194407147Y-77313680D01*
X193748552Y-56674352D02*
X193700933Y-56769590D01*
X193653314Y-56817209D01*
X193558076Y-56864828D01*
X193510457Y-56864828D01*
X193415219Y-56817209D01*
X193367600Y-56769590D01*
X193319980Y-56674352D01*
X193319980Y-56483876D01*
X193367600Y-56388638D01*
X193415219Y-56341019D01*
X193510457Y-56293400D01*
X193558076Y-56293400D01*
X193653314Y-56341019D01*
X193700933Y-56388638D01*
X193748552Y-56483876D01*
X193748552Y-56674352D01*
X193796171Y-56769590D01*
X193843790Y-56817209D01*
X193939028Y-56864828D01*
X194129504Y-56864828D01*
X194224742Y-56817209D01*
X194272361Y-56769590D01*
X194319980Y-56674352D01*
X194319980Y-56483876D01*
X194272361Y-56388638D01*
X194224742Y-56341019D01*
X194129504Y-56293400D01*
X193939028Y-56293400D01*
X193843790Y-56341019D01*
X193796171Y-56388638D01*
X193748552Y-56483876D01*
X193319980Y-55245780D02*
X194319980Y-54912447D01*
X193319980Y-54579114D01*
X194319980Y-54245780D02*
X193319980Y-54245780D01*
X194034266Y-53912447D01*
X193319980Y-53579114D01*
X194319980Y-53579114D01*
X193319980Y-52912447D02*
X193319980Y-52721971D01*
X193367600Y-52626733D01*
X193462838Y-52531495D01*
X193653314Y-52483876D01*
X193986647Y-52483876D01*
X194177123Y-52531495D01*
X194272361Y-52626733D01*
X194319980Y-52721971D01*
X194319980Y-52912447D01*
X194272361Y-53007685D01*
X194177123Y-53102923D01*
X193986647Y-53150542D01*
X193653314Y-53150542D01*
X193462838Y-53102923D01*
X193367600Y-53007685D01*
X193319980Y-52912447D01*
X193319980Y-52198161D02*
X193319980Y-51626733D01*
X194319980Y-51912447D02*
X193319980Y-51912447D01*
X188685074Y-54725460D02*
X188113645Y-54725460D01*
X188399360Y-54725460D02*
X188399360Y-53725460D01*
X188304121Y-53868318D01*
X188208883Y-53963556D01*
X188113645Y-54011175D01*
X189446979Y-54201651D02*
X189589836Y-54249270D01*
X189637455Y-54296889D01*
X189685074Y-54392127D01*
X189685074Y-54534984D01*
X189637455Y-54630222D01*
X189589836Y-54677841D01*
X189494598Y-54725460D01*
X189113645Y-54725460D01*
X189113645Y-53725460D01*
X189446979Y-53725460D01*
X189542217Y-53773080D01*
X189589836Y-53820699D01*
X189637455Y-53915937D01*
X189637455Y-54011175D01*
X189589836Y-54106413D01*
X189542217Y-54154032D01*
X189446979Y-54201651D01*
X189113645Y-54201651D01*
X186318102Y-54725460D02*
X185746674Y-54725460D01*
X186032388Y-54725460D02*
X186032388Y-53725460D01*
X185937150Y-53868318D01*
X185841912Y-53963556D01*
X185746674Y-54011175D01*
X186699055Y-54439746D02*
X187175245Y-54439746D01*
X186603817Y-54725460D02*
X186937150Y-53725460D01*
X187270483Y-54725460D01*
X183460674Y-53820699D02*
X183508293Y-53773080D01*
X183603531Y-53725460D01*
X183841626Y-53725460D01*
X183936864Y-53773080D01*
X183984483Y-53820699D01*
X184032102Y-53915937D01*
X184032102Y-54011175D01*
X183984483Y-54154032D01*
X183413055Y-54725460D01*
X184032102Y-54725460D01*
X184413055Y-54439746D02*
X184889245Y-54439746D01*
X184317817Y-54725460D02*
X184651150Y-53725460D01*
X184984483Y-54725460D01*
X180747645Y-53820699D02*
X180795264Y-53773080D01*
X180890502Y-53725460D01*
X181128598Y-53725460D01*
X181223836Y-53773080D01*
X181271455Y-53820699D01*
X181319074Y-53915937D01*
X181319074Y-54011175D01*
X181271455Y-54154032D01*
X180700026Y-54725460D01*
X181319074Y-54725460D01*
X182080979Y-54201651D02*
X182223836Y-54249270D01*
X182271455Y-54296889D01*
X182319074Y-54392127D01*
X182319074Y-54534984D01*
X182271455Y-54630222D01*
X182223836Y-54677841D01*
X182128598Y-54725460D01*
X181747645Y-54725460D01*
X181747645Y-53725460D01*
X182080979Y-53725460D01*
X182176217Y-53773080D01*
X182223836Y-53820699D01*
X182271455Y-53915937D01*
X182271455Y-54011175D01*
X182223836Y-54106413D01*
X182176217Y-54154032D01*
X182080979Y-54201651D01*
X181747645Y-54201651D01*
X188089195Y-70709800D02*
X187993957Y-70662180D01*
X187851100Y-70662180D01*
X187708242Y-70709800D01*
X187613004Y-70805038D01*
X187565385Y-70900276D01*
X187517766Y-71090752D01*
X187517766Y-71233609D01*
X187565385Y-71424085D01*
X187613004Y-71519323D01*
X187708242Y-71614561D01*
X187851100Y-71662180D01*
X187946338Y-71662180D01*
X188089195Y-71614561D01*
X188136814Y-71566942D01*
X188136814Y-71233609D01*
X187946338Y-71233609D01*
X188565385Y-71662180D02*
X188565385Y-70662180D01*
X189136814Y-71662180D01*
X189136814Y-70662180D01*
X189613004Y-71662180D02*
X189613004Y-70662180D01*
X189851100Y-70662180D01*
X189993957Y-70709800D01*
X190089195Y-70805038D01*
X190136814Y-70900276D01*
X190184433Y-71090752D01*
X190184433Y-71233609D01*
X190136814Y-71424085D01*
X190089195Y-71519323D01*
X189993957Y-71614561D01*
X189851100Y-71662180D01*
X189613004Y-71662180D01*
D10*
X176938571Y-87852342D02*
X178081428Y-87852342D01*
X177510000Y-88423771D02*
X177510000Y-87280914D01*
D12*
X164400000Y-86000000D02*
X164400000Y-52600000D01*
X168600000Y-90200000D02*
X164400000Y-86000000D01*
X202000000Y-90200000D02*
X168600000Y-90200000D01*
X206300000Y-85900000D02*
X202000000Y-90200000D01*
X206300000Y-52700000D02*
X206300000Y-85900000D01*
X201900000Y-48300000D02*
X206300000Y-52700000D01*
X168600000Y-48300000D02*
X201900000Y-48300000D01*
X164400000Y-52600000D02*
X168600000Y-48300000D01*
D13*
G04 #@! TO.C,U1*
X183093100Y-76737400D02*
X183093100Y-76787400D01*
X187243100Y-76737400D02*
X187243100Y-76882400D01*
X187243100Y-81887400D02*
X187243100Y-81742400D01*
X183093100Y-81887400D02*
X183093100Y-81742400D01*
X183093100Y-76737400D02*
X187243100Y-76737400D01*
X183093100Y-81887400D02*
X187243100Y-81887400D01*
X183093100Y-76787400D02*
X181693100Y-76787400D01*
D14*
G04 #@! TO.C,A1*
X180100800Y-75937200D02*
X180100800Y-55357200D01*
X190260800Y-73267200D02*
X190260800Y-55357200D01*
X191530800Y-75937200D02*
X192930800Y-75937200D01*
X192930800Y-75937200D02*
X192930800Y-74537200D01*
X190260800Y-75937200D02*
X190260800Y-73267200D01*
X190260800Y-73267200D02*
X192930800Y-73267200D01*
X192930800Y-73267200D02*
X192930800Y-55357200D01*
X192930800Y-55357200D02*
X177430800Y-55357200D01*
X177430800Y-55357200D02*
X177430800Y-75937200D01*
X177430800Y-75937200D02*
X190260800Y-75937200D01*
G04 #@! TO.C,J5*
X203478000Y-63098000D02*
X200818000Y-63098000D01*
X203478000Y-65698000D02*
X203478000Y-63098000D01*
X200818000Y-65698000D02*
X200818000Y-63098000D01*
X203478000Y-65698000D02*
X200818000Y-65698000D01*
X203478000Y-66968000D02*
X203478000Y-68298000D01*
X203478000Y-68298000D02*
X202148000Y-68298000D01*
G04 #@! TO.C,C4*
X189040400Y-73597400D02*
G75*
G03X189040400Y-73597400I-3270000J0D01*
G01*
X185770400Y-70367400D02*
X185770400Y-76827400D01*
X185810400Y-70367400D02*
X185810400Y-76827400D01*
X185850400Y-70367400D02*
X185850400Y-76827400D01*
X185890400Y-70369400D02*
X185890400Y-76825400D01*
X185930400Y-70370400D02*
X185930400Y-76824400D01*
X185970400Y-70373400D02*
X185970400Y-76821400D01*
X186010400Y-70375400D02*
X186010400Y-72557400D01*
X186010400Y-74637400D02*
X186010400Y-76819400D01*
X186050400Y-70379400D02*
X186050400Y-72557400D01*
X186050400Y-74637400D02*
X186050400Y-76815400D01*
X186090400Y-70382400D02*
X186090400Y-72557400D01*
X186090400Y-74637400D02*
X186090400Y-76812400D01*
X186130400Y-70386400D02*
X186130400Y-72557400D01*
X186130400Y-74637400D02*
X186130400Y-76808400D01*
X186170400Y-70391400D02*
X186170400Y-72557400D01*
X186170400Y-74637400D02*
X186170400Y-76803400D01*
X186210400Y-70396400D02*
X186210400Y-72557400D01*
X186210400Y-74637400D02*
X186210400Y-76798400D01*
X186250400Y-70402400D02*
X186250400Y-72557400D01*
X186250400Y-74637400D02*
X186250400Y-76792400D01*
X186290400Y-70408400D02*
X186290400Y-72557400D01*
X186290400Y-74637400D02*
X186290400Y-76786400D01*
X186330400Y-70415400D02*
X186330400Y-72557400D01*
X186330400Y-74637400D02*
X186330400Y-76779400D01*
X186370400Y-70422400D02*
X186370400Y-72557400D01*
X186370400Y-74637400D02*
X186370400Y-76772400D01*
X186410400Y-70430400D02*
X186410400Y-72557400D01*
X186410400Y-74637400D02*
X186410400Y-76764400D01*
X186450400Y-70438400D02*
X186450400Y-72557400D01*
X186450400Y-74637400D02*
X186450400Y-76756400D01*
X186491400Y-70447400D02*
X186491400Y-72557400D01*
X186491400Y-74637400D02*
X186491400Y-76747400D01*
X186531400Y-70456400D02*
X186531400Y-72557400D01*
X186531400Y-74637400D02*
X186531400Y-76738400D01*
X186571400Y-70466400D02*
X186571400Y-72557400D01*
X186571400Y-74637400D02*
X186571400Y-76728400D01*
X186611400Y-70476400D02*
X186611400Y-72557400D01*
X186611400Y-74637400D02*
X186611400Y-76718400D01*
X186651400Y-70487400D02*
X186651400Y-72557400D01*
X186651400Y-74637400D02*
X186651400Y-76707400D01*
X186691400Y-70499400D02*
X186691400Y-72557400D01*
X186691400Y-74637400D02*
X186691400Y-76695400D01*
X186731400Y-70511400D02*
X186731400Y-72557400D01*
X186731400Y-74637400D02*
X186731400Y-76683400D01*
X186771400Y-70523400D02*
X186771400Y-72557400D01*
X186771400Y-74637400D02*
X186771400Y-76671400D01*
X186811400Y-70536400D02*
X186811400Y-72557400D01*
X186811400Y-74637400D02*
X186811400Y-76658400D01*
X186851400Y-70550400D02*
X186851400Y-72557400D01*
X186851400Y-74637400D02*
X186851400Y-76644400D01*
X186891400Y-70564400D02*
X186891400Y-72557400D01*
X186891400Y-74637400D02*
X186891400Y-76630400D01*
X186931400Y-70579400D02*
X186931400Y-72557400D01*
X186931400Y-74637400D02*
X186931400Y-76615400D01*
X186971400Y-70595400D02*
X186971400Y-72557400D01*
X186971400Y-74637400D02*
X186971400Y-76599400D01*
X187011400Y-70611400D02*
X187011400Y-72557400D01*
X187011400Y-74637400D02*
X187011400Y-76583400D01*
X187051400Y-70627400D02*
X187051400Y-72557400D01*
X187051400Y-74637400D02*
X187051400Y-76567400D01*
X187091400Y-70645400D02*
X187091400Y-72557400D01*
X187091400Y-74637400D02*
X187091400Y-76549400D01*
X187131400Y-70663400D02*
X187131400Y-72557400D01*
X187131400Y-74637400D02*
X187131400Y-76531400D01*
X187171400Y-70681400D02*
X187171400Y-72557400D01*
X187171400Y-74637400D02*
X187171400Y-76513400D01*
X187211400Y-70701400D02*
X187211400Y-72557400D01*
X187211400Y-74637400D02*
X187211400Y-76493400D01*
X187251400Y-70721400D02*
X187251400Y-72557400D01*
X187251400Y-74637400D02*
X187251400Y-76473400D01*
X187291400Y-70741400D02*
X187291400Y-72557400D01*
X187291400Y-74637400D02*
X187291400Y-76453400D01*
X187331400Y-70763400D02*
X187331400Y-72557400D01*
X187331400Y-74637400D02*
X187331400Y-76431400D01*
X187371400Y-70785400D02*
X187371400Y-72557400D01*
X187371400Y-74637400D02*
X187371400Y-76409400D01*
X187411400Y-70807400D02*
X187411400Y-72557400D01*
X187411400Y-74637400D02*
X187411400Y-76387400D01*
X187451400Y-70831400D02*
X187451400Y-72557400D01*
X187451400Y-74637400D02*
X187451400Y-76363400D01*
X187491400Y-70855400D02*
X187491400Y-72557400D01*
X187491400Y-74637400D02*
X187491400Y-76339400D01*
X187531400Y-70881400D02*
X187531400Y-72557400D01*
X187531400Y-74637400D02*
X187531400Y-76313400D01*
X187571400Y-70907400D02*
X187571400Y-72557400D01*
X187571400Y-74637400D02*
X187571400Y-76287400D01*
X187611400Y-70933400D02*
X187611400Y-72557400D01*
X187611400Y-74637400D02*
X187611400Y-76261400D01*
X187651400Y-70961400D02*
X187651400Y-72557400D01*
X187651400Y-74637400D02*
X187651400Y-76233400D01*
X187691400Y-70990400D02*
X187691400Y-72557400D01*
X187691400Y-74637400D02*
X187691400Y-76204400D01*
X187731400Y-71019400D02*
X187731400Y-72557400D01*
X187731400Y-74637400D02*
X187731400Y-76175400D01*
X187771400Y-71049400D02*
X187771400Y-72557400D01*
X187771400Y-74637400D02*
X187771400Y-76145400D01*
X187811400Y-71081400D02*
X187811400Y-72557400D01*
X187811400Y-74637400D02*
X187811400Y-76113400D01*
X187851400Y-71113400D02*
X187851400Y-72557400D01*
X187851400Y-74637400D02*
X187851400Y-76081400D01*
X187891400Y-71147400D02*
X187891400Y-72557400D01*
X187891400Y-74637400D02*
X187891400Y-76047400D01*
X187931400Y-71181400D02*
X187931400Y-72557400D01*
X187931400Y-74637400D02*
X187931400Y-76013400D01*
X187971400Y-71217400D02*
X187971400Y-72557400D01*
X187971400Y-74637400D02*
X187971400Y-75977400D01*
X188011400Y-71254400D02*
X188011400Y-72557400D01*
X188011400Y-74637400D02*
X188011400Y-75940400D01*
X188051400Y-71292400D02*
X188051400Y-72557400D01*
X188051400Y-74637400D02*
X188051400Y-75902400D01*
X188091400Y-71332400D02*
X188091400Y-75862400D01*
X188131400Y-71373400D02*
X188131400Y-75821400D01*
X188171400Y-71415400D02*
X188171400Y-75779400D01*
X188211400Y-71460400D02*
X188211400Y-75734400D01*
X188251400Y-71505400D02*
X188251400Y-75689400D01*
X188291400Y-71553400D02*
X188291400Y-75641400D01*
X188331400Y-71602400D02*
X188331400Y-75592400D01*
X188371400Y-71653400D02*
X188371400Y-75541400D01*
X188411400Y-71707400D02*
X188411400Y-75487400D01*
X188451400Y-71763400D02*
X188451400Y-75431400D01*
X188491400Y-71821400D02*
X188491400Y-75373400D01*
X188531400Y-71883400D02*
X188531400Y-75311400D01*
X188571400Y-71947400D02*
X188571400Y-75247400D01*
X188611400Y-72016400D02*
X188611400Y-75178400D01*
X188651400Y-72088400D02*
X188651400Y-75106400D01*
X188691400Y-72165400D02*
X188691400Y-75029400D01*
X188731400Y-72247400D02*
X188731400Y-74947400D01*
X188771400Y-72335400D02*
X188771400Y-74859400D01*
X188811400Y-72432400D02*
X188811400Y-74762400D01*
X188851400Y-72538400D02*
X188851400Y-74656400D01*
X188891400Y-72657400D02*
X188891400Y-74537400D01*
X188931400Y-72795400D02*
X188931400Y-74399400D01*
X188971400Y-72964400D02*
X188971400Y-74230400D01*
X189011400Y-73195400D02*
X189011400Y-73999400D01*
X182270159Y-71758400D02*
X182900159Y-71758400D01*
X182585159Y-71443400D02*
X182585159Y-72073400D01*
G04 #@! TO.C,J4*
X179213200Y-84268200D02*
X179213200Y-96428200D01*
X179213200Y-96428200D02*
X191373200Y-96428200D01*
X191373200Y-96428200D02*
X191373200Y-84268200D01*
X191373200Y-84268200D02*
X179213200Y-84268200D01*
X179213200Y-94928200D02*
X179213200Y-93128200D01*
X179213200Y-93128200D02*
X191373200Y-93128200D01*
X191373200Y-93128200D02*
X191373200Y-94928200D01*
X191373200Y-94928200D02*
X179213200Y-94928200D01*
X181793200Y-96428200D02*
X183793200Y-96428200D01*
X183793200Y-96428200D02*
X183543200Y-94928200D01*
X183543200Y-94928200D02*
X182043200Y-94928200D01*
X182043200Y-94928200D02*
X181793200Y-96428200D01*
X186793200Y-96428200D02*
X188793200Y-96428200D01*
X188793200Y-96428200D02*
X188543200Y-94928200D01*
X188543200Y-94928200D02*
X187043200Y-94928200D01*
X187043200Y-94928200D02*
X186793200Y-96428200D01*
X183093200Y-83468200D02*
X182793200Y-84068200D01*
X182793200Y-84068200D02*
X182493200Y-83468200D01*
X182493200Y-83468200D02*
X183093200Y-83468200D01*
G04 #@! TO.C,R5*
X203007200Y-71598336D02*
X203007200Y-72802464D01*
X201187200Y-71598336D02*
X201187200Y-72802464D01*
G04 #@! TO.C,R6*
X201187200Y-77846736D02*
X201187200Y-79050864D01*
X203007200Y-77846736D02*
X203007200Y-79050864D01*
G04 #@! TO.C,J1*
X180294800Y-50804400D02*
X180294800Y-53464400D01*
X187974800Y-50804400D02*
X180294800Y-50804400D01*
X187974800Y-53464400D02*
X180294800Y-53464400D01*
X187974800Y-50804400D02*
X187974800Y-53464400D01*
X189244800Y-50804400D02*
X190574800Y-50804400D01*
X190574800Y-50804400D02*
X190574800Y-52134400D01*
G04 #@! TO.C,C1*
X192478900Y-79700936D02*
X192478900Y-80905064D01*
X190658900Y-79700936D02*
X190658900Y-80905064D01*
G04 #@! TO.C,D1*
X168556300Y-61235600D02*
X164496300Y-61235600D01*
X164496300Y-61235600D02*
X164496300Y-63505600D01*
X164496300Y-63505600D02*
X168556300Y-63505600D01*
G04 #@! TO.C,D2*
X164496300Y-70401700D02*
X168556300Y-70401700D01*
X164496300Y-68131700D02*
X164496300Y-70401700D01*
X168556300Y-68131700D02*
X164496300Y-68131700D01*
G04 #@! TO.C,D3*
X168556300Y-75027800D02*
X164496300Y-75027800D01*
X164496300Y-75027800D02*
X164496300Y-77297800D01*
X164496300Y-77297800D02*
X168556300Y-77297800D01*
G04 #@! TO.C,R1*
X171485800Y-60409636D02*
X171485800Y-61613764D01*
X169665800Y-60409636D02*
X169665800Y-61613764D01*
G04 #@! TO.C,R2*
X171536600Y-71214964D02*
X171536600Y-70010836D01*
X169716600Y-71214964D02*
X169716600Y-70010836D01*
G04 #@! TO.C,R3*
X169665800Y-78301564D02*
X169665800Y-77097436D01*
X171485800Y-78301564D02*
X171485800Y-77097436D01*
G04 #@! TO.C,U1*
D13*
X184406195Y-75264780D02*
X184406195Y-76074304D01*
X184453814Y-76169542D01*
X184501433Y-76217161D01*
X184596671Y-76264780D01*
X184787147Y-76264780D01*
X184882385Y-76217161D01*
X184930004Y-76169542D01*
X184977623Y-76074304D01*
X184977623Y-75264780D01*
X185977623Y-76264780D02*
X185406195Y-76264780D01*
X185691909Y-76264780D02*
X185691909Y-75264780D01*
X185596671Y-75407638D01*
X185501433Y-75502876D01*
X185406195Y-75550495D01*
D11*
X181677619Y-81465833D02*
X181915714Y-81465833D01*
X181630000Y-81608690D02*
X181796666Y-81108690D01*
X181963333Y-81608690D01*
X182415714Y-81561071D02*
X182391904Y-81584880D01*
X182320476Y-81608690D01*
X182272857Y-81608690D01*
X182201428Y-81584880D01*
X182153809Y-81537261D01*
X182130000Y-81489642D01*
X182106190Y-81394404D01*
X182106190Y-81322976D01*
X182130000Y-81227738D01*
X182153809Y-81180119D01*
X182201428Y-81132500D01*
X182272857Y-81108690D01*
X182320476Y-81108690D01*
X182391904Y-81132500D01*
X182415714Y-81156309D01*
X182606190Y-81584880D02*
X182677619Y-81608690D01*
X182796666Y-81608690D01*
X182844285Y-81584880D01*
X182868095Y-81561071D01*
X182891904Y-81513452D01*
X182891904Y-81465833D01*
X182868095Y-81418214D01*
X182844285Y-81394404D01*
X182796666Y-81370595D01*
X182701428Y-81346785D01*
X182653809Y-81322976D01*
X182630000Y-81299166D01*
X182606190Y-81251547D01*
X182606190Y-81203928D01*
X182630000Y-81156309D01*
X182653809Y-81132500D01*
X182701428Y-81108690D01*
X182820476Y-81108690D01*
X182891904Y-81132500D01*
X183058571Y-81108690D02*
X183391904Y-81108690D01*
X183177619Y-81608690D01*
X183844285Y-81608690D02*
X183558571Y-81608690D01*
X183701428Y-81608690D02*
X183701428Y-81108690D01*
X183653809Y-81180119D01*
X183606190Y-81227738D01*
X183558571Y-81251547D01*
X184034761Y-81156309D02*
X184058571Y-81132500D01*
X184106190Y-81108690D01*
X184225238Y-81108690D01*
X184272857Y-81132500D01*
X184296666Y-81156309D01*
X184320476Y-81203928D01*
X184320476Y-81251547D01*
X184296666Y-81322976D01*
X184010952Y-81608690D01*
X184320476Y-81608690D01*
X184487142Y-81608690D02*
X184749047Y-81275357D01*
X184487142Y-81275357D02*
X184749047Y-81608690D01*
X185177619Y-81608690D02*
X184939523Y-81608690D01*
X184939523Y-81108690D01*
X185630000Y-81561071D02*
X185606190Y-81584880D01*
X185534761Y-81608690D01*
X185487142Y-81608690D01*
X185415714Y-81584880D01*
X185368095Y-81537261D01*
X185344285Y-81489642D01*
X185320476Y-81394404D01*
X185320476Y-81322976D01*
X185344285Y-81227738D01*
X185368095Y-81180119D01*
X185415714Y-81132500D01*
X185487142Y-81108690D01*
X185534761Y-81108690D01*
X185606190Y-81132500D01*
X185630000Y-81156309D01*
X185772857Y-81108690D02*
X186058571Y-81108690D01*
X185915714Y-81608690D02*
X185915714Y-81108690D01*
X186510952Y-81608690D02*
X186344285Y-81370595D01*
X186225238Y-81608690D02*
X186225238Y-81108690D01*
X186415714Y-81108690D01*
X186463333Y-81132500D01*
X186487142Y-81156309D01*
X186510952Y-81203928D01*
X186510952Y-81275357D01*
X186487142Y-81322976D01*
X186463333Y-81346785D01*
X186415714Y-81370595D01*
X186225238Y-81370595D01*
X186725238Y-81418214D02*
X187106190Y-81418214D01*
X187439523Y-81108690D02*
X187487142Y-81108690D01*
X187534761Y-81132500D01*
X187558571Y-81156309D01*
X187582380Y-81203928D01*
X187606190Y-81299166D01*
X187606190Y-81418214D01*
X187582380Y-81513452D01*
X187558571Y-81561071D01*
X187534761Y-81584880D01*
X187487142Y-81608690D01*
X187439523Y-81608690D01*
X187391904Y-81584880D01*
X187368095Y-81561071D01*
X187344285Y-81513452D01*
X187320476Y-81418214D01*
X187320476Y-81299166D01*
X187344285Y-81203928D01*
X187368095Y-81156309D01*
X187391904Y-81132500D01*
X187439523Y-81108690D01*
X188058571Y-81108690D02*
X187820476Y-81108690D01*
X187796666Y-81346785D01*
X187820476Y-81322976D01*
X187868095Y-81299166D01*
X187987142Y-81299166D01*
X188034761Y-81322976D01*
X188058571Y-81346785D01*
X188082380Y-81394404D01*
X188082380Y-81513452D01*
X188058571Y-81561071D01*
X188034761Y-81584880D01*
X187987142Y-81608690D01*
X187868095Y-81608690D01*
X187820476Y-81584880D01*
X187796666Y-81561071D01*
X188463333Y-81346785D02*
X188534761Y-81370595D01*
X188558571Y-81394404D01*
X188582380Y-81442023D01*
X188582380Y-81513452D01*
X188558571Y-81561071D01*
X188534761Y-81584880D01*
X188487142Y-81608690D01*
X188296666Y-81608690D01*
X188296666Y-81108690D01*
X188463333Y-81108690D01*
X188510952Y-81132500D01*
X188534761Y-81156309D01*
X188558571Y-81203928D01*
X188558571Y-81251547D01*
X188534761Y-81299166D01*
X188510952Y-81322976D01*
X188463333Y-81346785D01*
X188296666Y-81346785D01*
G04 #@! TO.C,A1*
D13*
X184695114Y-61838766D02*
X185171304Y-61838766D01*
X184599876Y-62124480D02*
X184933209Y-61124480D01*
X185266542Y-62124480D01*
X186123685Y-62124480D02*
X185552257Y-62124480D01*
X185837971Y-62124480D02*
X185837971Y-61124480D01*
X185742733Y-61267338D01*
X185647495Y-61362576D01*
X185552257Y-61410195D01*
X183076042Y-63559580D02*
X183076042Y-62559580D01*
X183456995Y-62559580D01*
X183552233Y-62607200D01*
X183599852Y-62654819D01*
X183647471Y-62750057D01*
X183647471Y-62892914D01*
X183599852Y-62988152D01*
X183552233Y-63035771D01*
X183456995Y-63083390D01*
X183076042Y-63083390D01*
X184218900Y-63559580D02*
X184123661Y-63511961D01*
X184076042Y-63464342D01*
X184028423Y-63369104D01*
X184028423Y-63083390D01*
X184076042Y-62988152D01*
X184123661Y-62940533D01*
X184218900Y-62892914D01*
X184361757Y-62892914D01*
X184456995Y-62940533D01*
X184504614Y-62988152D01*
X184552233Y-63083390D01*
X184552233Y-63369104D01*
X184504614Y-63464342D01*
X184456995Y-63511961D01*
X184361757Y-63559580D01*
X184218900Y-63559580D01*
X185123661Y-63559580D02*
X185028423Y-63511961D01*
X184980804Y-63416723D01*
X184980804Y-62559580D01*
X185647471Y-63559580D02*
X185552233Y-63511961D01*
X185504614Y-63464342D01*
X185456995Y-63369104D01*
X185456995Y-63083390D01*
X185504614Y-62988152D01*
X185552233Y-62940533D01*
X185647471Y-62892914D01*
X185790328Y-62892914D01*
X185885566Y-62940533D01*
X185933185Y-62988152D01*
X185980804Y-63083390D01*
X185980804Y-63369104D01*
X185933185Y-63464342D01*
X185885566Y-63511961D01*
X185790328Y-63559580D01*
X185647471Y-63559580D01*
X186552233Y-63559580D02*
X186456995Y-63511961D01*
X186409376Y-63416723D01*
X186409376Y-62559580D01*
X187361757Y-62892914D02*
X187361757Y-63559580D01*
X186933185Y-62892914D02*
X186933185Y-63416723D01*
X186980804Y-63511961D01*
X187076042Y-63559580D01*
X187218900Y-63559580D01*
X187314138Y-63511961D01*
X187361757Y-63464342D01*
G04 #@! TO.C,J5*
X201814666Y-68750380D02*
X201814666Y-69464666D01*
X201767047Y-69607523D01*
X201671809Y-69702761D01*
X201528952Y-69750380D01*
X201433714Y-69750380D01*
X202767047Y-68750380D02*
X202290857Y-68750380D01*
X202243238Y-69226571D01*
X202290857Y-69178952D01*
X202386095Y-69131333D01*
X202624190Y-69131333D01*
X202719428Y-69178952D01*
X202767047Y-69226571D01*
X202814666Y-69321809D01*
X202814666Y-69559904D01*
X202767047Y-69655142D01*
X202719428Y-69702761D01*
X202624190Y-69750380D01*
X202386095Y-69750380D01*
X202290857Y-69702761D01*
X202243238Y-69655142D01*
G04 #@! TO.C,C4*
X185496733Y-68493542D02*
X185449114Y-68541161D01*
X185306257Y-68588780D01*
X185211019Y-68588780D01*
X185068161Y-68541161D01*
X184972923Y-68445923D01*
X184925304Y-68350685D01*
X184877685Y-68160209D01*
X184877685Y-68017352D01*
X184925304Y-67826876D01*
X184972923Y-67731638D01*
X185068161Y-67636400D01*
X185211019Y-67588780D01*
X185306257Y-67588780D01*
X185449114Y-67636400D01*
X185496733Y-67684019D01*
X186353876Y-67922114D02*
X186353876Y-68588780D01*
X186115780Y-67541161D02*
X185877685Y-68255447D01*
X186496733Y-68255447D01*
X184636480Y-69782580D02*
X184065052Y-69782580D01*
X184350766Y-69782580D02*
X184350766Y-68782580D01*
X184255528Y-68925438D01*
X184160290Y-69020676D01*
X184065052Y-69068295D01*
X185255528Y-68782580D02*
X185350766Y-68782580D01*
X185446004Y-68830200D01*
X185493623Y-68877819D01*
X185541242Y-68973057D01*
X185588861Y-69163533D01*
X185588861Y-69401628D01*
X185541242Y-69592104D01*
X185493623Y-69687342D01*
X185446004Y-69734961D01*
X185350766Y-69782580D01*
X185255528Y-69782580D01*
X185160290Y-69734961D01*
X185112671Y-69687342D01*
X185065052Y-69592104D01*
X185017433Y-69401628D01*
X185017433Y-69163533D01*
X185065052Y-68973057D01*
X185112671Y-68877819D01*
X185160290Y-68830200D01*
X185255528Y-68782580D01*
X186207909Y-68782580D02*
X186303147Y-68782580D01*
X186398385Y-68830200D01*
X186446004Y-68877819D01*
X186493623Y-68973057D01*
X186541242Y-69163533D01*
X186541242Y-69401628D01*
X186493623Y-69592104D01*
X186446004Y-69687342D01*
X186398385Y-69734961D01*
X186303147Y-69782580D01*
X186207909Y-69782580D01*
X186112671Y-69734961D01*
X186065052Y-69687342D01*
X186017433Y-69592104D01*
X185969814Y-69401628D01*
X185969814Y-69163533D01*
X186017433Y-68973057D01*
X186065052Y-68877819D01*
X186112671Y-68830200D01*
X186207909Y-68782580D01*
X187398385Y-69115914D02*
X187398385Y-69782580D01*
X186969814Y-69115914D02*
X186969814Y-69639723D01*
X187017433Y-69734961D01*
X187112671Y-69782580D01*
X187255528Y-69782580D01*
X187350766Y-69734961D01*
X187398385Y-69687342D01*
X188207909Y-69258771D02*
X187874576Y-69258771D01*
X187874576Y-69782580D02*
X187874576Y-68782580D01*
X188350766Y-68782580D01*
G04 #@! TO.C,J4*
X185025266Y-87261080D02*
X185025266Y-87975366D01*
X184977647Y-88118223D01*
X184882409Y-88213461D01*
X184739552Y-88261080D01*
X184644314Y-88261080D01*
X185930028Y-87594414D02*
X185930028Y-88261080D01*
X185691933Y-87213461D02*
X185453838Y-87927747D01*
X186072885Y-87927747D01*
G04 #@! TO.C,R5*
X204619680Y-73891066D02*
X204143490Y-74224400D01*
X204619680Y-74462495D02*
X203619680Y-74462495D01*
X203619680Y-74081542D01*
X203667300Y-73986304D01*
X203714919Y-73938685D01*
X203810157Y-73891066D01*
X203953014Y-73891066D01*
X204048252Y-73938685D01*
X204095871Y-73986304D01*
X204143490Y-74081542D01*
X204143490Y-74462495D01*
X203619680Y-72986304D02*
X203619680Y-73462495D01*
X204095871Y-73510114D01*
X204048252Y-73462495D01*
X204000633Y-73367257D01*
X204000633Y-73129161D01*
X204048252Y-73033923D01*
X204095871Y-72986304D01*
X204191109Y-72938685D01*
X204429204Y-72938685D01*
X204524442Y-72986304D01*
X204572061Y-73033923D01*
X204619680Y-73129161D01*
X204619680Y-73367257D01*
X204572061Y-73462495D01*
X204524442Y-73510114D01*
X200062914Y-72986114D02*
X200729580Y-72986114D01*
X199681961Y-73224209D02*
X200396247Y-73462304D01*
X200396247Y-72843257D01*
X200729580Y-72462304D02*
X199729580Y-72462304D01*
X200729580Y-71890876D02*
X200158152Y-72319447D01*
X199729580Y-71890876D02*
X200301009Y-72462304D01*
X199729580Y-71557542D02*
X199729580Y-70890876D01*
X200729580Y-71319447D01*
G04 #@! TO.C,R6*
X204683180Y-77116866D02*
X204206990Y-77450200D01*
X204683180Y-77688295D02*
X203683180Y-77688295D01*
X203683180Y-77307342D01*
X203730800Y-77212104D01*
X203778419Y-77164485D01*
X203873657Y-77116866D01*
X204016514Y-77116866D01*
X204111752Y-77164485D01*
X204159371Y-77212104D01*
X204206990Y-77307342D01*
X204206990Y-77688295D01*
X203683180Y-76259723D02*
X203683180Y-76450200D01*
X203730800Y-76545438D01*
X203778419Y-76593057D01*
X203921276Y-76688295D01*
X204111752Y-76735914D01*
X204492704Y-76735914D01*
X204587942Y-76688295D01*
X204635561Y-76640676D01*
X204683180Y-76545438D01*
X204683180Y-76354961D01*
X204635561Y-76259723D01*
X204587942Y-76212104D01*
X204492704Y-76164485D01*
X204254609Y-76164485D01*
X204159371Y-76212104D01*
X204111752Y-76259723D01*
X204064133Y-76354961D01*
X204064133Y-76545438D01*
X204111752Y-76640676D01*
X204159371Y-76688295D01*
X204254609Y-76735914D01*
X200062914Y-79234514D02*
X200729580Y-79234514D01*
X199681961Y-79472609D02*
X200396247Y-79710704D01*
X200396247Y-79091657D01*
X200729580Y-78710704D02*
X199729580Y-78710704D01*
X200729580Y-78139276D02*
X200158152Y-78567847D01*
X199729580Y-78139276D02*
X200301009Y-78710704D01*
X199729580Y-77805942D02*
X199729580Y-77139276D01*
X200729580Y-77567847D01*
G04 #@! TO.C,C1*
X193746042Y-80469666D02*
X193793661Y-80517285D01*
X193841280Y-80660142D01*
X193841280Y-80755380D01*
X193793661Y-80898238D01*
X193698423Y-80993476D01*
X193603185Y-81041095D01*
X193412709Y-81088714D01*
X193269852Y-81088714D01*
X193079376Y-81041095D01*
X192984138Y-80993476D01*
X192888900Y-80898238D01*
X192841280Y-80755380D01*
X192841280Y-80660142D01*
X192888900Y-80517285D01*
X192936519Y-80469666D01*
X193841280Y-79517285D02*
X193841280Y-80088714D01*
X193841280Y-79803000D02*
X192841280Y-79803000D01*
X192984138Y-79898238D01*
X193079376Y-79993476D01*
X193126995Y-80088714D01*
X190201280Y-81850619D02*
X190201280Y-82422047D01*
X190201280Y-82136333D02*
X189201280Y-82136333D01*
X189344138Y-82231571D01*
X189439376Y-82326809D01*
X189486995Y-82422047D01*
X189201280Y-81231571D02*
X189201280Y-81136333D01*
X189248900Y-81041095D01*
X189296519Y-80993476D01*
X189391757Y-80945857D01*
X189582233Y-80898238D01*
X189820328Y-80898238D01*
X190010804Y-80945857D01*
X190106042Y-80993476D01*
X190153661Y-81041095D01*
X190201280Y-81136333D01*
X190201280Y-81231571D01*
X190153661Y-81326809D01*
X190106042Y-81374428D01*
X190010804Y-81422047D01*
X189820328Y-81469666D01*
X189582233Y-81469666D01*
X189391757Y-81422047D01*
X189296519Y-81374428D01*
X189248900Y-81326809D01*
X189201280Y-81231571D01*
X189201280Y-80279190D02*
X189201280Y-80183952D01*
X189248900Y-80088714D01*
X189296519Y-80041095D01*
X189391757Y-79993476D01*
X189582233Y-79945857D01*
X189820328Y-79945857D01*
X190010804Y-79993476D01*
X190106042Y-80041095D01*
X190153661Y-80088714D01*
X190201280Y-80183952D01*
X190201280Y-80279190D01*
X190153661Y-80374428D01*
X190106042Y-80422047D01*
X190010804Y-80469666D01*
X189820328Y-80517285D01*
X189582233Y-80517285D01*
X189391757Y-80469666D01*
X189296519Y-80422047D01*
X189248900Y-80374428D01*
X189201280Y-80279190D01*
X189534614Y-79088714D02*
X190201280Y-79088714D01*
X189534614Y-79517285D02*
X190058423Y-79517285D01*
X190153661Y-79469666D01*
X190201280Y-79374428D01*
X190201280Y-79231571D01*
X190153661Y-79136333D01*
X190106042Y-79088714D01*
X189677471Y-78279190D02*
X189677471Y-78612523D01*
X190201280Y-78612523D02*
X189201280Y-78612523D01*
X189201280Y-78136333D01*
G04 #@! TO.C,D1*
X166218204Y-61002980D02*
X166218204Y-60002980D01*
X166456300Y-60002980D01*
X166599157Y-60050600D01*
X166694395Y-60145838D01*
X166742014Y-60241076D01*
X166789633Y-60431552D01*
X166789633Y-60574409D01*
X166742014Y-60764885D01*
X166694395Y-60860123D01*
X166599157Y-60955361D01*
X166456300Y-61002980D01*
X166218204Y-61002980D01*
X167742014Y-61002980D02*
X167170585Y-61002980D01*
X167456300Y-61002980D02*
X167456300Y-60002980D01*
X167361061Y-60145838D01*
X167265823Y-60241076D01*
X167170585Y-60288695D01*
X164718085Y-64804180D02*
X164718085Y-63804180D01*
X165051419Y-64518466D01*
X165384752Y-63804180D01*
X165384752Y-64804180D01*
X165813323Y-64756561D02*
X165956180Y-64804180D01*
X166194276Y-64804180D01*
X166289514Y-64756561D01*
X166337133Y-64708942D01*
X166384752Y-64613704D01*
X166384752Y-64518466D01*
X166337133Y-64423228D01*
X166289514Y-64375609D01*
X166194276Y-64327990D01*
X166003800Y-64280371D01*
X165908561Y-64232752D01*
X165860942Y-64185133D01*
X165813323Y-64089895D01*
X165813323Y-63994657D01*
X165860942Y-63899419D01*
X165908561Y-63851800D01*
X166003800Y-63804180D01*
X166241895Y-63804180D01*
X166384752Y-63851800D01*
X167337133Y-64804180D02*
X166765704Y-64804180D01*
X167051419Y-64804180D02*
X167051419Y-63804180D01*
X166956180Y-63947038D01*
X166860942Y-64042276D01*
X166765704Y-64089895D01*
G04 #@! TO.C,D2*
X166218204Y-67899080D02*
X166218204Y-66899080D01*
X166456300Y-66899080D01*
X166599157Y-66946700D01*
X166694395Y-67041938D01*
X166742014Y-67137176D01*
X166789633Y-67327652D01*
X166789633Y-67470509D01*
X166742014Y-67660985D01*
X166694395Y-67756223D01*
X166599157Y-67851461D01*
X166456300Y-67899080D01*
X166218204Y-67899080D01*
X167170585Y-66994319D02*
X167218204Y-66946700D01*
X167313442Y-66899080D01*
X167551538Y-66899080D01*
X167646776Y-66946700D01*
X167694395Y-66994319D01*
X167742014Y-67089557D01*
X167742014Y-67184795D01*
X167694395Y-67327652D01*
X167122966Y-67899080D01*
X167742014Y-67899080D01*
X164718085Y-71776480D02*
X164718085Y-70776480D01*
X165051419Y-71490766D01*
X165384752Y-70776480D01*
X165384752Y-71776480D01*
X165813323Y-71728861D02*
X165956180Y-71776480D01*
X166194276Y-71776480D01*
X166289514Y-71728861D01*
X166337133Y-71681242D01*
X166384752Y-71586004D01*
X166384752Y-71490766D01*
X166337133Y-71395528D01*
X166289514Y-71347909D01*
X166194276Y-71300290D01*
X166003800Y-71252671D01*
X165908561Y-71205052D01*
X165860942Y-71157433D01*
X165813323Y-71062195D01*
X165813323Y-70966957D01*
X165860942Y-70871719D01*
X165908561Y-70824100D01*
X166003800Y-70776480D01*
X166241895Y-70776480D01*
X166384752Y-70824100D01*
X166765704Y-70871719D02*
X166813323Y-70824100D01*
X166908561Y-70776480D01*
X167146657Y-70776480D01*
X167241895Y-70824100D01*
X167289514Y-70871719D01*
X167337133Y-70966957D01*
X167337133Y-71062195D01*
X167289514Y-71205052D01*
X166718085Y-71776480D01*
X167337133Y-71776480D01*
G04 #@! TO.C,D3*
X166218204Y-74795180D02*
X166218204Y-73795180D01*
X166456300Y-73795180D01*
X166599157Y-73842800D01*
X166694395Y-73938038D01*
X166742014Y-74033276D01*
X166789633Y-74223752D01*
X166789633Y-74366609D01*
X166742014Y-74557085D01*
X166694395Y-74652323D01*
X166599157Y-74747561D01*
X166456300Y-74795180D01*
X166218204Y-74795180D01*
X167122966Y-73795180D02*
X167742014Y-73795180D01*
X167408680Y-74176133D01*
X167551538Y-74176133D01*
X167646776Y-74223752D01*
X167694395Y-74271371D01*
X167742014Y-74366609D01*
X167742014Y-74604704D01*
X167694395Y-74699942D01*
X167646776Y-74747561D01*
X167551538Y-74795180D01*
X167265823Y-74795180D01*
X167170585Y-74747561D01*
X167122966Y-74699942D01*
X164718085Y-78672580D02*
X164718085Y-77672580D01*
X165051419Y-78386866D01*
X165384752Y-77672580D01*
X165384752Y-78672580D01*
X165813323Y-78624961D02*
X165956180Y-78672580D01*
X166194276Y-78672580D01*
X166289514Y-78624961D01*
X166337133Y-78577342D01*
X166384752Y-78482104D01*
X166384752Y-78386866D01*
X166337133Y-78291628D01*
X166289514Y-78244009D01*
X166194276Y-78196390D01*
X166003800Y-78148771D01*
X165908561Y-78101152D01*
X165860942Y-78053533D01*
X165813323Y-77958295D01*
X165813323Y-77863057D01*
X165860942Y-77767819D01*
X165908561Y-77720200D01*
X166003800Y-77672580D01*
X166241895Y-77672580D01*
X166384752Y-77720200D01*
X166718085Y-77672580D02*
X167337133Y-77672580D01*
X167003800Y-78053533D01*
X167146657Y-78053533D01*
X167241895Y-78101152D01*
X167289514Y-78148771D01*
X167337133Y-78244009D01*
X167337133Y-78482104D01*
X167289514Y-78577342D01*
X167241895Y-78624961D01*
X167146657Y-78672580D01*
X166860942Y-78672580D01*
X166765704Y-78624961D01*
X166718085Y-78577342D01*
G04 #@! TO.C,R1*
X172848180Y-62638866D02*
X172371990Y-62972200D01*
X172848180Y-63210295D02*
X171848180Y-63210295D01*
X171848180Y-62829342D01*
X171895800Y-62734104D01*
X171943419Y-62686485D01*
X172038657Y-62638866D01*
X172181514Y-62638866D01*
X172276752Y-62686485D01*
X172324371Y-62734104D01*
X172371990Y-62829342D01*
X172371990Y-63210295D01*
X172848180Y-61686485D02*
X172848180Y-62257914D01*
X172848180Y-61972200D02*
X171848180Y-61972200D01*
X171991038Y-62067438D01*
X172086276Y-62162676D01*
X172133895Y-62257914D01*
X171990319Y-60611495D02*
X171942700Y-60563876D01*
X171895080Y-60468638D01*
X171895080Y-60230542D01*
X171942700Y-60135304D01*
X171990319Y-60087685D01*
X172085557Y-60040066D01*
X172180795Y-60040066D01*
X172323652Y-60087685D01*
X172895080Y-60659114D01*
X172895080Y-60040066D01*
X171895080Y-59706733D02*
X171895080Y-59040066D01*
X172895080Y-59468638D01*
X171895080Y-58468638D02*
X171895080Y-58373400D01*
X171942700Y-58278161D01*
X171990319Y-58230542D01*
X172085557Y-58182923D01*
X172276033Y-58135304D01*
X172514128Y-58135304D01*
X172704604Y-58182923D01*
X172799842Y-58230542D01*
X172847461Y-58278161D01*
X172895080Y-58373400D01*
X172895080Y-58468638D01*
X172847461Y-58563876D01*
X172799842Y-58611495D01*
X172704604Y-58659114D01*
X172514128Y-58706733D01*
X172276033Y-58706733D01*
X172085557Y-58659114D01*
X171990319Y-58611495D01*
X171942700Y-58563876D01*
X171895080Y-58468638D01*
G04 #@! TO.C,R2*
X172945880Y-72430566D02*
X172469690Y-72763900D01*
X172945880Y-73001995D02*
X171945880Y-73001995D01*
X171945880Y-72621042D01*
X171993500Y-72525804D01*
X172041119Y-72478185D01*
X172136357Y-72430566D01*
X172279214Y-72430566D01*
X172374452Y-72478185D01*
X172422071Y-72525804D01*
X172469690Y-72621042D01*
X172469690Y-73001995D01*
X172041119Y-72049614D02*
X171993500Y-72001995D01*
X171945880Y-71906757D01*
X171945880Y-71668661D01*
X171993500Y-71573423D01*
X172041119Y-71525804D01*
X172136357Y-71478185D01*
X172231595Y-71478185D01*
X172374452Y-71525804D01*
X172945880Y-72097233D01*
X172945880Y-71478185D01*
X172041119Y-70187295D02*
X171993500Y-70139676D01*
X171945880Y-70044438D01*
X171945880Y-69806342D01*
X171993500Y-69711104D01*
X172041119Y-69663485D01*
X172136357Y-69615866D01*
X172231595Y-69615866D01*
X172374452Y-69663485D01*
X172945880Y-70234914D01*
X172945880Y-69615866D01*
X171945880Y-69282533D02*
X171945880Y-68615866D01*
X172945880Y-69044438D01*
X171945880Y-68044438D02*
X171945880Y-67949200D01*
X171993500Y-67853961D01*
X172041119Y-67806342D01*
X172136357Y-67758723D01*
X172326833Y-67711104D01*
X172564928Y-67711104D01*
X172755404Y-67758723D01*
X172850642Y-67806342D01*
X172898261Y-67853961D01*
X172945880Y-67949200D01*
X172945880Y-68044438D01*
X172898261Y-68139676D01*
X172850642Y-68187295D01*
X172755404Y-68234914D01*
X172564928Y-68282533D01*
X172326833Y-68282533D01*
X172136357Y-68234914D01*
X172041119Y-68187295D01*
X171993500Y-68139676D01*
X171945880Y-68044438D01*
G04 #@! TO.C,R3*
X172920480Y-79809266D02*
X172444290Y-80142600D01*
X172920480Y-80380695D02*
X171920480Y-80380695D01*
X171920480Y-79999742D01*
X171968100Y-79904504D01*
X172015719Y-79856885D01*
X172110957Y-79809266D01*
X172253814Y-79809266D01*
X172349052Y-79856885D01*
X172396671Y-79904504D01*
X172444290Y-79999742D01*
X172444290Y-80380695D01*
X171920480Y-79475933D02*
X171920480Y-78856885D01*
X172301433Y-79190219D01*
X172301433Y-79047361D01*
X172349052Y-78952123D01*
X172396671Y-78904504D01*
X172491909Y-78856885D01*
X172730004Y-78856885D01*
X172825242Y-78904504D01*
X172872861Y-78952123D01*
X172920480Y-79047361D01*
X172920480Y-79333076D01*
X172872861Y-79428314D01*
X172825242Y-79475933D01*
X172041119Y-77159595D02*
X171993500Y-77111976D01*
X171945880Y-77016738D01*
X171945880Y-76778642D01*
X171993500Y-76683404D01*
X172041119Y-76635785D01*
X172136357Y-76588166D01*
X172231595Y-76588166D01*
X172374452Y-76635785D01*
X172945880Y-77207214D01*
X172945880Y-76588166D01*
X171945880Y-76254833D02*
X171945880Y-75588166D01*
X172945880Y-76016738D01*
X171945880Y-75016738D02*
X171945880Y-74921500D01*
X171993500Y-74826261D01*
X172041119Y-74778642D01*
X172136357Y-74731023D01*
X172326833Y-74683404D01*
X172564928Y-74683404D01*
X172755404Y-74731023D01*
X172850642Y-74778642D01*
X172898261Y-74826261D01*
X172945880Y-74921500D01*
X172945880Y-75016738D01*
X172898261Y-75111976D01*
X172850642Y-75159595D01*
X172755404Y-75207214D01*
X172564928Y-75254833D01*
X172326833Y-75254833D01*
X172136357Y-75207214D01*
X172041119Y-75159595D01*
X171993500Y-75111976D01*
X171945880Y-75016738D01*
G04 #@! TD*
M02*
