G04 #@! TF.GenerationSoftware,KiCad,Pcbnew,5.0.1-33cea8e~68~ubuntu18.04.1*
G04 #@! TF.CreationDate,2018-11-12T21:08:18+01:00*
G04 #@! TF.ProjectId,ustepper_pololu,75737465707065725F706F6C6F6C752E,rev?*
G04 #@! TF.SameCoordinates,Original*
G04 #@! TF.FileFunction,Copper,L2,Bot,Signal*
G04 #@! TF.FilePolarity,Positive*
%FSLAX46Y46*%
G04 Gerber Fmt 4.6, Leading zero omitted, Abs format (unit mm)*
G04 Created by KiCad (PCBNEW 5.0.1-33cea8e~68~ubuntu18.04.1) date lun 12 nov 2018 21:08:18 CET*
%MOMM*%
%LPD*%
G01*
G04 APERTURE LIST*
G04 #@! TA.AperFunction,ComponentPad*
%ADD10R,1.600000X1.600000*%
G04 #@! TD*
G04 #@! TA.AperFunction,ComponentPad*
%ADD11O,1.600000X1.600000*%
G04 #@! TD*
G04 #@! TA.AperFunction,ComponentPad*
%ADD12R,1.700000X1.700000*%
G04 #@! TD*
G04 #@! TA.AperFunction,ComponentPad*
%ADD13O,1.700000X1.700000*%
G04 #@! TD*
G04 #@! TA.AperFunction,ComponentPad*
%ADD14C,1.600000*%
G04 #@! TD*
G04 #@! TA.AperFunction,ComponentPad*
%ADD15R,2.000000X3.600000*%
G04 #@! TD*
G04 #@! TA.AperFunction,ComponentPad*
%ADD16O,2.000000X3.600000*%
G04 #@! TD*
G04 #@! TA.AperFunction,ViaPad*
%ADD17C,4.000000*%
G04 #@! TD*
G04 #@! TA.AperFunction,ViaPad*
%ADD18C,0.800000*%
G04 #@! TD*
G04 #@! TA.AperFunction,Conductor*
%ADD19C,1.000000*%
G04 #@! TD*
G04 #@! TA.AperFunction,Conductor*
%ADD20C,0.250000*%
G04 #@! TD*
G04 #@! TA.AperFunction,Conductor*
%ADD21C,0.500000*%
G04 #@! TD*
G04 APERTURE END LIST*
D10*
G04 #@! TO.P,A1,1*
G04 #@! TO.N,B29-GND*
X191530800Y-74537200D03*
D11*
G04 #@! TO.P,A1,9*
G04 #@! TO.N,BD8-ENA*
X178830800Y-56757200D03*
G04 #@! TO.P,A1,2*
G04 #@! TO.N,B27-5V*
X191530800Y-71997200D03*
G04 #@! TO.P,A1,10*
G04 #@! TO.N,BD11-MS1*
X178830800Y-59297200D03*
G04 #@! TO.P,A1,3*
G04 #@! TO.N,OUT1B*
X191530800Y-69457200D03*
G04 #@! TO.P,A1,11*
G04 #@! TO.N,BD12-MS2*
X178830800Y-61837200D03*
G04 #@! TO.P,A1,4*
G04 #@! TO.N,OUT1A*
X191530800Y-66917200D03*
G04 #@! TO.P,A1,12*
G04 #@! TO.N,BD13-MS3*
X178830800Y-64377200D03*
G04 #@! TO.P,A1,5*
G04 #@! TO.N,OUT2A*
X191530800Y-64377200D03*
G04 #@! TO.P,A1,13*
G04 #@! TO.N,B27-5V*
X178830800Y-66917200D03*
G04 #@! TO.P,A1,6*
G04 #@! TO.N,OUT2B*
X191530800Y-61837200D03*
G04 #@! TO.P,A1,14*
G04 #@! TO.N,B27-5V*
X178830800Y-69457200D03*
G04 #@! TO.P,A1,7*
G04 #@! TO.N,B29-GND*
X191530800Y-59297200D03*
G04 #@! TO.P,A1,15*
G04 #@! TO.N,BD4-STEP*
X178830800Y-71997200D03*
G04 #@! TO.P,A1,8*
G04 #@! TO.N,B30-VIN*
X191530800Y-56757200D03*
G04 #@! TO.P,A1,16*
G04 #@! TO.N,BD7-DIR*
X178830800Y-74537200D03*
G04 #@! TD*
D12*
G04 #@! TO.P,J5,1*
G04 #@! TO.N,AN-IN-10V*
X202148000Y-66968000D03*
D13*
G04 #@! TO.P,J5,2*
G04 #@! TO.N,B29-GND*
X202148000Y-64428000D03*
G04 #@! TD*
D10*
G04 #@! TO.P,C4,1*
G04 #@! TO.N,B30-VIN*
X184520400Y-73597400D03*
D14*
G04 #@! TO.P,C4,2*
G04 #@! TO.N,B29-GND*
X187020400Y-73597400D03*
G04 #@! TD*
D15*
G04 #@! TO.P,J4,1*
G04 #@! TO.N,VIN*
X182793200Y-86348200D03*
D16*
G04 #@! TO.P,J4,2*
G04 #@! TO.N,B29-GND*
X187793200Y-86348200D03*
G04 #@! TD*
D12*
G04 #@! TO.P,J1,1*
G04 #@! TO.N,OUT2B*
X189244800Y-52134400D03*
D13*
G04 #@! TO.P,J1,2*
G04 #@! TO.N,OUT2A*
X186704800Y-52134400D03*
G04 #@! TO.P,J1,3*
G04 #@! TO.N,OUT1A*
X184164800Y-52134400D03*
G04 #@! TO.P,J1,4*
G04 #@! TO.N,OUT1B*
X181624800Y-52134400D03*
G04 #@! TD*
D12*
G04 #@! TO.P,J2,1*
G04 #@! TO.N,N/C*
X174411200Y-52286800D03*
D13*
G04 #@! TO.P,J2,2*
X174411200Y-54826800D03*
G04 #@! TO.P,J2,3*
X174411200Y-57366800D03*
G04 #@! TO.P,J2,4*
G04 #@! TO.N,B29-GND*
X174411200Y-59906800D03*
G04 #@! TO.P,J2,5*
G04 #@! TO.N,N/C*
X174411200Y-62446800D03*
G04 #@! TO.P,J2,6*
X174411200Y-64986800D03*
G04 #@! TO.P,J2,7*
G04 #@! TO.N,BD4-STEP*
X174411200Y-67526800D03*
G04 #@! TO.P,J2,8*
G04 #@! TO.N,N/C*
X174411200Y-70066800D03*
G04 #@! TO.P,J2,9*
X174411200Y-72606800D03*
G04 #@! TO.P,J2,10*
G04 #@! TO.N,BD7-DIR*
X174411200Y-75146800D03*
G04 #@! TO.P,J2,11*
G04 #@! TO.N,BD8-ENA*
X174411200Y-77686800D03*
G04 #@! TO.P,J2,12*
G04 #@! TO.N,N/C*
X174411200Y-80226800D03*
G04 #@! TO.P,J2,13*
X174411200Y-82766800D03*
G04 #@! TO.P,J2,14*
G04 #@! TO.N,BD11-MS1*
X174411200Y-85306800D03*
G04 #@! TO.P,J2,15*
G04 #@! TO.N,BD12-MS2*
X174411200Y-87846800D03*
G04 #@! TD*
G04 #@! TO.P,J3,15*
G04 #@! TO.N,BD13-MS3*
X196509200Y-87846800D03*
G04 #@! TO.P,J3,14*
G04 #@! TO.N,N/C*
X196509200Y-85306800D03*
G04 #@! TO.P,J3,13*
X196509200Y-82766800D03*
G04 #@! TO.P,J3,12*
G04 #@! TO.N,BA0-V*
X196509200Y-80226800D03*
G04 #@! TO.P,J3,11*
G04 #@! TO.N,BA1-I*
X196509200Y-77686800D03*
G04 #@! TO.P,J3,10*
G04 #@! TO.N,N/C*
X196509200Y-75146800D03*
G04 #@! TO.P,J3,9*
X196509200Y-72606800D03*
G04 #@! TO.P,J3,8*
X196509200Y-70066800D03*
G04 #@! TO.P,J3,7*
X196509200Y-67526800D03*
G04 #@! TO.P,J3,6*
X196509200Y-64986800D03*
G04 #@! TO.P,J3,5*
X196509200Y-62446800D03*
G04 #@! TO.P,J3,4*
G04 #@! TO.N,B27-5V*
X196509200Y-59906800D03*
G04 #@! TO.P,J3,3*
G04 #@! TO.N,N/C*
X196509200Y-57366800D03*
G04 #@! TO.P,J3,2*
G04 #@! TO.N,B29-GND*
X196509200Y-54826800D03*
D12*
G04 #@! TO.P,J3,1*
G04 #@! TO.N,B30-VIN*
X196509200Y-52286800D03*
G04 #@! TD*
D17*
G04 #@! TO.N,*
X201000000Y-53600000D03*
X169700000Y-84900000D03*
X201018610Y-84900000D03*
X169600000Y-53600000D03*
D18*
G04 #@! TO.N,B29-GND*
X191530800Y-81725400D03*
X165267200Y-76264400D03*
X165191000Y-69292100D03*
X165152900Y-62446800D03*
G04 #@! TO.N,BA1-I*
X191568900Y-78728200D03*
G04 #@! TO.N,BD12-MS2*
X182341080Y-74730240D03*
X170626600Y-72100400D03*
X168327900Y-87846800D03*
G04 #@! TO.N,BD13-MS3*
X170474200Y-79490200D03*
G04 #@! TD*
D19*
G04 #@! TO.N,B27-5V*
X195086800Y-59957600D02*
X196560000Y-59957600D01*
X194020000Y-61024400D02*
X195086800Y-59957600D01*
X191530800Y-71997200D02*
X192662170Y-71997200D01*
X194020000Y-70639370D02*
X194020000Y-61024400D01*
X192662170Y-71997200D02*
X194020000Y-70639370D01*
G04 #@! TO.N,B30-VIN*
X191530800Y-56757200D02*
X191581600Y-56706400D01*
X187238200Y-56757200D02*
X191530800Y-56757200D01*
X184520400Y-71797400D02*
X184520400Y-59475000D01*
X184520400Y-73597400D02*
X184520400Y-71797400D01*
X184520400Y-59475000D02*
X187238200Y-56757200D01*
G04 #@! TO.N,B29-GND*
X172480800Y-59957600D02*
X174385800Y-59957600D01*
X192662170Y-59297200D02*
X193918400Y-58040970D01*
X191530800Y-59297200D02*
X192662170Y-59297200D01*
X193918400Y-58040970D02*
X193918400Y-55131600D01*
X195307119Y-54826800D02*
X193918400Y-54826800D01*
X196509200Y-54826800D02*
X195307119Y-54826800D01*
X193918400Y-55131600D02*
X193918400Y-54826800D01*
X197728400Y-55080800D02*
X202148000Y-59500400D01*
X202148000Y-59500400D02*
X202148000Y-64428000D01*
X196509200Y-54826800D02*
X196763200Y-55080800D01*
X196763200Y-55080800D02*
X197728400Y-55080800D01*
X191467300Y-59360700D02*
X191530800Y-59297200D01*
X188368500Y-59360700D02*
X191467300Y-59360700D01*
X187075640Y-60653560D02*
X188368500Y-59360700D01*
X187075640Y-73745360D02*
X187075640Y-60653560D01*
X187020400Y-73597400D02*
X187391240Y-73968240D01*
X190961840Y-73968240D02*
X191530800Y-74537200D01*
X187391240Y-73968240D02*
X190961840Y-73968240D01*
X172480800Y-56973100D02*
X172480800Y-59957600D01*
X165152900Y-58052600D02*
X165152900Y-62446800D01*
X172480800Y-56973100D02*
X166232400Y-56973100D01*
X166232400Y-56973100D02*
X165152900Y-58052600D01*
D20*
X165152900Y-69254000D02*
X165191000Y-69292100D01*
D19*
X165152900Y-62446800D02*
X165152900Y-69254000D01*
D20*
X165191000Y-76188200D02*
X165267200Y-76264400D01*
D19*
X165191000Y-69292100D02*
X165191000Y-76188200D01*
X172480800Y-50712000D02*
X172480800Y-56973100D01*
X173547600Y-49645200D02*
X172480800Y-50712000D01*
X191734000Y-49645200D02*
X173547600Y-49645200D01*
X193918400Y-54826800D02*
X193918400Y-51829600D01*
X193918400Y-51829600D02*
X191734000Y-49645200D01*
D21*
G04 #@! TO.N,BA1-I*
X192610300Y-77686800D02*
X196509200Y-77686800D01*
X191568900Y-78728200D02*
X192610300Y-77686800D01*
D19*
G04 #@! TO.N,VIN*
X182805900Y-85294200D02*
X182805900Y-86094200D01*
X182805900Y-86094200D02*
X182805900Y-85116300D01*
D21*
G04 #@! TO.N,BD12-MS2*
X178830800Y-61837200D02*
X179962170Y-61837200D01*
X179962170Y-61837200D02*
X182341080Y-64216110D01*
X182341080Y-74164555D02*
X182341080Y-74730240D01*
X182341080Y-64216110D02*
X182341080Y-74164555D01*
X167959600Y-87846800D02*
X166880100Y-86767300D01*
X166880100Y-86767300D02*
X166880100Y-73356100D01*
X168135800Y-72100400D02*
X170626600Y-72100400D01*
X166880100Y-73356100D02*
X168135800Y-72100400D01*
G04 #@! TO.N,BD13-MS3*
X179962170Y-64377200D02*
X180791680Y-65206710D01*
X180791680Y-65206710D02*
X180791680Y-75273800D01*
X178830800Y-64377200D02*
X179962170Y-64377200D01*
X194681010Y-89674990D02*
X196509200Y-87846800D01*
X180791680Y-75273800D02*
X179199100Y-76866380D01*
X179199100Y-76866380D02*
X179199100Y-88329400D01*
X179199100Y-88329400D02*
X180544690Y-89674990D01*
D20*
X170474200Y-79490200D02*
X170874199Y-79890199D01*
X172118799Y-79890199D02*
X172087100Y-79921898D01*
D21*
X180544690Y-89674990D02*
X181002500Y-89674990D01*
X181002500Y-89674990D02*
X194681010Y-89674990D01*
X171415600Y-79187000D02*
X172118799Y-79890199D01*
X170575800Y-79187000D02*
X171415600Y-79187000D01*
X170874199Y-79890199D02*
X170874199Y-79485399D01*
X170874199Y-79485399D02*
X170575800Y-79187000D01*
X172214100Y-88939000D02*
X172950090Y-89674990D01*
X171566400Y-79325100D02*
X172214100Y-79972800D01*
X172950090Y-89674990D02*
X181002500Y-89674990D01*
X172214100Y-79972800D02*
X172214100Y-88939000D01*
G04 #@! TO.N,BD4-STEP*
X177383000Y-71997200D02*
X178830800Y-71997200D01*
X176483840Y-71098040D02*
X177383000Y-71997200D01*
X176483840Y-68397359D02*
X176483840Y-71098040D01*
X174411200Y-67526800D02*
X175613281Y-67526800D01*
X175613281Y-67526800D02*
X176483840Y-68397359D01*
G04 #@! TO.N,BD7-DIR*
X174411200Y-75146800D02*
X176214600Y-75146800D01*
X176824200Y-74537200D02*
X178830800Y-74537200D01*
X176214600Y-75146800D02*
X176824200Y-74537200D01*
G04 #@! TD*
M02*
