M48
;DRILL file {KiCad 5.0.1-33cea8e~68~ubuntu18.04.1} date lun 12 nov 2018 21:08:21 CET
;FORMAT={-:-/ absolute / metric / decimal}
FMAT,2
METRIC,TZ
T1C0.400
T2C0.800
T3C1.000
T4C1.400
T5C3.000
%
G90
G05
M71
T1
X165.153Y-62.447
X165.191Y-69.292
X165.267Y-76.264
X168.328Y-87.847
X170.474Y-79.49
X170.627Y-72.1
X182.341Y-74.73
X191.531Y-81.725
X191.569Y-78.728
T2
X178.831Y-56.757
X178.831Y-59.297
X178.831Y-61.837
X178.831Y-64.377
X178.831Y-66.917
X178.831Y-69.457
X178.831Y-71.997
X178.831Y-74.537
X191.531Y-56.757
X191.531Y-59.297
X191.531Y-61.837
X191.531Y-64.377
X191.531Y-66.917
X191.531Y-69.457
X191.531Y-71.997
X191.531Y-74.537
X184.52Y-73.597
X187.02Y-73.597
T3
X196.509Y-52.287
X196.509Y-54.827
X196.509Y-57.367
X196.509Y-59.907
X196.509Y-62.447
X196.509Y-64.987
X196.509Y-67.527
X196.509Y-70.067
X196.509Y-72.607
X196.509Y-75.147
X196.509Y-77.687
X196.509Y-80.227
X196.509Y-82.767
X196.509Y-85.307
X196.509Y-87.847
X202.148Y-64.428
X202.148Y-66.968
X181.625Y-52.134
X184.165Y-52.134
X186.705Y-52.134
X189.245Y-52.134
X174.411Y-52.287
X174.411Y-54.827
X174.411Y-57.367
X174.411Y-59.907
X174.411Y-62.447
X174.411Y-64.987
X174.411Y-67.527
X174.411Y-70.067
X174.411Y-72.607
X174.411Y-75.147
X174.411Y-77.687
X174.411Y-80.227
X174.411Y-82.767
X174.411Y-85.307
X174.411Y-87.847
T4
X182.793Y-86.348
X187.793Y-86.348
T5
X169.6Y-53.6
X169.7Y-84.9
X201.Y-53.6
X201.019Y-84.9
T0
M30
