G04 #@! TF.GenerationSoftware,KiCad,Pcbnew,5.0.1-33cea8e~68~ubuntu18.04.1*
G04 #@! TF.CreationDate,2018-11-12T21:08:18+01:00*
G04 #@! TF.ProjectId,ustepper_pololu,75737465707065725F706F6C6F6C752E,rev?*
G04 #@! TF.SameCoordinates,Original*
G04 #@! TF.FileFunction,Soldermask,Top*
G04 #@! TF.FilePolarity,Negative*
%FSLAX46Y46*%
G04 Gerber Fmt 4.6, Leading zero omitted, Abs format (unit mm)*
G04 Created by KiCad (PCBNEW 5.0.1-33cea8e~68~ubuntu18.04.1) date lun 12 nov 2018 21:08:18 CET*
%MOMM*%
%LPD*%
G01*
G04 APERTURE LIST*
%ADD10C,0.100000*%
G04 APERTURE END LIST*
D10*
G36*
X196637907Y-86804396D02*
X196715036Y-86811993D01*
X196846987Y-86852020D01*
X196912963Y-86872033D01*
X197095372Y-86969533D01*
X197255254Y-87100746D01*
X197386467Y-87260628D01*
X197483967Y-87443037D01*
X197483967Y-87443038D01*
X197544007Y-87640964D01*
X197564280Y-87846800D01*
X197544007Y-88052636D01*
X197514232Y-88150791D01*
X197483967Y-88250563D01*
X197386467Y-88432972D01*
X197255254Y-88592854D01*
X197095372Y-88724067D01*
X196912963Y-88821567D01*
X196846987Y-88841580D01*
X196715036Y-88881607D01*
X196637907Y-88889204D01*
X196560780Y-88896800D01*
X196457620Y-88896800D01*
X196380493Y-88889204D01*
X196303364Y-88881607D01*
X196171413Y-88841580D01*
X196105437Y-88821567D01*
X195923028Y-88724067D01*
X195763146Y-88592854D01*
X195631933Y-88432972D01*
X195534433Y-88250563D01*
X195504168Y-88150791D01*
X195474393Y-88052636D01*
X195454120Y-87846800D01*
X195474393Y-87640964D01*
X195534433Y-87443038D01*
X195534433Y-87443037D01*
X195631933Y-87260628D01*
X195763146Y-87100746D01*
X195923028Y-86969533D01*
X196105437Y-86872033D01*
X196171413Y-86852020D01*
X196303364Y-86811993D01*
X196380493Y-86804397D01*
X196457620Y-86796800D01*
X196560780Y-86796800D01*
X196637907Y-86804396D01*
X196637907Y-86804396D01*
G37*
G36*
X174539907Y-86804396D02*
X174617036Y-86811993D01*
X174748987Y-86852020D01*
X174814963Y-86872033D01*
X174997372Y-86969533D01*
X175157254Y-87100746D01*
X175288467Y-87260628D01*
X175385967Y-87443037D01*
X175385967Y-87443038D01*
X175446007Y-87640964D01*
X175466280Y-87846800D01*
X175446007Y-88052636D01*
X175416232Y-88150791D01*
X175385967Y-88250563D01*
X175288467Y-88432972D01*
X175157254Y-88592854D01*
X174997372Y-88724067D01*
X174814963Y-88821567D01*
X174748987Y-88841580D01*
X174617036Y-88881607D01*
X174539907Y-88889204D01*
X174462780Y-88896800D01*
X174359620Y-88896800D01*
X174282493Y-88889204D01*
X174205364Y-88881607D01*
X174073413Y-88841580D01*
X174007437Y-88821567D01*
X173825028Y-88724067D01*
X173665146Y-88592854D01*
X173533933Y-88432972D01*
X173436433Y-88250563D01*
X173406168Y-88150791D01*
X173376393Y-88052636D01*
X173356120Y-87846800D01*
X173376393Y-87640964D01*
X173436433Y-87443038D01*
X173436433Y-87443037D01*
X173533933Y-87260628D01*
X173665146Y-87100746D01*
X173825028Y-86969533D01*
X174007437Y-86872033D01*
X174073413Y-86852020D01*
X174205364Y-86811993D01*
X174282493Y-86804396D01*
X174359620Y-86796800D01*
X174462780Y-86796800D01*
X174539907Y-86804396D01*
X174539907Y-86804396D01*
G37*
G36*
X188028440Y-84365563D02*
X188254641Y-84434181D01*
X188254643Y-84434182D01*
X188254646Y-84434183D01*
X188463105Y-84545606D01*
X188463108Y-84545608D01*
X188463109Y-84545609D01*
X188645834Y-84695566D01*
X188645835Y-84695568D01*
X188645837Y-84695569D01*
X188795792Y-84878290D01*
X188907217Y-85086753D01*
X188907217Y-85086754D01*
X188907219Y-85086758D01*
X188975837Y-85312959D01*
X188993200Y-85489250D01*
X188993200Y-87207150D01*
X188975837Y-87383441D01*
X188907219Y-87609642D01*
X188907217Y-87609647D01*
X188795792Y-87818110D01*
X188645834Y-88000834D01*
X188463110Y-88150792D01*
X188254647Y-88262217D01*
X188254644Y-88262218D01*
X188254642Y-88262219D01*
X188028441Y-88330837D01*
X187793200Y-88354006D01*
X187557960Y-88330837D01*
X187331759Y-88262219D01*
X187331757Y-88262218D01*
X187331754Y-88262217D01*
X187123291Y-88150792D01*
X186940567Y-88000834D01*
X186790609Y-87818110D01*
X186679181Y-87609642D01*
X186610563Y-87383442D01*
X186593200Y-87207151D01*
X186593200Y-85489250D01*
X186610563Y-85312964D01*
X186610563Y-85312960D01*
X186679181Y-85086759D01*
X186679182Y-85086757D01*
X186679183Y-85086754D01*
X186790606Y-84878295D01*
X186919998Y-84720629D01*
X186940566Y-84695566D01*
X186940568Y-84695565D01*
X186940569Y-84695563D01*
X187123290Y-84545608D01*
X187331753Y-84434183D01*
X187331756Y-84434182D01*
X187331758Y-84434181D01*
X187557959Y-84365563D01*
X187793200Y-84342394D01*
X188028440Y-84365563D01*
X188028440Y-84365563D01*
G37*
G36*
X183993200Y-88348200D02*
X181593200Y-88348200D01*
X181593200Y-84348200D01*
X183993200Y-84348200D01*
X183993200Y-88348200D01*
X183993200Y-88348200D01*
G37*
G36*
X196637907Y-84264397D02*
X196715036Y-84271993D01*
X196846987Y-84312020D01*
X196912963Y-84332033D01*
X197095372Y-84429533D01*
X197255254Y-84560746D01*
X197386467Y-84720628D01*
X197483967Y-84903037D01*
X197483967Y-84903038D01*
X197544007Y-85100964D01*
X197564280Y-85306800D01*
X197544007Y-85512636D01*
X197503980Y-85644587D01*
X197483967Y-85710563D01*
X197386467Y-85892972D01*
X197255254Y-86052854D01*
X197095372Y-86184067D01*
X196912963Y-86281567D01*
X196846987Y-86301580D01*
X196715036Y-86341607D01*
X196637907Y-86349204D01*
X196560780Y-86356800D01*
X196457620Y-86356800D01*
X196380493Y-86349204D01*
X196303364Y-86341607D01*
X196171413Y-86301580D01*
X196105437Y-86281567D01*
X195923028Y-86184067D01*
X195763146Y-86052854D01*
X195631933Y-85892972D01*
X195534433Y-85710563D01*
X195514420Y-85644587D01*
X195474393Y-85512636D01*
X195454120Y-85306800D01*
X195474393Y-85100964D01*
X195534433Y-84903038D01*
X195534433Y-84903037D01*
X195631933Y-84720628D01*
X195763146Y-84560746D01*
X195923028Y-84429533D01*
X196105437Y-84332033D01*
X196171413Y-84312020D01*
X196303364Y-84271993D01*
X196380493Y-84264397D01*
X196457620Y-84256800D01*
X196560780Y-84256800D01*
X196637907Y-84264397D01*
X196637907Y-84264397D01*
G37*
G36*
X174539907Y-84264397D02*
X174617036Y-84271993D01*
X174748987Y-84312020D01*
X174814963Y-84332033D01*
X174997372Y-84429533D01*
X175157254Y-84560746D01*
X175288467Y-84720628D01*
X175385967Y-84903037D01*
X175385967Y-84903038D01*
X175446007Y-85100964D01*
X175466280Y-85306800D01*
X175446007Y-85512636D01*
X175405980Y-85644587D01*
X175385967Y-85710563D01*
X175288467Y-85892972D01*
X175157254Y-86052854D01*
X174997372Y-86184067D01*
X174814963Y-86281567D01*
X174748987Y-86301580D01*
X174617036Y-86341607D01*
X174539907Y-86349204D01*
X174462780Y-86356800D01*
X174359620Y-86356800D01*
X174282493Y-86349204D01*
X174205364Y-86341607D01*
X174073413Y-86301580D01*
X174007437Y-86281567D01*
X173825028Y-86184067D01*
X173665146Y-86052854D01*
X173533933Y-85892972D01*
X173436433Y-85710563D01*
X173416420Y-85644587D01*
X173376393Y-85512636D01*
X173356120Y-85306800D01*
X173376393Y-85100964D01*
X173436433Y-84903038D01*
X173436433Y-84903037D01*
X173533933Y-84720628D01*
X173665146Y-84560746D01*
X173825028Y-84429533D01*
X174007437Y-84332033D01*
X174073413Y-84312020D01*
X174205364Y-84271993D01*
X174282493Y-84264397D01*
X174359620Y-84256800D01*
X174462780Y-84256800D01*
X174539907Y-84264397D01*
X174539907Y-84264397D01*
G37*
G36*
X196637907Y-81724396D02*
X196715036Y-81731993D01*
X196846987Y-81772020D01*
X196912963Y-81792033D01*
X197095372Y-81889533D01*
X197255254Y-82020746D01*
X197386467Y-82180628D01*
X197483967Y-82363037D01*
X197483967Y-82363038D01*
X197544007Y-82560964D01*
X197564280Y-82766800D01*
X197544007Y-82972636D01*
X197503980Y-83104587D01*
X197483967Y-83170563D01*
X197386467Y-83352972D01*
X197255254Y-83512854D01*
X197095372Y-83644067D01*
X196912963Y-83741567D01*
X196846987Y-83761580D01*
X196715036Y-83801607D01*
X196637907Y-83809203D01*
X196560780Y-83816800D01*
X196457620Y-83816800D01*
X196380493Y-83809203D01*
X196303364Y-83801607D01*
X196171413Y-83761580D01*
X196105437Y-83741567D01*
X195923028Y-83644067D01*
X195763146Y-83512854D01*
X195631933Y-83352972D01*
X195534433Y-83170563D01*
X195514420Y-83104587D01*
X195474393Y-82972636D01*
X195454120Y-82766800D01*
X195474393Y-82560964D01*
X195534433Y-82363038D01*
X195534433Y-82363037D01*
X195631933Y-82180628D01*
X195763146Y-82020746D01*
X195923028Y-81889533D01*
X196105437Y-81792033D01*
X196171413Y-81772020D01*
X196303364Y-81731993D01*
X196380493Y-81724396D01*
X196457620Y-81716800D01*
X196560780Y-81716800D01*
X196637907Y-81724396D01*
X196637907Y-81724396D01*
G37*
G36*
X174539907Y-81724396D02*
X174617036Y-81731993D01*
X174748987Y-81772020D01*
X174814963Y-81792033D01*
X174997372Y-81889533D01*
X175157254Y-82020746D01*
X175288467Y-82180628D01*
X175385967Y-82363037D01*
X175385967Y-82363038D01*
X175446007Y-82560964D01*
X175466280Y-82766800D01*
X175446007Y-82972636D01*
X175405980Y-83104587D01*
X175385967Y-83170563D01*
X175288467Y-83352972D01*
X175157254Y-83512854D01*
X174997372Y-83644067D01*
X174814963Y-83741567D01*
X174748987Y-83761580D01*
X174617036Y-83801607D01*
X174539907Y-83809203D01*
X174462780Y-83816800D01*
X174359620Y-83816800D01*
X174282493Y-83809203D01*
X174205364Y-83801607D01*
X174073413Y-83761580D01*
X174007437Y-83741567D01*
X173825028Y-83644067D01*
X173665146Y-83512854D01*
X173533933Y-83352972D01*
X173436433Y-83170563D01*
X173416420Y-83104587D01*
X173376393Y-82972636D01*
X173356120Y-82766800D01*
X173376393Y-82560964D01*
X173436433Y-82363038D01*
X173436433Y-82363037D01*
X173533933Y-82180628D01*
X173665146Y-82020746D01*
X173825028Y-81889533D01*
X174007437Y-81792033D01*
X174073413Y-81772020D01*
X174205364Y-81731993D01*
X174282493Y-81724396D01*
X174359620Y-81716800D01*
X174462780Y-81716800D01*
X174539907Y-81724396D01*
X174539907Y-81724396D01*
G37*
G36*
X192451382Y-80883186D02*
X192496104Y-80896753D01*
X192537333Y-80918790D01*
X192573461Y-80948439D01*
X192603110Y-80984567D01*
X192625147Y-81025796D01*
X192638714Y-81070518D01*
X192643900Y-81123175D01*
X192643900Y-82457825D01*
X192638714Y-82510482D01*
X192625147Y-82555204D01*
X192603110Y-82596433D01*
X192573461Y-82632561D01*
X192537333Y-82662210D01*
X192496104Y-82684247D01*
X192451382Y-82697814D01*
X192398725Y-82703000D01*
X190739075Y-82703000D01*
X190686418Y-82697814D01*
X190641696Y-82684247D01*
X190600467Y-82662210D01*
X190564339Y-82632561D01*
X190534690Y-82596433D01*
X190512653Y-82555204D01*
X190499086Y-82510482D01*
X190493900Y-82457825D01*
X190493900Y-81123175D01*
X190499086Y-81070518D01*
X190512653Y-81025796D01*
X190534690Y-80984567D01*
X190564339Y-80948439D01*
X190600467Y-80918790D01*
X190641696Y-80896753D01*
X190686418Y-80883186D01*
X190739075Y-80878000D01*
X192398725Y-80878000D01*
X192451382Y-80883186D01*
X192451382Y-80883186D01*
G37*
G36*
X188843100Y-81717400D02*
X186893100Y-81717400D01*
X186893100Y-80717400D01*
X188843100Y-80717400D01*
X188843100Y-81717400D01*
X188843100Y-81717400D01*
G37*
G36*
X183443100Y-81717400D02*
X181493100Y-81717400D01*
X181493100Y-80717400D01*
X183443100Y-80717400D01*
X183443100Y-81717400D01*
X183443100Y-81717400D01*
G37*
G36*
X174539907Y-79184397D02*
X174617036Y-79191993D01*
X174714143Y-79221450D01*
X174814963Y-79252033D01*
X174997372Y-79349533D01*
X175157254Y-79480746D01*
X175288467Y-79640628D01*
X175385967Y-79823037D01*
X175395458Y-79854325D01*
X175446007Y-80020964D01*
X175466280Y-80226800D01*
X175446007Y-80432636D01*
X175441528Y-80447400D01*
X175385967Y-80630563D01*
X175288467Y-80812972D01*
X175157254Y-80972854D01*
X174997372Y-81104067D01*
X174814963Y-81201567D01*
X174748987Y-81221580D01*
X174617036Y-81261607D01*
X174539907Y-81269204D01*
X174462780Y-81276800D01*
X174359620Y-81276800D01*
X174282493Y-81269204D01*
X174205364Y-81261607D01*
X174073413Y-81221580D01*
X174007437Y-81201567D01*
X173825028Y-81104067D01*
X173665146Y-80972854D01*
X173533933Y-80812972D01*
X173436433Y-80630563D01*
X173380872Y-80447400D01*
X173376393Y-80432636D01*
X173356120Y-80226800D01*
X173376393Y-80020964D01*
X173426942Y-79854325D01*
X173436433Y-79823037D01*
X173533933Y-79640628D01*
X173665146Y-79480746D01*
X173825028Y-79349533D01*
X174007437Y-79252033D01*
X174108257Y-79221450D01*
X174205364Y-79191993D01*
X174282493Y-79184397D01*
X174359620Y-79176800D01*
X174462780Y-79176800D01*
X174539907Y-79184397D01*
X174539907Y-79184397D01*
G37*
G36*
X196637907Y-79184397D02*
X196715036Y-79191993D01*
X196812143Y-79221450D01*
X196912963Y-79252033D01*
X197095372Y-79349533D01*
X197255254Y-79480746D01*
X197386467Y-79640628D01*
X197483967Y-79823037D01*
X197493458Y-79854325D01*
X197544007Y-80020964D01*
X197564280Y-80226800D01*
X197544007Y-80432636D01*
X197539528Y-80447400D01*
X197483967Y-80630563D01*
X197386467Y-80812972D01*
X197255254Y-80972854D01*
X197095372Y-81104067D01*
X196912963Y-81201567D01*
X196846987Y-81221580D01*
X196715036Y-81261607D01*
X196637907Y-81269204D01*
X196560780Y-81276800D01*
X196457620Y-81276800D01*
X196380493Y-81269204D01*
X196303364Y-81261607D01*
X196171413Y-81221580D01*
X196105437Y-81201567D01*
X195923028Y-81104067D01*
X195763146Y-80972854D01*
X195631933Y-80812972D01*
X195534433Y-80630563D01*
X195478872Y-80447400D01*
X195474393Y-80432636D01*
X195454120Y-80226800D01*
X195474393Y-80020964D01*
X195524942Y-79854325D01*
X195534433Y-79823037D01*
X195631933Y-79640628D01*
X195763146Y-79480746D01*
X195923028Y-79349533D01*
X196105437Y-79252033D01*
X196206257Y-79221450D01*
X196303364Y-79191993D01*
X196380493Y-79184397D01*
X196457620Y-79176800D01*
X196560780Y-79176800D01*
X196637907Y-79184397D01*
X196637907Y-79184397D01*
G37*
G36*
X202979682Y-79028986D02*
X203024404Y-79042553D01*
X203065633Y-79064590D01*
X203101761Y-79094239D01*
X203131410Y-79130367D01*
X203153447Y-79171596D01*
X203167014Y-79216318D01*
X203172200Y-79268975D01*
X203172200Y-80603625D01*
X203167014Y-80656282D01*
X203153447Y-80701004D01*
X203131410Y-80742233D01*
X203101761Y-80778361D01*
X203065633Y-80808010D01*
X203024404Y-80830047D01*
X202979682Y-80843614D01*
X202927025Y-80848800D01*
X201267375Y-80848800D01*
X201214718Y-80843614D01*
X201169996Y-80830047D01*
X201128767Y-80808010D01*
X201092639Y-80778361D01*
X201062990Y-80742233D01*
X201040953Y-80701004D01*
X201027386Y-80656282D01*
X201022200Y-80603625D01*
X201022200Y-79268975D01*
X201027386Y-79216318D01*
X201040953Y-79171596D01*
X201062990Y-79130367D01*
X201092639Y-79094239D01*
X201128767Y-79064590D01*
X201169996Y-79042553D01*
X201214718Y-79028986D01*
X201267375Y-79023800D01*
X202927025Y-79023800D01*
X202979682Y-79028986D01*
X202979682Y-79028986D01*
G37*
G36*
X183443100Y-80447400D02*
X181493100Y-80447400D01*
X181493100Y-79447400D01*
X183443100Y-79447400D01*
X183443100Y-80447400D01*
X183443100Y-80447400D01*
G37*
G36*
X188843100Y-80447400D02*
X186893100Y-80447400D01*
X186893100Y-79447400D01*
X188843100Y-79447400D01*
X188843100Y-80447400D01*
X188843100Y-80447400D01*
G37*
G36*
X171458282Y-78279686D02*
X171503004Y-78293253D01*
X171544233Y-78315290D01*
X171580361Y-78344939D01*
X171610010Y-78381067D01*
X171632047Y-78422296D01*
X171645614Y-78467018D01*
X171650800Y-78519675D01*
X171650800Y-79854325D01*
X171645614Y-79906982D01*
X171632047Y-79951704D01*
X171610010Y-79992933D01*
X171580361Y-80029061D01*
X171544233Y-80058710D01*
X171503004Y-80080747D01*
X171458282Y-80094314D01*
X171405625Y-80099500D01*
X169745975Y-80099500D01*
X169693318Y-80094314D01*
X169648596Y-80080747D01*
X169607367Y-80058710D01*
X169571239Y-80029061D01*
X169541590Y-79992933D01*
X169519553Y-79951704D01*
X169505986Y-79906982D01*
X169500800Y-79854325D01*
X169500800Y-78519675D01*
X169505986Y-78467018D01*
X169519553Y-78422296D01*
X169541590Y-78381067D01*
X169571239Y-78344939D01*
X169607367Y-78315290D01*
X169648596Y-78293253D01*
X169693318Y-78279686D01*
X169745975Y-78274500D01*
X171405625Y-78274500D01*
X171458282Y-78279686D01*
X171458282Y-78279686D01*
G37*
G36*
X192451382Y-77908186D02*
X192496104Y-77921753D01*
X192537333Y-77943790D01*
X192573461Y-77973439D01*
X192603110Y-78009567D01*
X192625147Y-78050796D01*
X192638714Y-78095518D01*
X192643900Y-78148175D01*
X192643900Y-79482825D01*
X192638714Y-79535482D01*
X192625147Y-79580204D01*
X192603110Y-79621433D01*
X192573461Y-79657561D01*
X192537333Y-79687210D01*
X192496104Y-79709247D01*
X192451382Y-79722814D01*
X192398725Y-79728000D01*
X190739075Y-79728000D01*
X190686418Y-79722814D01*
X190641696Y-79709247D01*
X190600467Y-79687210D01*
X190564339Y-79657561D01*
X190534690Y-79621433D01*
X190512653Y-79580204D01*
X190499086Y-79535482D01*
X190493900Y-79482825D01*
X190493900Y-78148175D01*
X190499086Y-78095518D01*
X190512653Y-78050796D01*
X190534690Y-78009567D01*
X190564339Y-77973439D01*
X190600467Y-77943790D01*
X190641696Y-77921753D01*
X190686418Y-77908186D01*
X190739075Y-77903000D01*
X192398725Y-77903000D01*
X192451382Y-77908186D01*
X192451382Y-77908186D01*
G37*
G36*
X188843100Y-79177400D02*
X186893100Y-79177400D01*
X186893100Y-78177400D01*
X188843100Y-78177400D01*
X188843100Y-79177400D01*
X188843100Y-79177400D01*
G37*
G36*
X183443100Y-79177400D02*
X181493100Y-79177400D01*
X181493100Y-78177400D01*
X183443100Y-78177400D01*
X183443100Y-79177400D01*
X183443100Y-79177400D01*
G37*
G36*
X196637907Y-76644396D02*
X196715036Y-76651993D01*
X196846987Y-76692020D01*
X196912963Y-76712033D01*
X197095372Y-76809533D01*
X197255254Y-76940746D01*
X197386467Y-77100628D01*
X197483967Y-77283037D01*
X197483967Y-77283038D01*
X197544007Y-77480964D01*
X197564280Y-77686800D01*
X197544007Y-77892636D01*
X197524495Y-77956959D01*
X197483967Y-78090563D01*
X197386467Y-78272972D01*
X197255254Y-78432854D01*
X197095372Y-78564067D01*
X196912963Y-78661567D01*
X196846987Y-78681580D01*
X196715036Y-78721607D01*
X196637907Y-78729203D01*
X196560780Y-78736800D01*
X196457620Y-78736800D01*
X196380493Y-78729203D01*
X196303364Y-78721607D01*
X196171413Y-78681580D01*
X196105437Y-78661567D01*
X195923028Y-78564067D01*
X195763146Y-78432854D01*
X195631933Y-78272972D01*
X195534433Y-78090563D01*
X195493905Y-77956959D01*
X195474393Y-77892636D01*
X195454120Y-77686800D01*
X195474393Y-77480964D01*
X195534433Y-77283038D01*
X195534433Y-77283037D01*
X195631933Y-77100628D01*
X195763146Y-76940746D01*
X195923028Y-76809533D01*
X196105437Y-76712033D01*
X196171413Y-76692020D01*
X196303364Y-76651993D01*
X196380493Y-76644396D01*
X196457620Y-76636800D01*
X196560780Y-76636800D01*
X196637907Y-76644396D01*
X196637907Y-76644396D01*
G37*
G36*
X174539907Y-76644396D02*
X174617036Y-76651993D01*
X174748987Y-76692020D01*
X174814963Y-76712033D01*
X174997372Y-76809533D01*
X175157254Y-76940746D01*
X175288467Y-77100628D01*
X175385967Y-77283037D01*
X175385967Y-77283038D01*
X175446007Y-77480964D01*
X175466280Y-77686800D01*
X175446007Y-77892636D01*
X175426495Y-77956959D01*
X175385967Y-78090563D01*
X175288467Y-78272972D01*
X175157254Y-78432854D01*
X174997372Y-78564067D01*
X174814963Y-78661567D01*
X174748987Y-78681580D01*
X174617036Y-78721607D01*
X174539907Y-78729203D01*
X174462780Y-78736800D01*
X174359620Y-78736800D01*
X174282493Y-78729203D01*
X174205364Y-78721607D01*
X174073413Y-78681580D01*
X174007437Y-78661567D01*
X173825028Y-78564067D01*
X173665146Y-78432854D01*
X173533933Y-78272972D01*
X173436433Y-78090563D01*
X173395905Y-77956959D01*
X173376393Y-77892636D01*
X173356120Y-77686800D01*
X173376393Y-77480964D01*
X173436433Y-77283038D01*
X173436433Y-77283037D01*
X173533933Y-77100628D01*
X173665146Y-76940746D01*
X173825028Y-76809533D01*
X174007437Y-76712033D01*
X174073413Y-76692020D01*
X174205364Y-76651993D01*
X174282493Y-76644396D01*
X174359620Y-76636800D01*
X174462780Y-76636800D01*
X174539907Y-76644396D01*
X174539907Y-76644396D01*
G37*
G36*
X183443100Y-77907400D02*
X181493100Y-77907400D01*
X181493100Y-76907400D01*
X183443100Y-76907400D01*
X183443100Y-77907400D01*
X183443100Y-77907400D01*
G37*
G36*
X188843100Y-77907400D02*
X186893100Y-77907400D01*
X186893100Y-76907400D01*
X188843100Y-76907400D01*
X188843100Y-77907400D01*
X188843100Y-77907400D01*
G37*
G36*
X202979682Y-76053986D02*
X203024404Y-76067553D01*
X203065633Y-76089590D01*
X203101761Y-76119239D01*
X203131410Y-76155367D01*
X203153447Y-76196596D01*
X203167014Y-76241318D01*
X203172200Y-76293975D01*
X203172200Y-77628625D01*
X203167014Y-77681282D01*
X203153447Y-77726004D01*
X203131410Y-77767233D01*
X203101761Y-77803361D01*
X203065633Y-77833010D01*
X203024404Y-77855047D01*
X202979682Y-77868614D01*
X202927025Y-77873800D01*
X201267375Y-77873800D01*
X201214718Y-77868614D01*
X201169996Y-77855047D01*
X201128767Y-77833010D01*
X201092639Y-77803361D01*
X201062990Y-77767233D01*
X201040953Y-77726004D01*
X201027386Y-77681282D01*
X201022200Y-77628625D01*
X201022200Y-76293975D01*
X201027386Y-76241318D01*
X201040953Y-76196596D01*
X201062990Y-76155367D01*
X201092639Y-76119239D01*
X201128767Y-76089590D01*
X201169996Y-76067553D01*
X201214718Y-76053986D01*
X201267375Y-76048800D01*
X202927025Y-76048800D01*
X202979682Y-76053986D01*
X202979682Y-76053986D01*
G37*
G36*
X166188782Y-75092986D02*
X166233504Y-75106553D01*
X166274733Y-75128590D01*
X166310861Y-75158239D01*
X166340510Y-75194367D01*
X166362547Y-75235596D01*
X166376114Y-75280318D01*
X166381300Y-75332975D01*
X166381300Y-76992625D01*
X166376114Y-77045282D01*
X166362547Y-77090004D01*
X166340510Y-77131233D01*
X166310861Y-77167361D01*
X166274733Y-77197010D01*
X166233504Y-77219047D01*
X166188782Y-77232614D01*
X166136125Y-77237800D01*
X164801475Y-77237800D01*
X164748818Y-77232614D01*
X164704096Y-77219047D01*
X164662867Y-77197010D01*
X164626739Y-77167361D01*
X164597090Y-77131233D01*
X164575053Y-77090004D01*
X164561486Y-77045282D01*
X164556300Y-76992625D01*
X164556300Y-75332975D01*
X164561486Y-75280318D01*
X164575053Y-75235596D01*
X164597090Y-75194367D01*
X164626739Y-75158239D01*
X164662867Y-75128590D01*
X164704096Y-75106553D01*
X164748818Y-75092986D01*
X164801475Y-75087800D01*
X166136125Y-75087800D01*
X166188782Y-75092986D01*
X166188782Y-75092986D01*
G37*
G36*
X169163782Y-75092986D02*
X169208504Y-75106553D01*
X169249733Y-75128590D01*
X169285861Y-75158239D01*
X169315510Y-75194367D01*
X169337547Y-75235596D01*
X169351114Y-75280318D01*
X169353002Y-75299494D01*
X169357782Y-75323527D01*
X169367159Y-75346166D01*
X169380773Y-75366541D01*
X169398100Y-75383868D01*
X169418474Y-75397482D01*
X169441113Y-75406860D01*
X169465146Y-75411641D01*
X169489651Y-75411641D01*
X169513684Y-75406861D01*
X169536323Y-75397484D01*
X169556698Y-75383870D01*
X169567842Y-75372727D01*
X169607367Y-75340290D01*
X169648596Y-75318253D01*
X169693318Y-75304686D01*
X169745975Y-75299500D01*
X171405625Y-75299500D01*
X171458282Y-75304686D01*
X171503004Y-75318253D01*
X171544233Y-75340290D01*
X171580361Y-75369939D01*
X171610010Y-75406067D01*
X171632047Y-75447296D01*
X171645614Y-75492018D01*
X171650800Y-75544675D01*
X171650800Y-76879325D01*
X171645614Y-76931982D01*
X171632047Y-76976704D01*
X171610010Y-77017933D01*
X171580361Y-77054061D01*
X171544233Y-77083710D01*
X171503004Y-77105747D01*
X171458282Y-77119314D01*
X171405625Y-77124500D01*
X169745975Y-77124500D01*
X169693318Y-77119314D01*
X169648596Y-77105747D01*
X169607367Y-77083710D01*
X169571239Y-77054061D01*
X169556934Y-77036630D01*
X169539607Y-77019303D01*
X169519233Y-77005688D01*
X169496594Y-76996311D01*
X169472560Y-76991530D01*
X169448056Y-76991530D01*
X169424023Y-76996310D01*
X169401384Y-77005687D01*
X169381009Y-77019301D01*
X169363682Y-77036628D01*
X169350067Y-77057002D01*
X169340689Y-77079643D01*
X169337545Y-77090008D01*
X169315510Y-77131233D01*
X169285861Y-77167361D01*
X169249733Y-77197010D01*
X169208504Y-77219047D01*
X169163782Y-77232614D01*
X169111125Y-77237800D01*
X167776475Y-77237800D01*
X167723818Y-77232614D01*
X167679096Y-77219047D01*
X167637867Y-77197010D01*
X167601739Y-77167361D01*
X167572090Y-77131233D01*
X167550053Y-77090004D01*
X167536486Y-77045282D01*
X167531300Y-76992625D01*
X167531300Y-75332975D01*
X167536486Y-75280318D01*
X167550053Y-75235596D01*
X167572090Y-75194367D01*
X167601739Y-75158239D01*
X167637867Y-75128590D01*
X167679096Y-75106553D01*
X167723818Y-75092986D01*
X167776475Y-75087800D01*
X169111125Y-75087800D01*
X169163782Y-75092986D01*
X169163782Y-75092986D01*
G37*
G36*
X174539907Y-74104397D02*
X174617036Y-74111993D01*
X174748987Y-74152020D01*
X174814963Y-74172033D01*
X174997372Y-74269533D01*
X175157254Y-74400746D01*
X175288467Y-74560628D01*
X175385967Y-74743037D01*
X175385967Y-74743038D01*
X175446007Y-74940964D01*
X175466280Y-75146800D01*
X175446007Y-75352636D01*
X175428108Y-75411641D01*
X175385967Y-75550563D01*
X175288467Y-75732972D01*
X175157254Y-75892854D01*
X174997372Y-76024067D01*
X174814963Y-76121567D01*
X174748987Y-76141580D01*
X174617036Y-76181607D01*
X174539907Y-76189204D01*
X174462780Y-76196800D01*
X174359620Y-76196800D01*
X174282493Y-76189204D01*
X174205364Y-76181607D01*
X174073413Y-76141580D01*
X174007437Y-76121567D01*
X173825028Y-76024067D01*
X173665146Y-75892854D01*
X173533933Y-75732972D01*
X173436433Y-75550563D01*
X173394292Y-75411641D01*
X173376393Y-75352636D01*
X173356120Y-75146800D01*
X173376393Y-74940964D01*
X173436433Y-74743038D01*
X173436433Y-74743037D01*
X173533933Y-74560628D01*
X173665146Y-74400746D01*
X173825028Y-74269533D01*
X174007437Y-74172033D01*
X174073413Y-74152020D01*
X174205364Y-74111993D01*
X174282493Y-74104397D01*
X174359620Y-74096800D01*
X174462780Y-74096800D01*
X174539907Y-74104397D01*
X174539907Y-74104397D01*
G37*
G36*
X196637907Y-74104397D02*
X196715036Y-74111993D01*
X196846987Y-74152020D01*
X196912963Y-74172033D01*
X197095372Y-74269533D01*
X197255254Y-74400746D01*
X197386467Y-74560628D01*
X197483967Y-74743037D01*
X197483967Y-74743038D01*
X197544007Y-74940964D01*
X197564280Y-75146800D01*
X197544007Y-75352636D01*
X197526108Y-75411641D01*
X197483967Y-75550563D01*
X197386467Y-75732972D01*
X197255254Y-75892854D01*
X197095372Y-76024067D01*
X196912963Y-76121567D01*
X196846987Y-76141580D01*
X196715036Y-76181607D01*
X196637907Y-76189204D01*
X196560780Y-76196800D01*
X196457620Y-76196800D01*
X196380493Y-76189204D01*
X196303364Y-76181607D01*
X196171413Y-76141580D01*
X196105437Y-76121567D01*
X195923028Y-76024067D01*
X195763146Y-75892854D01*
X195631933Y-75732972D01*
X195534433Y-75550563D01*
X195492292Y-75411641D01*
X195474393Y-75352636D01*
X195454120Y-75146800D01*
X195474393Y-74940964D01*
X195534433Y-74743038D01*
X195534433Y-74743037D01*
X195631933Y-74560628D01*
X195763146Y-74400746D01*
X195923028Y-74269533D01*
X196105437Y-74172033D01*
X196171413Y-74152020D01*
X196303364Y-74111993D01*
X196380493Y-74104397D01*
X196457620Y-74096800D01*
X196560780Y-74096800D01*
X196637907Y-74104397D01*
X196637907Y-74104397D01*
G37*
G36*
X192530800Y-75537200D02*
X190530800Y-75537200D01*
X190530800Y-73537200D01*
X192530800Y-73537200D01*
X192530800Y-75537200D01*
X192530800Y-75537200D01*
G37*
G36*
X179026830Y-73551669D02*
X179026833Y-73551670D01*
X179026834Y-73551670D01*
X179215335Y-73608851D01*
X179215337Y-73608852D01*
X179389060Y-73701709D01*
X179541328Y-73826672D01*
X179666291Y-73978940D01*
X179759148Y-74152663D01*
X179816331Y-74341170D01*
X179835638Y-74537200D01*
X179816331Y-74733230D01*
X179759148Y-74921737D01*
X179666291Y-75095460D01*
X179541328Y-75247728D01*
X179389060Y-75372691D01*
X179323046Y-75407976D01*
X179215335Y-75465549D01*
X179026834Y-75522730D01*
X179026833Y-75522730D01*
X179026830Y-75522731D01*
X178879924Y-75537200D01*
X178781676Y-75537200D01*
X178634770Y-75522731D01*
X178634767Y-75522730D01*
X178634766Y-75522730D01*
X178446265Y-75465549D01*
X178338554Y-75407976D01*
X178272540Y-75372691D01*
X178120272Y-75247728D01*
X177995309Y-75095460D01*
X177902452Y-74921737D01*
X177845269Y-74733230D01*
X177825962Y-74537200D01*
X177845269Y-74341170D01*
X177902452Y-74152663D01*
X177995309Y-73978940D01*
X178120272Y-73826672D01*
X178272540Y-73701709D01*
X178446263Y-73608852D01*
X178446265Y-73608851D01*
X178634766Y-73551670D01*
X178634767Y-73551670D01*
X178634770Y-73551669D01*
X178781676Y-73537200D01*
X178879924Y-73537200D01*
X179026830Y-73551669D01*
X179026830Y-73551669D01*
G37*
G36*
X202979682Y-72780586D02*
X203024404Y-72794153D01*
X203065633Y-72816190D01*
X203101761Y-72845839D01*
X203131410Y-72881967D01*
X203153447Y-72923196D01*
X203167014Y-72967918D01*
X203172200Y-73020575D01*
X203172200Y-74355225D01*
X203167014Y-74407882D01*
X203153447Y-74452604D01*
X203131410Y-74493833D01*
X203101761Y-74529961D01*
X203065633Y-74559610D01*
X203024404Y-74581647D01*
X202979682Y-74595214D01*
X202927025Y-74600400D01*
X201267375Y-74600400D01*
X201214718Y-74595214D01*
X201169996Y-74581647D01*
X201128767Y-74559610D01*
X201092639Y-74529961D01*
X201062990Y-74493833D01*
X201040953Y-74452604D01*
X201027386Y-74407882D01*
X201022200Y-74355225D01*
X201022200Y-73020575D01*
X201027386Y-72967918D01*
X201040953Y-72923196D01*
X201062990Y-72881967D01*
X201092639Y-72845839D01*
X201128767Y-72816190D01*
X201169996Y-72794153D01*
X201214718Y-72780586D01*
X201267375Y-72775400D01*
X202927025Y-72775400D01*
X202979682Y-72780586D01*
X202979682Y-72780586D01*
G37*
G36*
X185520400Y-74597400D02*
X183520400Y-74597400D01*
X183520400Y-72597400D01*
X185520400Y-72597400D01*
X185520400Y-74597400D01*
X185520400Y-74597400D01*
G37*
G36*
X187166149Y-72606800D02*
X187312089Y-72635829D01*
X187494078Y-72711211D01*
X187657863Y-72820649D01*
X187797151Y-72959937D01*
X187906589Y-73123722D01*
X187981971Y-73305711D01*
X188020400Y-73498909D01*
X188020400Y-73695891D01*
X187981971Y-73889089D01*
X187906589Y-74071078D01*
X187797151Y-74234863D01*
X187657863Y-74374151D01*
X187494078Y-74483589D01*
X187312089Y-74558971D01*
X187198088Y-74581647D01*
X187118893Y-74597400D01*
X186921907Y-74597400D01*
X186842712Y-74581647D01*
X186728711Y-74558971D01*
X186546722Y-74483589D01*
X186382937Y-74374151D01*
X186243649Y-74234863D01*
X186134211Y-74071078D01*
X186058829Y-73889089D01*
X186020400Y-73695891D01*
X186020400Y-73498909D01*
X186058829Y-73305711D01*
X186134211Y-73123722D01*
X186243649Y-72959937D01*
X186382937Y-72820649D01*
X186546722Y-72711211D01*
X186728711Y-72635829D01*
X186874651Y-72606800D01*
X186921907Y-72597400D01*
X187118893Y-72597400D01*
X187166149Y-72606800D01*
X187166149Y-72606800D01*
G37*
G36*
X196637907Y-71564396D02*
X196715036Y-71571993D01*
X196829275Y-71606647D01*
X196912963Y-71632033D01*
X197095372Y-71729533D01*
X197255254Y-71860746D01*
X197386467Y-72020628D01*
X197483967Y-72203037D01*
X197483967Y-72203038D01*
X197544007Y-72400964D01*
X197564280Y-72606800D01*
X197544007Y-72812636D01*
X197511705Y-72919123D01*
X197483967Y-73010563D01*
X197386467Y-73192972D01*
X197255254Y-73352854D01*
X197095372Y-73484067D01*
X196912963Y-73581567D01*
X196846987Y-73601580D01*
X196715036Y-73641607D01*
X196637907Y-73649203D01*
X196560780Y-73656800D01*
X196457620Y-73656800D01*
X196380493Y-73649203D01*
X196303364Y-73641607D01*
X196171413Y-73601580D01*
X196105437Y-73581567D01*
X195923028Y-73484067D01*
X195763146Y-73352854D01*
X195631933Y-73192972D01*
X195534433Y-73010563D01*
X195506695Y-72919123D01*
X195474393Y-72812636D01*
X195454120Y-72606800D01*
X195474393Y-72400964D01*
X195534433Y-72203038D01*
X195534433Y-72203037D01*
X195631933Y-72020628D01*
X195763146Y-71860746D01*
X195923028Y-71729533D01*
X196105437Y-71632033D01*
X196189125Y-71606647D01*
X196303364Y-71571993D01*
X196380493Y-71564396D01*
X196457620Y-71556800D01*
X196560780Y-71556800D01*
X196637907Y-71564396D01*
X196637907Y-71564396D01*
G37*
G36*
X174539907Y-71564396D02*
X174617036Y-71571993D01*
X174731275Y-71606647D01*
X174814963Y-71632033D01*
X174997372Y-71729533D01*
X175157254Y-71860746D01*
X175288467Y-72020628D01*
X175385967Y-72203037D01*
X175385967Y-72203038D01*
X175446007Y-72400964D01*
X175466280Y-72606800D01*
X175446007Y-72812636D01*
X175413705Y-72919123D01*
X175385967Y-73010563D01*
X175288467Y-73192972D01*
X175157254Y-73352854D01*
X174997372Y-73484067D01*
X174814963Y-73581567D01*
X174748987Y-73601580D01*
X174617036Y-73641607D01*
X174539907Y-73649203D01*
X174462780Y-73656800D01*
X174359620Y-73656800D01*
X174282493Y-73649203D01*
X174205364Y-73641607D01*
X174073413Y-73601580D01*
X174007437Y-73581567D01*
X173825028Y-73484067D01*
X173665146Y-73352854D01*
X173533933Y-73192972D01*
X173436433Y-73010563D01*
X173408695Y-72919123D01*
X173376393Y-72812636D01*
X173356120Y-72606800D01*
X173376393Y-72400964D01*
X173436433Y-72203038D01*
X173436433Y-72203037D01*
X173533933Y-72020628D01*
X173665146Y-71860746D01*
X173825028Y-71729533D01*
X174007437Y-71632033D01*
X174091125Y-71606647D01*
X174205364Y-71571993D01*
X174282493Y-71564396D01*
X174359620Y-71556800D01*
X174462780Y-71556800D01*
X174539907Y-71564396D01*
X174539907Y-71564396D01*
G37*
G36*
X171509082Y-71193086D02*
X171553804Y-71206653D01*
X171595033Y-71228690D01*
X171631161Y-71258339D01*
X171660810Y-71294467D01*
X171682847Y-71335696D01*
X171696414Y-71380418D01*
X171701600Y-71433075D01*
X171701600Y-72767725D01*
X171696414Y-72820382D01*
X171682847Y-72865104D01*
X171660810Y-72906333D01*
X171631161Y-72942461D01*
X171595033Y-72972110D01*
X171553804Y-72994147D01*
X171509082Y-73007714D01*
X171456425Y-73012900D01*
X169796775Y-73012900D01*
X169744118Y-73007714D01*
X169699396Y-72994147D01*
X169658167Y-72972110D01*
X169622039Y-72942461D01*
X169592390Y-72906333D01*
X169570353Y-72865104D01*
X169556786Y-72820382D01*
X169551600Y-72767725D01*
X169551600Y-71433075D01*
X169556786Y-71380418D01*
X169570353Y-71335696D01*
X169592390Y-71294467D01*
X169622039Y-71258339D01*
X169658167Y-71228690D01*
X169699396Y-71206653D01*
X169744118Y-71193086D01*
X169796775Y-71187900D01*
X171456425Y-71187900D01*
X171509082Y-71193086D01*
X171509082Y-71193086D01*
G37*
G36*
X179026830Y-71011669D02*
X179026833Y-71011670D01*
X179026834Y-71011670D01*
X179215335Y-71068851D01*
X179215337Y-71068852D01*
X179389060Y-71161709D01*
X179541328Y-71286672D01*
X179666291Y-71438940D01*
X179759148Y-71612663D01*
X179816331Y-71801170D01*
X179835638Y-71997200D01*
X179816331Y-72193230D01*
X179759148Y-72381737D01*
X179666291Y-72555460D01*
X179541328Y-72707728D01*
X179389060Y-72832691D01*
X179318130Y-72870604D01*
X179215335Y-72925549D01*
X179026834Y-72982730D01*
X179026833Y-72982730D01*
X179026830Y-72982731D01*
X178879924Y-72997200D01*
X178781676Y-72997200D01*
X178634770Y-72982731D01*
X178634767Y-72982730D01*
X178634766Y-72982730D01*
X178446265Y-72925549D01*
X178343470Y-72870604D01*
X178272540Y-72832691D01*
X178120272Y-72707728D01*
X177995309Y-72555460D01*
X177902452Y-72381737D01*
X177845269Y-72193230D01*
X177825962Y-71997200D01*
X177845269Y-71801170D01*
X177902452Y-71612663D01*
X177995309Y-71438940D01*
X178120272Y-71286672D01*
X178272540Y-71161709D01*
X178446263Y-71068852D01*
X178446265Y-71068851D01*
X178634766Y-71011670D01*
X178634767Y-71011670D01*
X178634770Y-71011669D01*
X178781676Y-70997200D01*
X178879924Y-70997200D01*
X179026830Y-71011669D01*
X179026830Y-71011669D01*
G37*
G36*
X191726830Y-71011669D02*
X191726833Y-71011670D01*
X191726834Y-71011670D01*
X191915335Y-71068851D01*
X191915337Y-71068852D01*
X192089060Y-71161709D01*
X192241328Y-71286672D01*
X192366291Y-71438940D01*
X192459148Y-71612663D01*
X192516331Y-71801170D01*
X192535638Y-71997200D01*
X192516331Y-72193230D01*
X192459148Y-72381737D01*
X192366291Y-72555460D01*
X192241328Y-72707728D01*
X192089060Y-72832691D01*
X192018130Y-72870604D01*
X191915335Y-72925549D01*
X191726834Y-72982730D01*
X191726833Y-72982730D01*
X191726830Y-72982731D01*
X191579924Y-72997200D01*
X191481676Y-72997200D01*
X191334770Y-72982731D01*
X191334767Y-72982730D01*
X191334766Y-72982730D01*
X191146265Y-72925549D01*
X191043470Y-72870604D01*
X190972540Y-72832691D01*
X190820272Y-72707728D01*
X190695309Y-72555460D01*
X190602452Y-72381737D01*
X190545269Y-72193230D01*
X190525962Y-71997200D01*
X190545269Y-71801170D01*
X190602452Y-71612663D01*
X190695309Y-71438940D01*
X190820272Y-71286672D01*
X190972540Y-71161709D01*
X191146263Y-71068852D01*
X191146265Y-71068851D01*
X191334766Y-71011670D01*
X191334767Y-71011670D01*
X191334770Y-71011669D01*
X191481676Y-70997200D01*
X191579924Y-70997200D01*
X191726830Y-71011669D01*
X191726830Y-71011669D01*
G37*
G36*
X202979682Y-69805586D02*
X203024404Y-69819153D01*
X203065633Y-69841190D01*
X203101761Y-69870839D01*
X203131410Y-69906967D01*
X203153447Y-69948196D01*
X203167014Y-69992918D01*
X203172200Y-70045575D01*
X203172200Y-71380225D01*
X203167014Y-71432882D01*
X203153447Y-71477604D01*
X203131410Y-71518833D01*
X203101761Y-71554961D01*
X203065633Y-71584610D01*
X203024404Y-71606647D01*
X202979682Y-71620214D01*
X202927025Y-71625400D01*
X201267375Y-71625400D01*
X201214718Y-71620214D01*
X201169996Y-71606647D01*
X201128767Y-71584610D01*
X201092639Y-71554961D01*
X201062990Y-71518833D01*
X201040953Y-71477604D01*
X201027386Y-71432882D01*
X201022200Y-71380225D01*
X201022200Y-70045575D01*
X201027386Y-69992918D01*
X201040953Y-69948196D01*
X201062990Y-69906967D01*
X201092639Y-69870839D01*
X201128767Y-69841190D01*
X201169996Y-69819153D01*
X201214718Y-69805586D01*
X201267375Y-69800400D01*
X202927025Y-69800400D01*
X202979682Y-69805586D01*
X202979682Y-69805586D01*
G37*
G36*
X196637907Y-69024397D02*
X196715036Y-69031993D01*
X196846987Y-69072020D01*
X196912963Y-69092033D01*
X197095372Y-69189533D01*
X197255254Y-69320746D01*
X197386467Y-69480628D01*
X197483967Y-69663037D01*
X197483967Y-69663038D01*
X197544007Y-69860964D01*
X197564280Y-70066800D01*
X197544007Y-70272636D01*
X197509756Y-70385548D01*
X197483967Y-70470563D01*
X197386467Y-70652972D01*
X197255254Y-70812854D01*
X197095372Y-70944067D01*
X196912963Y-71041567D01*
X196846987Y-71061580D01*
X196715036Y-71101607D01*
X196637907Y-71109204D01*
X196560780Y-71116800D01*
X196457620Y-71116800D01*
X196380493Y-71109204D01*
X196303364Y-71101607D01*
X196171413Y-71061580D01*
X196105437Y-71041567D01*
X195923028Y-70944067D01*
X195763146Y-70812854D01*
X195631933Y-70652972D01*
X195534433Y-70470563D01*
X195508644Y-70385548D01*
X195474393Y-70272636D01*
X195454120Y-70066800D01*
X195474393Y-69860964D01*
X195534433Y-69663038D01*
X195534433Y-69663037D01*
X195631933Y-69480628D01*
X195763146Y-69320746D01*
X195923028Y-69189533D01*
X196105437Y-69092033D01*
X196171413Y-69072020D01*
X196303364Y-69031993D01*
X196380493Y-69024397D01*
X196457620Y-69016800D01*
X196560780Y-69016800D01*
X196637907Y-69024397D01*
X196637907Y-69024397D01*
G37*
G36*
X174539907Y-69024397D02*
X174617036Y-69031993D01*
X174748987Y-69072020D01*
X174814963Y-69092033D01*
X174997372Y-69189533D01*
X175157254Y-69320746D01*
X175288467Y-69480628D01*
X175385967Y-69663037D01*
X175385967Y-69663038D01*
X175446007Y-69860964D01*
X175466280Y-70066800D01*
X175446007Y-70272636D01*
X175411756Y-70385548D01*
X175385967Y-70470563D01*
X175288467Y-70652972D01*
X175157254Y-70812854D01*
X174997372Y-70944067D01*
X174814963Y-71041567D01*
X174748987Y-71061580D01*
X174617036Y-71101607D01*
X174539907Y-71109204D01*
X174462780Y-71116800D01*
X174359620Y-71116800D01*
X174282493Y-71109204D01*
X174205364Y-71101607D01*
X174073413Y-71061580D01*
X174007437Y-71041567D01*
X173825028Y-70944067D01*
X173665146Y-70812854D01*
X173533933Y-70652972D01*
X173436433Y-70470563D01*
X173410644Y-70385548D01*
X173376393Y-70272636D01*
X173356120Y-70066800D01*
X173376393Y-69860964D01*
X173436433Y-69663038D01*
X173436433Y-69663037D01*
X173533933Y-69480628D01*
X173665146Y-69320746D01*
X173825028Y-69189533D01*
X174007437Y-69092033D01*
X174073413Y-69072020D01*
X174205364Y-69031993D01*
X174282493Y-69024397D01*
X174359620Y-69016800D01*
X174462780Y-69016800D01*
X174539907Y-69024397D01*
X174539907Y-69024397D01*
G37*
G36*
X179026830Y-68471669D02*
X179026833Y-68471670D01*
X179026834Y-68471670D01*
X179215335Y-68528851D01*
X179215337Y-68528852D01*
X179389060Y-68621709D01*
X179541328Y-68746672D01*
X179666291Y-68898940D01*
X179759148Y-69072663D01*
X179816331Y-69261170D01*
X179835638Y-69457200D01*
X179816331Y-69653230D01*
X179816330Y-69653233D01*
X179816330Y-69653234D01*
X179764295Y-69824772D01*
X179759148Y-69841737D01*
X179666291Y-70015460D01*
X179541328Y-70167728D01*
X179389060Y-70292691D01*
X179389058Y-70292692D01*
X179215335Y-70385549D01*
X179026834Y-70442730D01*
X179026833Y-70442730D01*
X179026830Y-70442731D01*
X178879924Y-70457200D01*
X178781676Y-70457200D01*
X178634770Y-70442731D01*
X178634767Y-70442730D01*
X178634766Y-70442730D01*
X178446265Y-70385549D01*
X178272542Y-70292692D01*
X178272540Y-70292691D01*
X178120272Y-70167728D01*
X177995309Y-70015460D01*
X177902452Y-69841737D01*
X177897306Y-69824772D01*
X177845270Y-69653234D01*
X177845270Y-69653233D01*
X177845269Y-69653230D01*
X177825962Y-69457200D01*
X177845269Y-69261170D01*
X177902452Y-69072663D01*
X177995309Y-68898940D01*
X178120272Y-68746672D01*
X178272540Y-68621709D01*
X178446263Y-68528852D01*
X178446265Y-68528851D01*
X178634766Y-68471670D01*
X178634767Y-68471670D01*
X178634770Y-68471669D01*
X178781676Y-68457200D01*
X178879924Y-68457200D01*
X179026830Y-68471669D01*
X179026830Y-68471669D01*
G37*
G36*
X191726830Y-68471669D02*
X191726833Y-68471670D01*
X191726834Y-68471670D01*
X191915335Y-68528851D01*
X191915337Y-68528852D01*
X192089060Y-68621709D01*
X192241328Y-68746672D01*
X192366291Y-68898940D01*
X192459148Y-69072663D01*
X192516331Y-69261170D01*
X192535638Y-69457200D01*
X192516331Y-69653230D01*
X192516330Y-69653233D01*
X192516330Y-69653234D01*
X192464295Y-69824772D01*
X192459148Y-69841737D01*
X192366291Y-70015460D01*
X192241328Y-70167728D01*
X192089060Y-70292691D01*
X192089058Y-70292692D01*
X191915335Y-70385549D01*
X191726834Y-70442730D01*
X191726833Y-70442730D01*
X191726830Y-70442731D01*
X191579924Y-70457200D01*
X191481676Y-70457200D01*
X191334770Y-70442731D01*
X191334767Y-70442730D01*
X191334766Y-70442730D01*
X191146265Y-70385549D01*
X190972542Y-70292692D01*
X190972540Y-70292691D01*
X190820272Y-70167728D01*
X190695309Y-70015460D01*
X190602452Y-69841737D01*
X190597306Y-69824772D01*
X190545270Y-69653234D01*
X190545270Y-69653233D01*
X190545269Y-69653230D01*
X190525962Y-69457200D01*
X190545269Y-69261170D01*
X190602452Y-69072663D01*
X190695309Y-68898940D01*
X190820272Y-68746672D01*
X190972540Y-68621709D01*
X191146263Y-68528852D01*
X191146265Y-68528851D01*
X191334766Y-68471670D01*
X191334767Y-68471670D01*
X191334770Y-68471669D01*
X191481676Y-68457200D01*
X191579924Y-68457200D01*
X191726830Y-68471669D01*
X191726830Y-68471669D01*
G37*
G36*
X166188782Y-68196886D02*
X166233504Y-68210453D01*
X166274733Y-68232490D01*
X166310861Y-68262139D01*
X166340510Y-68298267D01*
X166362547Y-68339496D01*
X166376114Y-68384218D01*
X166381300Y-68436875D01*
X166381300Y-70096525D01*
X166376114Y-70149182D01*
X166362547Y-70193904D01*
X166340510Y-70235133D01*
X166310861Y-70271261D01*
X166274733Y-70300910D01*
X166233504Y-70322947D01*
X166188782Y-70336514D01*
X166136125Y-70341700D01*
X164801475Y-70341700D01*
X164748818Y-70336514D01*
X164704096Y-70322947D01*
X164662867Y-70300910D01*
X164626739Y-70271261D01*
X164597090Y-70235133D01*
X164575053Y-70193904D01*
X164561486Y-70149182D01*
X164556300Y-70096525D01*
X164556300Y-68436875D01*
X164561486Y-68384218D01*
X164575053Y-68339496D01*
X164597090Y-68298267D01*
X164626739Y-68262139D01*
X164662867Y-68232490D01*
X164704096Y-68210453D01*
X164748818Y-68196886D01*
X164801475Y-68191700D01*
X166136125Y-68191700D01*
X166188782Y-68196886D01*
X166188782Y-68196886D01*
G37*
G36*
X169163782Y-68196886D02*
X169208504Y-68210453D01*
X169249733Y-68232490D01*
X169285861Y-68262139D01*
X169315510Y-68298267D01*
X169337547Y-68339496D01*
X169338336Y-68342097D01*
X169347713Y-68364736D01*
X169361327Y-68385110D01*
X169378654Y-68402438D01*
X169399029Y-68416051D01*
X169421668Y-68425429D01*
X169445701Y-68430209D01*
X169470206Y-68430209D01*
X169494239Y-68425428D01*
X169516878Y-68416051D01*
X169537252Y-68402437D01*
X169554580Y-68385110D01*
X169568193Y-68364735D01*
X169592387Y-68319470D01*
X169622039Y-68283339D01*
X169658167Y-68253690D01*
X169699396Y-68231653D01*
X169744118Y-68218086D01*
X169796775Y-68212900D01*
X171456425Y-68212900D01*
X171509082Y-68218086D01*
X171553804Y-68231653D01*
X171595033Y-68253690D01*
X171631161Y-68283339D01*
X171660810Y-68319467D01*
X171682847Y-68360696D01*
X171696414Y-68405418D01*
X171701600Y-68458075D01*
X171701600Y-69792725D01*
X171696414Y-69845382D01*
X171682847Y-69890104D01*
X171660810Y-69931333D01*
X171631161Y-69967461D01*
X171595033Y-69997110D01*
X171553804Y-70019147D01*
X171509082Y-70032714D01*
X171456425Y-70037900D01*
X169796775Y-70037900D01*
X169744118Y-70032714D01*
X169699396Y-70019147D01*
X169658167Y-69997110D01*
X169622039Y-69967461D01*
X169592388Y-69931331D01*
X169591540Y-69929744D01*
X169577926Y-69909369D01*
X169560599Y-69892042D01*
X169540224Y-69878429D01*
X169517585Y-69869051D01*
X169493552Y-69864271D01*
X169469047Y-69864271D01*
X169445014Y-69869052D01*
X169422375Y-69878429D01*
X169402000Y-69892043D01*
X169384673Y-69909370D01*
X169371060Y-69929745D01*
X169361682Y-69952384D01*
X169356300Y-69988669D01*
X169356300Y-70096525D01*
X169351114Y-70149182D01*
X169337547Y-70193904D01*
X169315510Y-70235133D01*
X169285861Y-70271261D01*
X169249733Y-70300910D01*
X169208504Y-70322947D01*
X169163782Y-70336514D01*
X169111125Y-70341700D01*
X167776475Y-70341700D01*
X167723818Y-70336514D01*
X167679096Y-70322947D01*
X167637867Y-70300910D01*
X167601739Y-70271261D01*
X167572090Y-70235133D01*
X167550053Y-70193904D01*
X167536486Y-70149182D01*
X167531300Y-70096525D01*
X167531300Y-68436875D01*
X167536486Y-68384218D01*
X167550053Y-68339496D01*
X167572090Y-68298267D01*
X167601739Y-68262139D01*
X167637867Y-68232490D01*
X167679096Y-68210453D01*
X167723818Y-68196886D01*
X167776475Y-68191700D01*
X169111125Y-68191700D01*
X169163782Y-68196886D01*
X169163782Y-68196886D01*
G37*
G36*
X174539907Y-66484397D02*
X174617036Y-66491993D01*
X174748987Y-66532020D01*
X174814963Y-66552033D01*
X174997372Y-66649533D01*
X175157254Y-66780746D01*
X175288467Y-66940628D01*
X175385967Y-67123037D01*
X175385967Y-67123038D01*
X175446007Y-67320964D01*
X175466280Y-67526800D01*
X175446007Y-67732636D01*
X175439923Y-67752691D01*
X175385967Y-67930563D01*
X175288467Y-68112972D01*
X175157254Y-68272854D01*
X174997372Y-68404067D01*
X174814963Y-68501567D01*
X174780978Y-68511876D01*
X174617036Y-68561607D01*
X174539907Y-68569203D01*
X174462780Y-68576800D01*
X174359620Y-68576800D01*
X174282493Y-68569203D01*
X174205364Y-68561607D01*
X174041422Y-68511876D01*
X174007437Y-68501567D01*
X173825028Y-68404067D01*
X173665146Y-68272854D01*
X173533933Y-68112972D01*
X173436433Y-67930563D01*
X173382477Y-67752691D01*
X173376393Y-67732636D01*
X173356120Y-67526800D01*
X173376393Y-67320964D01*
X173436433Y-67123038D01*
X173436433Y-67123037D01*
X173533933Y-66940628D01*
X173665146Y-66780746D01*
X173825028Y-66649533D01*
X174007437Y-66552033D01*
X174073413Y-66532020D01*
X174205364Y-66491993D01*
X174282493Y-66484397D01*
X174359620Y-66476800D01*
X174462780Y-66476800D01*
X174539907Y-66484397D01*
X174539907Y-66484397D01*
G37*
G36*
X196637907Y-66484397D02*
X196715036Y-66491993D01*
X196846987Y-66532020D01*
X196912963Y-66552033D01*
X197095372Y-66649533D01*
X197255254Y-66780746D01*
X197386467Y-66940628D01*
X197483967Y-67123037D01*
X197483967Y-67123038D01*
X197544007Y-67320964D01*
X197564280Y-67526800D01*
X197544007Y-67732636D01*
X197537923Y-67752691D01*
X197483967Y-67930563D01*
X197386467Y-68112972D01*
X197255254Y-68272854D01*
X197095372Y-68404067D01*
X196912963Y-68501567D01*
X196878978Y-68511876D01*
X196715036Y-68561607D01*
X196637907Y-68569203D01*
X196560780Y-68576800D01*
X196457620Y-68576800D01*
X196380493Y-68569203D01*
X196303364Y-68561607D01*
X196139422Y-68511876D01*
X196105437Y-68501567D01*
X195923028Y-68404067D01*
X195763146Y-68272854D01*
X195631933Y-68112972D01*
X195534433Y-67930563D01*
X195480477Y-67752691D01*
X195474393Y-67732636D01*
X195454120Y-67526800D01*
X195474393Y-67320964D01*
X195534433Y-67123038D01*
X195534433Y-67123037D01*
X195631933Y-66940628D01*
X195763146Y-66780746D01*
X195923028Y-66649533D01*
X196105437Y-66552033D01*
X196171413Y-66532020D01*
X196303364Y-66491993D01*
X196380493Y-66484397D01*
X196457620Y-66476800D01*
X196560780Y-66476800D01*
X196637907Y-66484397D01*
X196637907Y-66484397D01*
G37*
G36*
X203198000Y-68018000D02*
X201098000Y-68018000D01*
X201098000Y-65918000D01*
X203198000Y-65918000D01*
X203198000Y-68018000D01*
X203198000Y-68018000D01*
G37*
G36*
X179026830Y-65931669D02*
X179026833Y-65931670D01*
X179026834Y-65931670D01*
X179215335Y-65988851D01*
X179215337Y-65988852D01*
X179389060Y-66081709D01*
X179541328Y-66206672D01*
X179666291Y-66358940D01*
X179759148Y-66532663D01*
X179816331Y-66721170D01*
X179835638Y-66917200D01*
X179816331Y-67113230D01*
X179759148Y-67301737D01*
X179666291Y-67475460D01*
X179541328Y-67627728D01*
X179389060Y-67752691D01*
X179389058Y-67752692D01*
X179215335Y-67845549D01*
X179026834Y-67902730D01*
X179026833Y-67902730D01*
X179026830Y-67902731D01*
X178879924Y-67917200D01*
X178781676Y-67917200D01*
X178634770Y-67902731D01*
X178634767Y-67902730D01*
X178634766Y-67902730D01*
X178446265Y-67845549D01*
X178272542Y-67752692D01*
X178272540Y-67752691D01*
X178120272Y-67627728D01*
X177995309Y-67475460D01*
X177902452Y-67301737D01*
X177845269Y-67113230D01*
X177825962Y-66917200D01*
X177845269Y-66721170D01*
X177902452Y-66532663D01*
X177995309Y-66358940D01*
X178120272Y-66206672D01*
X178272540Y-66081709D01*
X178446263Y-65988852D01*
X178446265Y-65988851D01*
X178634766Y-65931670D01*
X178634767Y-65931670D01*
X178634770Y-65931669D01*
X178781676Y-65917200D01*
X178879924Y-65917200D01*
X179026830Y-65931669D01*
X179026830Y-65931669D01*
G37*
G36*
X191726830Y-65931669D02*
X191726833Y-65931670D01*
X191726834Y-65931670D01*
X191915335Y-65988851D01*
X191915337Y-65988852D01*
X192089060Y-66081709D01*
X192241328Y-66206672D01*
X192366291Y-66358940D01*
X192459148Y-66532663D01*
X192516331Y-66721170D01*
X192535638Y-66917200D01*
X192516331Y-67113230D01*
X192459148Y-67301737D01*
X192366291Y-67475460D01*
X192241328Y-67627728D01*
X192089060Y-67752691D01*
X192089058Y-67752692D01*
X191915335Y-67845549D01*
X191726834Y-67902730D01*
X191726833Y-67902730D01*
X191726830Y-67902731D01*
X191579924Y-67917200D01*
X191481676Y-67917200D01*
X191334770Y-67902731D01*
X191334767Y-67902730D01*
X191334766Y-67902730D01*
X191146265Y-67845549D01*
X190972542Y-67752692D01*
X190972540Y-67752691D01*
X190820272Y-67627728D01*
X190695309Y-67475460D01*
X190602452Y-67301737D01*
X190545269Y-67113230D01*
X190525962Y-66917200D01*
X190545269Y-66721170D01*
X190602452Y-66532663D01*
X190695309Y-66358940D01*
X190820272Y-66206672D01*
X190972540Y-66081709D01*
X191146263Y-65988852D01*
X191146265Y-65988851D01*
X191334766Y-65931670D01*
X191334767Y-65931670D01*
X191334770Y-65931669D01*
X191481676Y-65917200D01*
X191579924Y-65917200D01*
X191726830Y-65931669D01*
X191726830Y-65931669D01*
G37*
G36*
X174539907Y-63944397D02*
X174617036Y-63951993D01*
X174748987Y-63992020D01*
X174814963Y-64012033D01*
X174997372Y-64109533D01*
X175157254Y-64240746D01*
X175288467Y-64400628D01*
X175385967Y-64583037D01*
X175385967Y-64583038D01*
X175446007Y-64780964D01*
X175466280Y-64986800D01*
X175446007Y-65192636D01*
X175439923Y-65212691D01*
X175385967Y-65390563D01*
X175288467Y-65572972D01*
X175157254Y-65732854D01*
X174997372Y-65864067D01*
X174814963Y-65961567D01*
X174748987Y-65981580D01*
X174617036Y-66021607D01*
X174539907Y-66029204D01*
X174462780Y-66036800D01*
X174359620Y-66036800D01*
X174282493Y-66029204D01*
X174205364Y-66021607D01*
X174073413Y-65981580D01*
X174007437Y-65961567D01*
X173825028Y-65864067D01*
X173665146Y-65732854D01*
X173533933Y-65572972D01*
X173436433Y-65390563D01*
X173382477Y-65212691D01*
X173376393Y-65192636D01*
X173356120Y-64986800D01*
X173376393Y-64780964D01*
X173436433Y-64583038D01*
X173436433Y-64583037D01*
X173533933Y-64400628D01*
X173665146Y-64240746D01*
X173825028Y-64109533D01*
X174007437Y-64012033D01*
X174073413Y-63992020D01*
X174205364Y-63951993D01*
X174282493Y-63944397D01*
X174359620Y-63936800D01*
X174462780Y-63936800D01*
X174539907Y-63944397D01*
X174539907Y-63944397D01*
G37*
G36*
X196637907Y-63944397D02*
X196715036Y-63951993D01*
X196846987Y-63992020D01*
X196912963Y-64012033D01*
X197095372Y-64109533D01*
X197255254Y-64240746D01*
X197386467Y-64400628D01*
X197483967Y-64583037D01*
X197483967Y-64583038D01*
X197544007Y-64780964D01*
X197564280Y-64986800D01*
X197544007Y-65192636D01*
X197537923Y-65212691D01*
X197483967Y-65390563D01*
X197386467Y-65572972D01*
X197255254Y-65732854D01*
X197095372Y-65864067D01*
X196912963Y-65961567D01*
X196846987Y-65981580D01*
X196715036Y-66021607D01*
X196637907Y-66029204D01*
X196560780Y-66036800D01*
X196457620Y-66036800D01*
X196380493Y-66029204D01*
X196303364Y-66021607D01*
X196171413Y-65981580D01*
X196105437Y-65961567D01*
X195923028Y-65864067D01*
X195763146Y-65732854D01*
X195631933Y-65572972D01*
X195534433Y-65390563D01*
X195480477Y-65212691D01*
X195474393Y-65192636D01*
X195454120Y-64986800D01*
X195474393Y-64780964D01*
X195534433Y-64583038D01*
X195534433Y-64583037D01*
X195631933Y-64400628D01*
X195763146Y-64240746D01*
X195923028Y-64109533D01*
X196105437Y-64012033D01*
X196171413Y-63992020D01*
X196303364Y-63951993D01*
X196380493Y-63944397D01*
X196457620Y-63936800D01*
X196560780Y-63936800D01*
X196637907Y-63944397D01*
X196637907Y-63944397D01*
G37*
G36*
X202276707Y-63385596D02*
X202353836Y-63393193D01*
X202485787Y-63433220D01*
X202551763Y-63453233D01*
X202734172Y-63550733D01*
X202894054Y-63681946D01*
X203025267Y-63841828D01*
X203122767Y-64024237D01*
X203122767Y-64024238D01*
X203182807Y-64222164D01*
X203203080Y-64428000D01*
X203182807Y-64633836D01*
X203144009Y-64761735D01*
X203122767Y-64831763D01*
X203025267Y-65014172D01*
X202894054Y-65174054D01*
X202734172Y-65305267D01*
X202551763Y-65402767D01*
X202485787Y-65422780D01*
X202353836Y-65462807D01*
X202276707Y-65470403D01*
X202199580Y-65478000D01*
X202096420Y-65478000D01*
X202019293Y-65470403D01*
X201942164Y-65462807D01*
X201810213Y-65422780D01*
X201744237Y-65402767D01*
X201561828Y-65305267D01*
X201401946Y-65174054D01*
X201270733Y-65014172D01*
X201173233Y-64831763D01*
X201151991Y-64761735D01*
X201113193Y-64633836D01*
X201092920Y-64428000D01*
X201113193Y-64222164D01*
X201173233Y-64024238D01*
X201173233Y-64024237D01*
X201270733Y-63841828D01*
X201401946Y-63681946D01*
X201561828Y-63550733D01*
X201744237Y-63453233D01*
X201810213Y-63433220D01*
X201942164Y-63393193D01*
X202019293Y-63385596D01*
X202096420Y-63378000D01*
X202199580Y-63378000D01*
X202276707Y-63385596D01*
X202276707Y-63385596D01*
G37*
G36*
X191726830Y-63391669D02*
X191726833Y-63391670D01*
X191726834Y-63391670D01*
X191915335Y-63448851D01*
X191915337Y-63448852D01*
X192089060Y-63541709D01*
X192241328Y-63666672D01*
X192366291Y-63818940D01*
X192437409Y-63951993D01*
X192459149Y-63992665D01*
X192494600Y-64109533D01*
X192516331Y-64181170D01*
X192535638Y-64377200D01*
X192516331Y-64573230D01*
X192516330Y-64573233D01*
X192516330Y-64573234D01*
X192497947Y-64633836D01*
X192459148Y-64761737D01*
X192366291Y-64935460D01*
X192241328Y-65087728D01*
X192089060Y-65212691D01*
X192089058Y-65212692D01*
X191915335Y-65305549D01*
X191726834Y-65362730D01*
X191726833Y-65362730D01*
X191726830Y-65362731D01*
X191579924Y-65377200D01*
X191481676Y-65377200D01*
X191334770Y-65362731D01*
X191334767Y-65362730D01*
X191334766Y-65362730D01*
X191146265Y-65305549D01*
X190972542Y-65212692D01*
X190972540Y-65212691D01*
X190820272Y-65087728D01*
X190695309Y-64935460D01*
X190602452Y-64761737D01*
X190563654Y-64633836D01*
X190545270Y-64573234D01*
X190545270Y-64573233D01*
X190545269Y-64573230D01*
X190525962Y-64377200D01*
X190545269Y-64181170D01*
X190567000Y-64109533D01*
X190602451Y-63992665D01*
X190624191Y-63951993D01*
X190695309Y-63818940D01*
X190820272Y-63666672D01*
X190972540Y-63541709D01*
X191146263Y-63448852D01*
X191146265Y-63448851D01*
X191334766Y-63391670D01*
X191334767Y-63391670D01*
X191334770Y-63391669D01*
X191481676Y-63377200D01*
X191579924Y-63377200D01*
X191726830Y-63391669D01*
X191726830Y-63391669D01*
G37*
G36*
X179026830Y-63391669D02*
X179026833Y-63391670D01*
X179026834Y-63391670D01*
X179215335Y-63448851D01*
X179215337Y-63448852D01*
X179389060Y-63541709D01*
X179541328Y-63666672D01*
X179666291Y-63818940D01*
X179737409Y-63951993D01*
X179759149Y-63992665D01*
X179794600Y-64109533D01*
X179816331Y-64181170D01*
X179835638Y-64377200D01*
X179816331Y-64573230D01*
X179816330Y-64573233D01*
X179816330Y-64573234D01*
X179797947Y-64633836D01*
X179759148Y-64761737D01*
X179666291Y-64935460D01*
X179541328Y-65087728D01*
X179389060Y-65212691D01*
X179389058Y-65212692D01*
X179215335Y-65305549D01*
X179026834Y-65362730D01*
X179026833Y-65362730D01*
X179026830Y-65362731D01*
X178879924Y-65377200D01*
X178781676Y-65377200D01*
X178634770Y-65362731D01*
X178634767Y-65362730D01*
X178634766Y-65362730D01*
X178446265Y-65305549D01*
X178272542Y-65212692D01*
X178272540Y-65212691D01*
X178120272Y-65087728D01*
X177995309Y-64935460D01*
X177902452Y-64761737D01*
X177863654Y-64633836D01*
X177845270Y-64573234D01*
X177845270Y-64573233D01*
X177845269Y-64573230D01*
X177825962Y-64377200D01*
X177845269Y-64181170D01*
X177867000Y-64109533D01*
X177902451Y-63992665D01*
X177924191Y-63951993D01*
X177995309Y-63818940D01*
X178120272Y-63666672D01*
X178272540Y-63541709D01*
X178446263Y-63448852D01*
X178446265Y-63448851D01*
X178634766Y-63391670D01*
X178634767Y-63391670D01*
X178634770Y-63391669D01*
X178781676Y-63377200D01*
X178879924Y-63377200D01*
X179026830Y-63391669D01*
X179026830Y-63391669D01*
G37*
G36*
X174539907Y-61404397D02*
X174617036Y-61411993D01*
X174720558Y-61443396D01*
X174814963Y-61472033D01*
X174997372Y-61569533D01*
X175157254Y-61700746D01*
X175288467Y-61860628D01*
X175385967Y-62043037D01*
X175385967Y-62043038D01*
X175446007Y-62240964D01*
X175466280Y-62446800D01*
X175446007Y-62652636D01*
X175439923Y-62672691D01*
X175385967Y-62850563D01*
X175288467Y-63032972D01*
X175157254Y-63192854D01*
X174997372Y-63324067D01*
X174814963Y-63421567D01*
X174756016Y-63439448D01*
X174617036Y-63481607D01*
X174539907Y-63489203D01*
X174462780Y-63496800D01*
X174359620Y-63496800D01*
X174282493Y-63489203D01*
X174205364Y-63481607D01*
X174066384Y-63439448D01*
X174007437Y-63421567D01*
X173825028Y-63324067D01*
X173665146Y-63192854D01*
X173533933Y-63032972D01*
X173436433Y-62850563D01*
X173382477Y-62672691D01*
X173376393Y-62652636D01*
X173356120Y-62446800D01*
X173376393Y-62240964D01*
X173436433Y-62043038D01*
X173436433Y-62043037D01*
X173533933Y-61860628D01*
X173665146Y-61700746D01*
X173825028Y-61569533D01*
X174007437Y-61472033D01*
X174101842Y-61443396D01*
X174205364Y-61411993D01*
X174282493Y-61404397D01*
X174359620Y-61396800D01*
X174462780Y-61396800D01*
X174539907Y-61404397D01*
X174539907Y-61404397D01*
G37*
G36*
X196637907Y-61404397D02*
X196715036Y-61411993D01*
X196818558Y-61443396D01*
X196912963Y-61472033D01*
X197095372Y-61569533D01*
X197255254Y-61700746D01*
X197386467Y-61860628D01*
X197483967Y-62043037D01*
X197483967Y-62043038D01*
X197544007Y-62240964D01*
X197564280Y-62446800D01*
X197544007Y-62652636D01*
X197537923Y-62672691D01*
X197483967Y-62850563D01*
X197386467Y-63032972D01*
X197255254Y-63192854D01*
X197095372Y-63324067D01*
X196912963Y-63421567D01*
X196854016Y-63439448D01*
X196715036Y-63481607D01*
X196637907Y-63489203D01*
X196560780Y-63496800D01*
X196457620Y-63496800D01*
X196380493Y-63489203D01*
X196303364Y-63481607D01*
X196164384Y-63439448D01*
X196105437Y-63421567D01*
X195923028Y-63324067D01*
X195763146Y-63192854D01*
X195631933Y-63032972D01*
X195534433Y-62850563D01*
X195480477Y-62672691D01*
X195474393Y-62652636D01*
X195454120Y-62446800D01*
X195474393Y-62240964D01*
X195534433Y-62043038D01*
X195534433Y-62043037D01*
X195631933Y-61860628D01*
X195763146Y-61700746D01*
X195923028Y-61569533D01*
X196105437Y-61472033D01*
X196199842Y-61443396D01*
X196303364Y-61411993D01*
X196380493Y-61404397D01*
X196457620Y-61396800D01*
X196560780Y-61396800D01*
X196637907Y-61404397D01*
X196637907Y-61404397D01*
G37*
G36*
X166188782Y-61300786D02*
X166233504Y-61314353D01*
X166274733Y-61336390D01*
X166310861Y-61366039D01*
X166340510Y-61402167D01*
X166362547Y-61443396D01*
X166376114Y-61488118D01*
X166381300Y-61540775D01*
X166381300Y-63200425D01*
X166376114Y-63253082D01*
X166362547Y-63297804D01*
X166340510Y-63339033D01*
X166310861Y-63375161D01*
X166274733Y-63404810D01*
X166233504Y-63426847D01*
X166188782Y-63440414D01*
X166136125Y-63445600D01*
X164801475Y-63445600D01*
X164748818Y-63440414D01*
X164704096Y-63426847D01*
X164662867Y-63404810D01*
X164626739Y-63375161D01*
X164597090Y-63339033D01*
X164575053Y-63297804D01*
X164561486Y-63253082D01*
X164556300Y-63200425D01*
X164556300Y-61540775D01*
X164561486Y-61488118D01*
X164575053Y-61443396D01*
X164597090Y-61402167D01*
X164626739Y-61366039D01*
X164662867Y-61336390D01*
X164704096Y-61314353D01*
X164748818Y-61300786D01*
X164801475Y-61295600D01*
X166136125Y-61295600D01*
X166188782Y-61300786D01*
X166188782Y-61300786D01*
G37*
G36*
X169163782Y-61300786D02*
X169208504Y-61314353D01*
X169249733Y-61336390D01*
X169285861Y-61366039D01*
X169315510Y-61402167D01*
X169337547Y-61443396D01*
X169351114Y-61488118D01*
X169356300Y-61540775D01*
X169356300Y-61569691D01*
X169358702Y-61594077D01*
X169365815Y-61617526D01*
X169377366Y-61639137D01*
X169392912Y-61658079D01*
X169411854Y-61673625D01*
X169433465Y-61685176D01*
X169456914Y-61692289D01*
X169481300Y-61694691D01*
X169505686Y-61692289D01*
X169529135Y-61685176D01*
X169550746Y-61673625D01*
X169561123Y-61664221D01*
X169561721Y-61664950D01*
X169607367Y-61627490D01*
X169648596Y-61605453D01*
X169693318Y-61591886D01*
X169745975Y-61586700D01*
X171405625Y-61586700D01*
X171458282Y-61591886D01*
X171503004Y-61605453D01*
X171544233Y-61627490D01*
X171580361Y-61657139D01*
X171610010Y-61693267D01*
X171632047Y-61734496D01*
X171645614Y-61779218D01*
X171650800Y-61831875D01*
X171650800Y-63166525D01*
X171645614Y-63219182D01*
X171632047Y-63263904D01*
X171610010Y-63305133D01*
X171580361Y-63341261D01*
X171544233Y-63370910D01*
X171503004Y-63392947D01*
X171458282Y-63406514D01*
X171405625Y-63411700D01*
X169745975Y-63411700D01*
X169693318Y-63406514D01*
X169648596Y-63392947D01*
X169607367Y-63370910D01*
X169571239Y-63341261D01*
X169534334Y-63296291D01*
X169517007Y-63278964D01*
X169496633Y-63265350D01*
X169473994Y-63255972D01*
X169449961Y-63251191D01*
X169425456Y-63251191D01*
X169401423Y-63255971D01*
X169378784Y-63265348D01*
X169358409Y-63278962D01*
X169341082Y-63296289D01*
X169327467Y-63316665D01*
X169315513Y-63339029D01*
X169285861Y-63375161D01*
X169249733Y-63404810D01*
X169208504Y-63426847D01*
X169163782Y-63440414D01*
X169111125Y-63445600D01*
X167776475Y-63445600D01*
X167723818Y-63440414D01*
X167679096Y-63426847D01*
X167637867Y-63404810D01*
X167601739Y-63375161D01*
X167572090Y-63339033D01*
X167550053Y-63297804D01*
X167536486Y-63253082D01*
X167531300Y-63200425D01*
X167531300Y-61540775D01*
X167536486Y-61488118D01*
X167550053Y-61443396D01*
X167572090Y-61402167D01*
X167601739Y-61366039D01*
X167637867Y-61336390D01*
X167679096Y-61314353D01*
X167723818Y-61300786D01*
X167776475Y-61295600D01*
X169111125Y-61295600D01*
X169163782Y-61300786D01*
X169163782Y-61300786D01*
G37*
G36*
X191726830Y-60851669D02*
X191726833Y-60851670D01*
X191726834Y-60851670D01*
X191915335Y-60908851D01*
X191915337Y-60908852D01*
X192089060Y-61001709D01*
X192241328Y-61126672D01*
X192366291Y-61278940D01*
X192432157Y-61402167D01*
X192459149Y-61452665D01*
X192516176Y-61640659D01*
X192516331Y-61641170D01*
X192535638Y-61837200D01*
X192516331Y-62033230D01*
X192459148Y-62221737D01*
X192366291Y-62395460D01*
X192241328Y-62547728D01*
X192089060Y-62672691D01*
X192089058Y-62672692D01*
X191915335Y-62765549D01*
X191726834Y-62822730D01*
X191726833Y-62822730D01*
X191726830Y-62822731D01*
X191579924Y-62837200D01*
X191481676Y-62837200D01*
X191334770Y-62822731D01*
X191334767Y-62822730D01*
X191334766Y-62822730D01*
X191146265Y-62765549D01*
X190972542Y-62672692D01*
X190972540Y-62672691D01*
X190820272Y-62547728D01*
X190695309Y-62395460D01*
X190602452Y-62221737D01*
X190545269Y-62033230D01*
X190525962Y-61837200D01*
X190545269Y-61641170D01*
X190545424Y-61640659D01*
X190602451Y-61452665D01*
X190629443Y-61402167D01*
X190695309Y-61278940D01*
X190820272Y-61126672D01*
X190972540Y-61001709D01*
X191146263Y-60908852D01*
X191146265Y-60908851D01*
X191334766Y-60851670D01*
X191334767Y-60851670D01*
X191334770Y-60851669D01*
X191481676Y-60837200D01*
X191579924Y-60837200D01*
X191726830Y-60851669D01*
X191726830Y-60851669D01*
G37*
G36*
X179026830Y-60851669D02*
X179026833Y-60851670D01*
X179026834Y-60851670D01*
X179215335Y-60908851D01*
X179215337Y-60908852D01*
X179389060Y-61001709D01*
X179541328Y-61126672D01*
X179666291Y-61278940D01*
X179732157Y-61402167D01*
X179759149Y-61452665D01*
X179816176Y-61640659D01*
X179816331Y-61641170D01*
X179835638Y-61837200D01*
X179816331Y-62033230D01*
X179759148Y-62221737D01*
X179666291Y-62395460D01*
X179541328Y-62547728D01*
X179389060Y-62672691D01*
X179389058Y-62672692D01*
X179215335Y-62765549D01*
X179026834Y-62822730D01*
X179026833Y-62822730D01*
X179026830Y-62822731D01*
X178879924Y-62837200D01*
X178781676Y-62837200D01*
X178634770Y-62822731D01*
X178634767Y-62822730D01*
X178634766Y-62822730D01*
X178446265Y-62765549D01*
X178272542Y-62672692D01*
X178272540Y-62672691D01*
X178120272Y-62547728D01*
X177995309Y-62395460D01*
X177902452Y-62221737D01*
X177845269Y-62033230D01*
X177825962Y-61837200D01*
X177845269Y-61641170D01*
X177845424Y-61640659D01*
X177902451Y-61452665D01*
X177929443Y-61402167D01*
X177995309Y-61278940D01*
X178120272Y-61126672D01*
X178272540Y-61001709D01*
X178446263Y-60908852D01*
X178446265Y-60908851D01*
X178634766Y-60851670D01*
X178634767Y-60851670D01*
X178634770Y-60851669D01*
X178781676Y-60837200D01*
X178879924Y-60837200D01*
X179026830Y-60851669D01*
X179026830Y-60851669D01*
G37*
G36*
X174539907Y-58864397D02*
X174617036Y-58871993D01*
X174748987Y-58912020D01*
X174814963Y-58932033D01*
X174997372Y-59029533D01*
X175157254Y-59160746D01*
X175288467Y-59320628D01*
X175385967Y-59503037D01*
X175385967Y-59503038D01*
X175446007Y-59700964D01*
X175466280Y-59906800D01*
X175446007Y-60112636D01*
X175422076Y-60191525D01*
X175385967Y-60310563D01*
X175288467Y-60492972D01*
X175157254Y-60652854D01*
X174997372Y-60784067D01*
X174814963Y-60881567D01*
X174748987Y-60901580D01*
X174617036Y-60941607D01*
X174539907Y-60949204D01*
X174462780Y-60956800D01*
X174359620Y-60956800D01*
X174282493Y-60949204D01*
X174205364Y-60941607D01*
X174073413Y-60901580D01*
X174007437Y-60881567D01*
X173825028Y-60784067D01*
X173665146Y-60652854D01*
X173533933Y-60492972D01*
X173436433Y-60310563D01*
X173400324Y-60191525D01*
X173376393Y-60112636D01*
X173356120Y-59906800D01*
X173376393Y-59700964D01*
X173436433Y-59503038D01*
X173436433Y-59503037D01*
X173533933Y-59320628D01*
X173665146Y-59160746D01*
X173825028Y-59029533D01*
X174007437Y-58932033D01*
X174073413Y-58912020D01*
X174205364Y-58871993D01*
X174282493Y-58864397D01*
X174359620Y-58856800D01*
X174462780Y-58856800D01*
X174539907Y-58864397D01*
X174539907Y-58864397D01*
G37*
G36*
X196637907Y-58864397D02*
X196715036Y-58871993D01*
X196846987Y-58912020D01*
X196912963Y-58932033D01*
X197095372Y-59029533D01*
X197255254Y-59160746D01*
X197386467Y-59320628D01*
X197483967Y-59503037D01*
X197483967Y-59503038D01*
X197544007Y-59700964D01*
X197564280Y-59906800D01*
X197544007Y-60112636D01*
X197520076Y-60191525D01*
X197483967Y-60310563D01*
X197386467Y-60492972D01*
X197255254Y-60652854D01*
X197095372Y-60784067D01*
X196912963Y-60881567D01*
X196846987Y-60901580D01*
X196715036Y-60941607D01*
X196637907Y-60949204D01*
X196560780Y-60956800D01*
X196457620Y-60956800D01*
X196380493Y-60949204D01*
X196303364Y-60941607D01*
X196171413Y-60901580D01*
X196105437Y-60881567D01*
X195923028Y-60784067D01*
X195763146Y-60652854D01*
X195631933Y-60492972D01*
X195534433Y-60310563D01*
X195498324Y-60191525D01*
X195474393Y-60112636D01*
X195454120Y-59906800D01*
X195474393Y-59700964D01*
X195534433Y-59503038D01*
X195534433Y-59503037D01*
X195631933Y-59320628D01*
X195763146Y-59160746D01*
X195923028Y-59029533D01*
X196105437Y-58932033D01*
X196171413Y-58912020D01*
X196303364Y-58871993D01*
X196380493Y-58864397D01*
X196457620Y-58856800D01*
X196560780Y-58856800D01*
X196637907Y-58864397D01*
X196637907Y-58864397D01*
G37*
G36*
X171458282Y-58616886D02*
X171503004Y-58630453D01*
X171544233Y-58652490D01*
X171580361Y-58682139D01*
X171610010Y-58718267D01*
X171632047Y-58759496D01*
X171645614Y-58804218D01*
X171650800Y-58856875D01*
X171650800Y-60191525D01*
X171645614Y-60244182D01*
X171632047Y-60288904D01*
X171610010Y-60330133D01*
X171580361Y-60366261D01*
X171544233Y-60395910D01*
X171503004Y-60417947D01*
X171458282Y-60431514D01*
X171405625Y-60436700D01*
X169745975Y-60436700D01*
X169693318Y-60431514D01*
X169648596Y-60417947D01*
X169607367Y-60395910D01*
X169571239Y-60366261D01*
X169541590Y-60330133D01*
X169519553Y-60288904D01*
X169505986Y-60244182D01*
X169500800Y-60191525D01*
X169500800Y-58856875D01*
X169505986Y-58804218D01*
X169519553Y-58759496D01*
X169541590Y-58718267D01*
X169571239Y-58682139D01*
X169607367Y-58652490D01*
X169648596Y-58630453D01*
X169693318Y-58616886D01*
X169745975Y-58611700D01*
X171405625Y-58611700D01*
X171458282Y-58616886D01*
X171458282Y-58616886D01*
G37*
G36*
X191726830Y-58311669D02*
X191726833Y-58311670D01*
X191726834Y-58311670D01*
X191915335Y-58368851D01*
X191915337Y-58368852D01*
X192089060Y-58461709D01*
X192241328Y-58586672D01*
X192366291Y-58738940D01*
X192429329Y-58856875D01*
X192459149Y-58912665D01*
X192465024Y-58932033D01*
X192516331Y-59101170D01*
X192535638Y-59297200D01*
X192516331Y-59493230D01*
X192459148Y-59681737D01*
X192366291Y-59855460D01*
X192241328Y-60007728D01*
X192089060Y-60132691D01*
X192089058Y-60132692D01*
X191915335Y-60225549D01*
X191726834Y-60282730D01*
X191726833Y-60282730D01*
X191726830Y-60282731D01*
X191579924Y-60297200D01*
X191481676Y-60297200D01*
X191334770Y-60282731D01*
X191334767Y-60282730D01*
X191334766Y-60282730D01*
X191146265Y-60225549D01*
X190972542Y-60132692D01*
X190972540Y-60132691D01*
X190820272Y-60007728D01*
X190695309Y-59855460D01*
X190602452Y-59681737D01*
X190545269Y-59493230D01*
X190525962Y-59297200D01*
X190545269Y-59101170D01*
X190596576Y-58932033D01*
X190602451Y-58912665D01*
X190632271Y-58856875D01*
X190695309Y-58738940D01*
X190820272Y-58586672D01*
X190972540Y-58461709D01*
X191146263Y-58368852D01*
X191146265Y-58368851D01*
X191334766Y-58311670D01*
X191334767Y-58311670D01*
X191334770Y-58311669D01*
X191481676Y-58297200D01*
X191579924Y-58297200D01*
X191726830Y-58311669D01*
X191726830Y-58311669D01*
G37*
G36*
X179026830Y-58311669D02*
X179026833Y-58311670D01*
X179026834Y-58311670D01*
X179215335Y-58368851D01*
X179215337Y-58368852D01*
X179389060Y-58461709D01*
X179541328Y-58586672D01*
X179666291Y-58738940D01*
X179729329Y-58856875D01*
X179759149Y-58912665D01*
X179765024Y-58932033D01*
X179816331Y-59101170D01*
X179835638Y-59297200D01*
X179816331Y-59493230D01*
X179759148Y-59681737D01*
X179666291Y-59855460D01*
X179541328Y-60007728D01*
X179389060Y-60132691D01*
X179389058Y-60132692D01*
X179215335Y-60225549D01*
X179026834Y-60282730D01*
X179026833Y-60282730D01*
X179026830Y-60282731D01*
X178879924Y-60297200D01*
X178781676Y-60297200D01*
X178634770Y-60282731D01*
X178634767Y-60282730D01*
X178634766Y-60282730D01*
X178446265Y-60225549D01*
X178272542Y-60132692D01*
X178272540Y-60132691D01*
X178120272Y-60007728D01*
X177995309Y-59855460D01*
X177902452Y-59681737D01*
X177845269Y-59493230D01*
X177825962Y-59297200D01*
X177845269Y-59101170D01*
X177896576Y-58932033D01*
X177902451Y-58912665D01*
X177932271Y-58856875D01*
X177995309Y-58738940D01*
X178120272Y-58586672D01*
X178272540Y-58461709D01*
X178446263Y-58368852D01*
X178446265Y-58368851D01*
X178634766Y-58311670D01*
X178634767Y-58311670D01*
X178634770Y-58311669D01*
X178781676Y-58297200D01*
X178879924Y-58297200D01*
X179026830Y-58311669D01*
X179026830Y-58311669D01*
G37*
G36*
X196637907Y-56324396D02*
X196715036Y-56331993D01*
X196846987Y-56372020D01*
X196912963Y-56392033D01*
X197095372Y-56489533D01*
X197255254Y-56620746D01*
X197386467Y-56780628D01*
X197483967Y-56963037D01*
X197483967Y-56963038D01*
X197544007Y-57160964D01*
X197564280Y-57366800D01*
X197544007Y-57572636D01*
X197537923Y-57592691D01*
X197483967Y-57770563D01*
X197386467Y-57952972D01*
X197255254Y-58112854D01*
X197095372Y-58244067D01*
X196912963Y-58341567D01*
X196846987Y-58361580D01*
X196715036Y-58401607D01*
X196637907Y-58409203D01*
X196560780Y-58416800D01*
X196457620Y-58416800D01*
X196380493Y-58409203D01*
X196303364Y-58401607D01*
X196171413Y-58361580D01*
X196105437Y-58341567D01*
X195923028Y-58244067D01*
X195763146Y-58112854D01*
X195631933Y-57952972D01*
X195534433Y-57770563D01*
X195480477Y-57592691D01*
X195474393Y-57572636D01*
X195454120Y-57366800D01*
X195474393Y-57160964D01*
X195534433Y-56963038D01*
X195534433Y-56963037D01*
X195631933Y-56780628D01*
X195763146Y-56620746D01*
X195923028Y-56489533D01*
X196105437Y-56392033D01*
X196171413Y-56372020D01*
X196303364Y-56331993D01*
X196380493Y-56324396D01*
X196457620Y-56316800D01*
X196560780Y-56316800D01*
X196637907Y-56324396D01*
X196637907Y-56324396D01*
G37*
G36*
X174539907Y-56324396D02*
X174617036Y-56331993D01*
X174748987Y-56372020D01*
X174814963Y-56392033D01*
X174997372Y-56489533D01*
X175157254Y-56620746D01*
X175288467Y-56780628D01*
X175385967Y-56963037D01*
X175385967Y-56963038D01*
X175446007Y-57160964D01*
X175466280Y-57366800D01*
X175446007Y-57572636D01*
X175439923Y-57592691D01*
X175385967Y-57770563D01*
X175288467Y-57952972D01*
X175157254Y-58112854D01*
X174997372Y-58244067D01*
X174814963Y-58341567D01*
X174748987Y-58361580D01*
X174617036Y-58401607D01*
X174539907Y-58409203D01*
X174462780Y-58416800D01*
X174359620Y-58416800D01*
X174282493Y-58409203D01*
X174205364Y-58401607D01*
X174073413Y-58361580D01*
X174007437Y-58341567D01*
X173825028Y-58244067D01*
X173665146Y-58112854D01*
X173533933Y-57952972D01*
X173436433Y-57770563D01*
X173382477Y-57592691D01*
X173376393Y-57572636D01*
X173356120Y-57366800D01*
X173376393Y-57160964D01*
X173436433Y-56963038D01*
X173436433Y-56963037D01*
X173533933Y-56780628D01*
X173665146Y-56620746D01*
X173825028Y-56489533D01*
X174007437Y-56392033D01*
X174073413Y-56372020D01*
X174205364Y-56331993D01*
X174282493Y-56324396D01*
X174359620Y-56316800D01*
X174462780Y-56316800D01*
X174539907Y-56324396D01*
X174539907Y-56324396D01*
G37*
G36*
X179026830Y-55771669D02*
X179026833Y-55771670D01*
X179026834Y-55771670D01*
X179215335Y-55828851D01*
X179215337Y-55828852D01*
X179389060Y-55921709D01*
X179541328Y-56046672D01*
X179666291Y-56198940D01*
X179759148Y-56372663D01*
X179816331Y-56561170D01*
X179835638Y-56757200D01*
X179816331Y-56953230D01*
X179759148Y-57141737D01*
X179666291Y-57315460D01*
X179541328Y-57467728D01*
X179389060Y-57592691D01*
X179389058Y-57592692D01*
X179215335Y-57685549D01*
X179026834Y-57742730D01*
X179026833Y-57742730D01*
X179026830Y-57742731D01*
X178879924Y-57757200D01*
X178781676Y-57757200D01*
X178634770Y-57742731D01*
X178634767Y-57742730D01*
X178634766Y-57742730D01*
X178446265Y-57685549D01*
X178272542Y-57592692D01*
X178272540Y-57592691D01*
X178120272Y-57467728D01*
X177995309Y-57315460D01*
X177902452Y-57141737D01*
X177845269Y-56953230D01*
X177825962Y-56757200D01*
X177845269Y-56561170D01*
X177902452Y-56372663D01*
X177995309Y-56198940D01*
X178120272Y-56046672D01*
X178272540Y-55921709D01*
X178446263Y-55828852D01*
X178446265Y-55828851D01*
X178634766Y-55771670D01*
X178634767Y-55771670D01*
X178634770Y-55771669D01*
X178781676Y-55757200D01*
X178879924Y-55757200D01*
X179026830Y-55771669D01*
X179026830Y-55771669D01*
G37*
G36*
X191726830Y-55771669D02*
X191726833Y-55771670D01*
X191726834Y-55771670D01*
X191915335Y-55828851D01*
X191915337Y-55828852D01*
X192089060Y-55921709D01*
X192241328Y-56046672D01*
X192366291Y-56198940D01*
X192459148Y-56372663D01*
X192516331Y-56561170D01*
X192535638Y-56757200D01*
X192516331Y-56953230D01*
X192459148Y-57141737D01*
X192366291Y-57315460D01*
X192241328Y-57467728D01*
X192089060Y-57592691D01*
X192089058Y-57592692D01*
X191915335Y-57685549D01*
X191726834Y-57742730D01*
X191726833Y-57742730D01*
X191726830Y-57742731D01*
X191579924Y-57757200D01*
X191481676Y-57757200D01*
X191334770Y-57742731D01*
X191334767Y-57742730D01*
X191334766Y-57742730D01*
X191146265Y-57685549D01*
X190972542Y-57592692D01*
X190972540Y-57592691D01*
X190820272Y-57467728D01*
X190695309Y-57315460D01*
X190602452Y-57141737D01*
X190545269Y-56953230D01*
X190525962Y-56757200D01*
X190545269Y-56561170D01*
X190602452Y-56372663D01*
X190695309Y-56198940D01*
X190820272Y-56046672D01*
X190972540Y-55921709D01*
X191146263Y-55828852D01*
X191146265Y-55828851D01*
X191334766Y-55771670D01*
X191334767Y-55771670D01*
X191334770Y-55771669D01*
X191481676Y-55757200D01*
X191579924Y-55757200D01*
X191726830Y-55771669D01*
X191726830Y-55771669D01*
G37*
G36*
X174539907Y-53784396D02*
X174617036Y-53791993D01*
X174748987Y-53832020D01*
X174814963Y-53852033D01*
X174997372Y-53949533D01*
X175157254Y-54080746D01*
X175288467Y-54240628D01*
X175385967Y-54423037D01*
X175385967Y-54423038D01*
X175446007Y-54620964D01*
X175466280Y-54826800D01*
X175446007Y-55032636D01*
X175405980Y-55164587D01*
X175385967Y-55230563D01*
X175288467Y-55412972D01*
X175157254Y-55572854D01*
X174997372Y-55704067D01*
X174814963Y-55801567D01*
X174748987Y-55821580D01*
X174617036Y-55861607D01*
X174539907Y-55869204D01*
X174462780Y-55876800D01*
X174359620Y-55876800D01*
X174282493Y-55869204D01*
X174205364Y-55861607D01*
X174073413Y-55821580D01*
X174007437Y-55801567D01*
X173825028Y-55704067D01*
X173665146Y-55572854D01*
X173533933Y-55412972D01*
X173436433Y-55230563D01*
X173416420Y-55164587D01*
X173376393Y-55032636D01*
X173356120Y-54826800D01*
X173376393Y-54620964D01*
X173436433Y-54423038D01*
X173436433Y-54423037D01*
X173533933Y-54240628D01*
X173665146Y-54080746D01*
X173825028Y-53949533D01*
X174007437Y-53852033D01*
X174073413Y-53832020D01*
X174205364Y-53791993D01*
X174282493Y-53784396D01*
X174359620Y-53776800D01*
X174462780Y-53776800D01*
X174539907Y-53784396D01*
X174539907Y-53784396D01*
G37*
G36*
X196637907Y-53784396D02*
X196715036Y-53791993D01*
X196846987Y-53832020D01*
X196912963Y-53852033D01*
X197095372Y-53949533D01*
X197255254Y-54080746D01*
X197386467Y-54240628D01*
X197483967Y-54423037D01*
X197483967Y-54423038D01*
X197544007Y-54620964D01*
X197564280Y-54826800D01*
X197544007Y-55032636D01*
X197503980Y-55164587D01*
X197483967Y-55230563D01*
X197386467Y-55412972D01*
X197255254Y-55572854D01*
X197095372Y-55704067D01*
X196912963Y-55801567D01*
X196846987Y-55821580D01*
X196715036Y-55861607D01*
X196637907Y-55869204D01*
X196560780Y-55876800D01*
X196457620Y-55876800D01*
X196380493Y-55869204D01*
X196303364Y-55861607D01*
X196171413Y-55821580D01*
X196105437Y-55801567D01*
X195923028Y-55704067D01*
X195763146Y-55572854D01*
X195631933Y-55412972D01*
X195534433Y-55230563D01*
X195514420Y-55164587D01*
X195474393Y-55032636D01*
X195454120Y-54826800D01*
X195474393Y-54620964D01*
X195534433Y-54423038D01*
X195534433Y-54423037D01*
X195631933Y-54240628D01*
X195763146Y-54080746D01*
X195923028Y-53949533D01*
X196105437Y-53852033D01*
X196171413Y-53832020D01*
X196303364Y-53791993D01*
X196380493Y-53784396D01*
X196457620Y-53776800D01*
X196560780Y-53776800D01*
X196637907Y-53784396D01*
X196637907Y-53784396D01*
G37*
G36*
X197559200Y-53336800D02*
X195459200Y-53336800D01*
X195459200Y-51236800D01*
X197559200Y-51236800D01*
X197559200Y-53336800D01*
X197559200Y-53336800D01*
G37*
G36*
X175461200Y-53336800D02*
X173361200Y-53336800D01*
X173361200Y-51236800D01*
X175461200Y-51236800D01*
X175461200Y-53336800D01*
X175461200Y-53336800D01*
G37*
G36*
X190294800Y-53184400D02*
X188194800Y-53184400D01*
X188194800Y-51084400D01*
X190294800Y-51084400D01*
X190294800Y-53184400D01*
X190294800Y-53184400D01*
G37*
G36*
X186833507Y-51091997D02*
X186910636Y-51099593D01*
X187042587Y-51139620D01*
X187108563Y-51159633D01*
X187290972Y-51257133D01*
X187450854Y-51388346D01*
X187582067Y-51548228D01*
X187679567Y-51730637D01*
X187679567Y-51730638D01*
X187739607Y-51928564D01*
X187759880Y-52134400D01*
X187739607Y-52340236D01*
X187699580Y-52472187D01*
X187679567Y-52538163D01*
X187582067Y-52720572D01*
X187450854Y-52880454D01*
X187290972Y-53011667D01*
X187108563Y-53109167D01*
X187042587Y-53129180D01*
X186910636Y-53169207D01*
X186833507Y-53176804D01*
X186756380Y-53184400D01*
X186653220Y-53184400D01*
X186576093Y-53176804D01*
X186498964Y-53169207D01*
X186367013Y-53129180D01*
X186301037Y-53109167D01*
X186118628Y-53011667D01*
X185958746Y-52880454D01*
X185827533Y-52720572D01*
X185730033Y-52538163D01*
X185710020Y-52472187D01*
X185669993Y-52340236D01*
X185649720Y-52134400D01*
X185669993Y-51928564D01*
X185730033Y-51730638D01*
X185730033Y-51730637D01*
X185827533Y-51548228D01*
X185958746Y-51388346D01*
X186118628Y-51257133D01*
X186301037Y-51159633D01*
X186367013Y-51139620D01*
X186498964Y-51099593D01*
X186576093Y-51091996D01*
X186653220Y-51084400D01*
X186756380Y-51084400D01*
X186833507Y-51091997D01*
X186833507Y-51091997D01*
G37*
G36*
X184293507Y-51091997D02*
X184370636Y-51099593D01*
X184502587Y-51139620D01*
X184568563Y-51159633D01*
X184750972Y-51257133D01*
X184910854Y-51388346D01*
X185042067Y-51548228D01*
X185139567Y-51730637D01*
X185139567Y-51730638D01*
X185199607Y-51928564D01*
X185219880Y-52134400D01*
X185199607Y-52340236D01*
X185159580Y-52472187D01*
X185139567Y-52538163D01*
X185042067Y-52720572D01*
X184910854Y-52880454D01*
X184750972Y-53011667D01*
X184568563Y-53109167D01*
X184502587Y-53129180D01*
X184370636Y-53169207D01*
X184293507Y-53176804D01*
X184216380Y-53184400D01*
X184113220Y-53184400D01*
X184036093Y-53176804D01*
X183958964Y-53169207D01*
X183827013Y-53129180D01*
X183761037Y-53109167D01*
X183578628Y-53011667D01*
X183418746Y-52880454D01*
X183287533Y-52720572D01*
X183190033Y-52538163D01*
X183170020Y-52472187D01*
X183129993Y-52340236D01*
X183109720Y-52134400D01*
X183129993Y-51928564D01*
X183190033Y-51730638D01*
X183190033Y-51730637D01*
X183287533Y-51548228D01*
X183418746Y-51388346D01*
X183578628Y-51257133D01*
X183761037Y-51159633D01*
X183827013Y-51139620D01*
X183958964Y-51099593D01*
X184036093Y-51091996D01*
X184113220Y-51084400D01*
X184216380Y-51084400D01*
X184293507Y-51091997D01*
X184293507Y-51091997D01*
G37*
G36*
X181753507Y-51091997D02*
X181830636Y-51099593D01*
X181962587Y-51139620D01*
X182028563Y-51159633D01*
X182210972Y-51257133D01*
X182370854Y-51388346D01*
X182502067Y-51548228D01*
X182599567Y-51730637D01*
X182599567Y-51730638D01*
X182659607Y-51928564D01*
X182679880Y-52134400D01*
X182659607Y-52340236D01*
X182619580Y-52472187D01*
X182599567Y-52538163D01*
X182502067Y-52720572D01*
X182370854Y-52880454D01*
X182210972Y-53011667D01*
X182028563Y-53109167D01*
X181962587Y-53129180D01*
X181830636Y-53169207D01*
X181753507Y-53176804D01*
X181676380Y-53184400D01*
X181573220Y-53184400D01*
X181496093Y-53176804D01*
X181418964Y-53169207D01*
X181287013Y-53129180D01*
X181221037Y-53109167D01*
X181038628Y-53011667D01*
X180878746Y-52880454D01*
X180747533Y-52720572D01*
X180650033Y-52538163D01*
X180630020Y-52472187D01*
X180589993Y-52340236D01*
X180569720Y-52134400D01*
X180589993Y-51928564D01*
X180650033Y-51730638D01*
X180650033Y-51730637D01*
X180747533Y-51548228D01*
X180878746Y-51388346D01*
X181038628Y-51257133D01*
X181221037Y-51159633D01*
X181287013Y-51139620D01*
X181418964Y-51099593D01*
X181496093Y-51091996D01*
X181573220Y-51084400D01*
X181676380Y-51084400D01*
X181753507Y-51091997D01*
X181753507Y-51091997D01*
G37*
M02*
