G04 #@! TF.GenerationSoftware,KiCad,Pcbnew,5.0.1-33cea8e~68~ubuntu18.04.1*
G04 #@! TF.CreationDate,2018-11-12T21:08:02+01:00*
G04 #@! TF.ProjectId,ustepper_nano,75737465707065725F6E616E6F2E6B69,rev?*
G04 #@! TF.SameCoordinates,Original*
G04 #@! TF.FileFunction,Copper,L1,Top,Signal*
G04 #@! TF.FilePolarity,Positive*
%FSLAX46Y46*%
G04 Gerber Fmt 4.6, Leading zero omitted, Abs format (unit mm)*
G04 Created by KiCad (PCBNEW 5.0.1-33cea8e~68~ubuntu18.04.1) date lun 12 nov 2018 21:08:02 CET*
%MOMM*%
%LPD*%
G01*
G04 APERTURE LIST*
G04 #@! TA.AperFunction,ComponentPad*
%ADD10O,1.700000X1.700000*%
G04 #@! TD*
G04 #@! TA.AperFunction,ComponentPad*
%ADD11R,1.700000X1.700000*%
G04 #@! TD*
G04 #@! TA.AperFunction,ComponentPad*
%ADD12R,1.600000X1.600000*%
G04 #@! TD*
G04 #@! TA.AperFunction,ComponentPad*
%ADD13O,1.600000X1.600000*%
G04 #@! TD*
G04 #@! TA.AperFunction,Conductor*
%ADD14C,0.100000*%
G04 #@! TD*
G04 #@! TA.AperFunction,SMDPad,CuDef*
%ADD15C,1.425000*%
G04 #@! TD*
G04 #@! TA.AperFunction,ViaPad*
%ADD16C,4.000000*%
G04 #@! TD*
G04 #@! TA.AperFunction,ViaPad*
%ADD17C,0.800000*%
G04 #@! TD*
G04 #@! TA.AperFunction,Conductor*
%ADD18C,1.000000*%
G04 #@! TD*
G04 #@! TA.AperFunction,Conductor*
%ADD19C,0.500000*%
G04 #@! TD*
G04 #@! TA.AperFunction,Conductor*
%ADD20C,0.250000*%
G04 #@! TD*
G04 APERTURE END LIST*
D10*
G04 #@! TO.P,J7,15*
G04 #@! TO.N,D13-MS3*
X153583200Y-87948400D03*
G04 #@! TO.P,J7,14*
G04 #@! TO.N,17-3V3*
X153583200Y-85408400D03*
G04 #@! TO.P,J7,13*
G04 #@! TO.N,18-AREF*
X153583200Y-82868400D03*
G04 #@! TO.P,J7,12*
G04 #@! TO.N,A0-*
X153583200Y-80328400D03*
G04 #@! TO.P,J7,11*
G04 #@! TO.N,A1-*
X153583200Y-77788400D03*
G04 #@! TO.P,J7,10*
G04 #@! TO.N,A2-*
X153583200Y-75248400D03*
G04 #@! TO.P,J7,9*
G04 #@! TO.N,A3-*
X153583200Y-72708400D03*
G04 #@! TO.P,J7,8*
G04 #@! TO.N,A4-SDA*
X153583200Y-70168400D03*
G04 #@! TO.P,J7,7*
G04 #@! TO.N,A5-SCL*
X153583200Y-67628400D03*
G04 #@! TO.P,J7,6*
G04 #@! TO.N,A6-TEMP*
X153583200Y-65088400D03*
G04 #@! TO.P,J7,5*
G04 #@! TO.N,A7-ASA*
X153583200Y-62548400D03*
G04 #@! TO.P,J7,4*
G04 #@! TO.N,27-5V*
X153583200Y-60008400D03*
G04 #@! TO.P,J7,3*
G04 #@! TO.N,28-RST*
X153583200Y-57468400D03*
G04 #@! TO.P,J7,2*
G04 #@! TO.N,29-GND*
X153583200Y-54928400D03*
D11*
G04 #@! TO.P,J7,1*
G04 #@! TO.N,30-VIN*
X153583200Y-52388400D03*
G04 #@! TD*
D12*
G04 #@! TO.P,A2,1*
G04 #@! TO.N,D1-TXD*
X134716000Y-52400000D03*
D13*
G04 #@! TO.P,A2,17*
G04 #@! TO.N,17-3V3*
X149956000Y-85420000D03*
G04 #@! TO.P,A2,2*
G04 #@! TO.N,D0-RXD*
X134716000Y-54940000D03*
G04 #@! TO.P,A2,18*
G04 #@! TO.N,18-AREF*
X149956000Y-82880000D03*
G04 #@! TO.P,A2,3*
G04 #@! TO.N,3-RST*
X134716000Y-57480000D03*
G04 #@! TO.P,A2,19*
G04 #@! TO.N,A0-*
X149956000Y-80340000D03*
G04 #@! TO.P,A2,4*
G04 #@! TO.N,29-GND*
X134716000Y-60020000D03*
G04 #@! TO.P,A2,20*
G04 #@! TO.N,A1-*
X149956000Y-77800000D03*
G04 #@! TO.P,A2,5*
G04 #@! TO.N,D2-*
X134716000Y-62560000D03*
G04 #@! TO.P,A2,21*
G04 #@! TO.N,A2-*
X149956000Y-75260000D03*
G04 #@! TO.P,A2,6*
G04 #@! TO.N,D3-*
X134716000Y-65100000D03*
G04 #@! TO.P,A2,22*
G04 #@! TO.N,A3-*
X149956000Y-72720000D03*
G04 #@! TO.P,A2,7*
G04 #@! TO.N,D4-STEP*
X134716000Y-67640000D03*
G04 #@! TO.P,A2,23*
G04 #@! TO.N,A4-SDA*
X149956000Y-70180000D03*
G04 #@! TO.P,A2,8*
G04 #@! TO.N,D5-*
X134716000Y-70180000D03*
G04 #@! TO.P,A2,24*
G04 #@! TO.N,A5-SCL*
X149956000Y-67640000D03*
G04 #@! TO.P,A2,9*
G04 #@! TO.N,D6-*
X134716000Y-72720000D03*
G04 #@! TO.P,A2,25*
G04 #@! TO.N,A6-TEMP*
X149956000Y-65100000D03*
G04 #@! TO.P,A2,10*
G04 #@! TO.N,D7-DIR*
X134716000Y-75260000D03*
G04 #@! TO.P,A2,26*
G04 #@! TO.N,A7-ASA*
X149956000Y-62560000D03*
G04 #@! TO.P,A2,11*
G04 #@! TO.N,D8-ENA*
X134716000Y-77800000D03*
G04 #@! TO.P,A2,27*
G04 #@! TO.N,27-5V*
X149956000Y-60020000D03*
G04 #@! TO.P,A2,12*
G04 #@! TO.N,D9-*
X134716000Y-80340000D03*
G04 #@! TO.P,A2,28*
G04 #@! TO.N,28-RST*
X149956000Y-57480000D03*
G04 #@! TO.P,A2,13*
G04 #@! TO.N,D10-ASDIR*
X134716000Y-82880000D03*
G04 #@! TO.P,A2,29*
G04 #@! TO.N,29-GND*
X149956000Y-54940000D03*
G04 #@! TO.P,A2,14*
G04 #@! TO.N,D11-MS1*
X134716000Y-85420000D03*
G04 #@! TO.P,A2,30*
G04 #@! TO.N,30-VIN*
X149956000Y-52400000D03*
G04 #@! TO.P,A2,15*
G04 #@! TO.N,D12-MS2*
X134716000Y-87960000D03*
G04 #@! TO.P,A2,16*
G04 #@! TO.N,D13-MS3*
X149956000Y-87960000D03*
G04 #@! TD*
D11*
G04 #@! TO.P,J6,1*
G04 #@! TO.N,D1-TXD*
X131409000Y-52388400D03*
D10*
G04 #@! TO.P,J6,2*
G04 #@! TO.N,D0-RXD*
X131409000Y-54928400D03*
G04 #@! TO.P,J6,3*
G04 #@! TO.N,3-RST*
X131409000Y-57468400D03*
G04 #@! TO.P,J6,4*
G04 #@! TO.N,29-GND*
X131409000Y-60008400D03*
G04 #@! TO.P,J6,5*
G04 #@! TO.N,D2-*
X131409000Y-62548400D03*
G04 #@! TO.P,J6,6*
G04 #@! TO.N,D3-*
X131409000Y-65088400D03*
G04 #@! TO.P,J6,7*
G04 #@! TO.N,D4-STEP*
X131409000Y-67628400D03*
G04 #@! TO.P,J6,8*
G04 #@! TO.N,D5-*
X131409000Y-70168400D03*
G04 #@! TO.P,J6,9*
G04 #@! TO.N,D6-*
X131409000Y-72708400D03*
G04 #@! TO.P,J6,10*
G04 #@! TO.N,D7-DIR*
X131409000Y-75248400D03*
G04 #@! TO.P,J6,11*
G04 #@! TO.N,D8-ENA*
X131409000Y-77788400D03*
G04 #@! TO.P,J6,12*
G04 #@! TO.N,D9-*
X131409000Y-80328400D03*
G04 #@! TO.P,J6,13*
G04 #@! TO.N,D10-ASDIR*
X131409000Y-82868400D03*
G04 #@! TO.P,J6,14*
G04 #@! TO.N,D11-MS1*
X131409000Y-85408400D03*
G04 #@! TO.P,J6,15*
G04 #@! TO.N,D12-MS2*
X131409000Y-87948400D03*
G04 #@! TD*
D14*
G04 #@! TO.N,A6-TEMP*
G04 #@! TO.C,C1*
G36*
X140123004Y-54777504D02*
X140147273Y-54781104D01*
X140171071Y-54787065D01*
X140194171Y-54795330D01*
X140216349Y-54805820D01*
X140237393Y-54818433D01*
X140257098Y-54833047D01*
X140275277Y-54849523D01*
X140291753Y-54867702D01*
X140306367Y-54887407D01*
X140318980Y-54908451D01*
X140329470Y-54930629D01*
X140337735Y-54953729D01*
X140343696Y-54977527D01*
X140347296Y-55001796D01*
X140348500Y-55026300D01*
X140348500Y-55951300D01*
X140347296Y-55975804D01*
X140343696Y-56000073D01*
X140337735Y-56023871D01*
X140329470Y-56046971D01*
X140318980Y-56069149D01*
X140306367Y-56090193D01*
X140291753Y-56109898D01*
X140275277Y-56128077D01*
X140257098Y-56144553D01*
X140237393Y-56159167D01*
X140216349Y-56171780D01*
X140194171Y-56182270D01*
X140171071Y-56190535D01*
X140147273Y-56196496D01*
X140123004Y-56200096D01*
X140098500Y-56201300D01*
X138848500Y-56201300D01*
X138823996Y-56200096D01*
X138799727Y-56196496D01*
X138775929Y-56190535D01*
X138752829Y-56182270D01*
X138730651Y-56171780D01*
X138709607Y-56159167D01*
X138689902Y-56144553D01*
X138671723Y-56128077D01*
X138655247Y-56109898D01*
X138640633Y-56090193D01*
X138628020Y-56069149D01*
X138617530Y-56046971D01*
X138609265Y-56023871D01*
X138603304Y-56000073D01*
X138599704Y-55975804D01*
X138598500Y-55951300D01*
X138598500Y-55026300D01*
X138599704Y-55001796D01*
X138603304Y-54977527D01*
X138609265Y-54953729D01*
X138617530Y-54930629D01*
X138628020Y-54908451D01*
X138640633Y-54887407D01*
X138655247Y-54867702D01*
X138671723Y-54849523D01*
X138689902Y-54833047D01*
X138709607Y-54818433D01*
X138730651Y-54805820D01*
X138752829Y-54795330D01*
X138775929Y-54787065D01*
X138799727Y-54781104D01*
X138823996Y-54777504D01*
X138848500Y-54776300D01*
X140098500Y-54776300D01*
X140123004Y-54777504D01*
X140123004Y-54777504D01*
G37*
D15*
G04 #@! TD*
G04 #@! TO.P,C1,1*
G04 #@! TO.N,A6-TEMP*
X139473500Y-55488800D03*
D14*
G04 #@! TO.N,29-GND*
G04 #@! TO.C,C1*
G36*
X140123004Y-51802504D02*
X140147273Y-51806104D01*
X140171071Y-51812065D01*
X140194171Y-51820330D01*
X140216349Y-51830820D01*
X140237393Y-51843433D01*
X140257098Y-51858047D01*
X140275277Y-51874523D01*
X140291753Y-51892702D01*
X140306367Y-51912407D01*
X140318980Y-51933451D01*
X140329470Y-51955629D01*
X140337735Y-51978729D01*
X140343696Y-52002527D01*
X140347296Y-52026796D01*
X140348500Y-52051300D01*
X140348500Y-52976300D01*
X140347296Y-53000804D01*
X140343696Y-53025073D01*
X140337735Y-53048871D01*
X140329470Y-53071971D01*
X140318980Y-53094149D01*
X140306367Y-53115193D01*
X140291753Y-53134898D01*
X140275277Y-53153077D01*
X140257098Y-53169553D01*
X140237393Y-53184167D01*
X140216349Y-53196780D01*
X140194171Y-53207270D01*
X140171071Y-53215535D01*
X140147273Y-53221496D01*
X140123004Y-53225096D01*
X140098500Y-53226300D01*
X138848500Y-53226300D01*
X138823996Y-53225096D01*
X138799727Y-53221496D01*
X138775929Y-53215535D01*
X138752829Y-53207270D01*
X138730651Y-53196780D01*
X138709607Y-53184167D01*
X138689902Y-53169553D01*
X138671723Y-53153077D01*
X138655247Y-53134898D01*
X138640633Y-53115193D01*
X138628020Y-53094149D01*
X138617530Y-53071971D01*
X138609265Y-53048871D01*
X138603304Y-53025073D01*
X138599704Y-53000804D01*
X138598500Y-52976300D01*
X138598500Y-52051300D01*
X138599704Y-52026796D01*
X138603304Y-52002527D01*
X138609265Y-51978729D01*
X138617530Y-51955629D01*
X138628020Y-51933451D01*
X138640633Y-51912407D01*
X138655247Y-51892702D01*
X138671723Y-51874523D01*
X138689902Y-51858047D01*
X138709607Y-51843433D01*
X138730651Y-51830820D01*
X138752829Y-51820330D01*
X138775929Y-51812065D01*
X138799727Y-51806104D01*
X138823996Y-51802504D01*
X138848500Y-51801300D01*
X140098500Y-51801300D01*
X140123004Y-51802504D01*
X140123004Y-51802504D01*
G37*
D15*
G04 #@! TD*
G04 #@! TO.P,C1,2*
G04 #@! TO.N,29-GND*
X139473500Y-52513800D03*
D14*
G04 #@! TO.N,27-5V*
G04 #@! TO.C,C2*
G36*
X144517204Y-74395804D02*
X144541473Y-74399404D01*
X144565271Y-74405365D01*
X144588371Y-74413630D01*
X144610549Y-74424120D01*
X144631593Y-74436733D01*
X144651298Y-74451347D01*
X144669477Y-74467823D01*
X144685953Y-74486002D01*
X144700567Y-74505707D01*
X144713180Y-74526751D01*
X144723670Y-74548929D01*
X144731935Y-74572029D01*
X144737896Y-74595827D01*
X144741496Y-74620096D01*
X144742700Y-74644600D01*
X144742700Y-75569600D01*
X144741496Y-75594104D01*
X144737896Y-75618373D01*
X144731935Y-75642171D01*
X144723670Y-75665271D01*
X144713180Y-75687449D01*
X144700567Y-75708493D01*
X144685953Y-75728198D01*
X144669477Y-75746377D01*
X144651298Y-75762853D01*
X144631593Y-75777467D01*
X144610549Y-75790080D01*
X144588371Y-75800570D01*
X144565271Y-75808835D01*
X144541473Y-75814796D01*
X144517204Y-75818396D01*
X144492700Y-75819600D01*
X143242700Y-75819600D01*
X143218196Y-75818396D01*
X143193927Y-75814796D01*
X143170129Y-75808835D01*
X143147029Y-75800570D01*
X143124851Y-75790080D01*
X143103807Y-75777467D01*
X143084102Y-75762853D01*
X143065923Y-75746377D01*
X143049447Y-75728198D01*
X143034833Y-75708493D01*
X143022220Y-75687449D01*
X143011730Y-75665271D01*
X143003465Y-75642171D01*
X142997504Y-75618373D01*
X142993904Y-75594104D01*
X142992700Y-75569600D01*
X142992700Y-74644600D01*
X142993904Y-74620096D01*
X142997504Y-74595827D01*
X143003465Y-74572029D01*
X143011730Y-74548929D01*
X143022220Y-74526751D01*
X143034833Y-74505707D01*
X143049447Y-74486002D01*
X143065923Y-74467823D01*
X143084102Y-74451347D01*
X143103807Y-74436733D01*
X143124851Y-74424120D01*
X143147029Y-74413630D01*
X143170129Y-74405365D01*
X143193927Y-74399404D01*
X143218196Y-74395804D01*
X143242700Y-74394600D01*
X144492700Y-74394600D01*
X144517204Y-74395804D01*
X144517204Y-74395804D01*
G37*
D15*
G04 #@! TD*
G04 #@! TO.P,C2,1*
G04 #@! TO.N,27-5V*
X143867700Y-75107100D03*
D14*
G04 #@! TO.N,29-GND*
G04 #@! TO.C,C2*
G36*
X144517204Y-77370804D02*
X144541473Y-77374404D01*
X144565271Y-77380365D01*
X144588371Y-77388630D01*
X144610549Y-77399120D01*
X144631593Y-77411733D01*
X144651298Y-77426347D01*
X144669477Y-77442823D01*
X144685953Y-77461002D01*
X144700567Y-77480707D01*
X144713180Y-77501751D01*
X144723670Y-77523929D01*
X144731935Y-77547029D01*
X144737896Y-77570827D01*
X144741496Y-77595096D01*
X144742700Y-77619600D01*
X144742700Y-78544600D01*
X144741496Y-78569104D01*
X144737896Y-78593373D01*
X144731935Y-78617171D01*
X144723670Y-78640271D01*
X144713180Y-78662449D01*
X144700567Y-78683493D01*
X144685953Y-78703198D01*
X144669477Y-78721377D01*
X144651298Y-78737853D01*
X144631593Y-78752467D01*
X144610549Y-78765080D01*
X144588371Y-78775570D01*
X144565271Y-78783835D01*
X144541473Y-78789796D01*
X144517204Y-78793396D01*
X144492700Y-78794600D01*
X143242700Y-78794600D01*
X143218196Y-78793396D01*
X143193927Y-78789796D01*
X143170129Y-78783835D01*
X143147029Y-78775570D01*
X143124851Y-78765080D01*
X143103807Y-78752467D01*
X143084102Y-78737853D01*
X143065923Y-78721377D01*
X143049447Y-78703198D01*
X143034833Y-78683493D01*
X143022220Y-78662449D01*
X143011730Y-78640271D01*
X143003465Y-78617171D01*
X142997504Y-78593373D01*
X142993904Y-78569104D01*
X142992700Y-78544600D01*
X142992700Y-77619600D01*
X142993904Y-77595096D01*
X142997504Y-77570827D01*
X143003465Y-77547029D01*
X143011730Y-77523929D01*
X143022220Y-77501751D01*
X143034833Y-77480707D01*
X143049447Y-77461002D01*
X143065923Y-77442823D01*
X143084102Y-77426347D01*
X143103807Y-77411733D01*
X143124851Y-77399120D01*
X143147029Y-77388630D01*
X143170129Y-77380365D01*
X143193927Y-77374404D01*
X143218196Y-77370804D01*
X143242700Y-77369600D01*
X144492700Y-77369600D01*
X144517204Y-77370804D01*
X144517204Y-77370804D01*
G37*
D15*
G04 #@! TD*
G04 #@! TO.P,C2,2*
G04 #@! TO.N,29-GND*
X143867700Y-78082100D03*
D14*
G04 #@! TO.N,29-GND*
G04 #@! TO.C,C3*
G36*
X140859604Y-77370804D02*
X140883873Y-77374404D01*
X140907671Y-77380365D01*
X140930771Y-77388630D01*
X140952949Y-77399120D01*
X140973993Y-77411733D01*
X140993698Y-77426347D01*
X141011877Y-77442823D01*
X141028353Y-77461002D01*
X141042967Y-77480707D01*
X141055580Y-77501751D01*
X141066070Y-77523929D01*
X141074335Y-77547029D01*
X141080296Y-77570827D01*
X141083896Y-77595096D01*
X141085100Y-77619600D01*
X141085100Y-78544600D01*
X141083896Y-78569104D01*
X141080296Y-78593373D01*
X141074335Y-78617171D01*
X141066070Y-78640271D01*
X141055580Y-78662449D01*
X141042967Y-78683493D01*
X141028353Y-78703198D01*
X141011877Y-78721377D01*
X140993698Y-78737853D01*
X140973993Y-78752467D01*
X140952949Y-78765080D01*
X140930771Y-78775570D01*
X140907671Y-78783835D01*
X140883873Y-78789796D01*
X140859604Y-78793396D01*
X140835100Y-78794600D01*
X139585100Y-78794600D01*
X139560596Y-78793396D01*
X139536327Y-78789796D01*
X139512529Y-78783835D01*
X139489429Y-78775570D01*
X139467251Y-78765080D01*
X139446207Y-78752467D01*
X139426502Y-78737853D01*
X139408323Y-78721377D01*
X139391847Y-78703198D01*
X139377233Y-78683493D01*
X139364620Y-78662449D01*
X139354130Y-78640271D01*
X139345865Y-78617171D01*
X139339904Y-78593373D01*
X139336304Y-78569104D01*
X139335100Y-78544600D01*
X139335100Y-77619600D01*
X139336304Y-77595096D01*
X139339904Y-77570827D01*
X139345865Y-77547029D01*
X139354130Y-77523929D01*
X139364620Y-77501751D01*
X139377233Y-77480707D01*
X139391847Y-77461002D01*
X139408323Y-77442823D01*
X139426502Y-77426347D01*
X139446207Y-77411733D01*
X139467251Y-77399120D01*
X139489429Y-77388630D01*
X139512529Y-77380365D01*
X139536327Y-77374404D01*
X139560596Y-77370804D01*
X139585100Y-77369600D01*
X140835100Y-77369600D01*
X140859604Y-77370804D01*
X140859604Y-77370804D01*
G37*
D15*
G04 #@! TD*
G04 #@! TO.P,C3,2*
G04 #@! TO.N,29-GND*
X140210100Y-78082100D03*
D14*
G04 #@! TO.N,Net-(C3-Pad1)*
G04 #@! TO.C,C3*
G36*
X140859604Y-74395804D02*
X140883873Y-74399404D01*
X140907671Y-74405365D01*
X140930771Y-74413630D01*
X140952949Y-74424120D01*
X140973993Y-74436733D01*
X140993698Y-74451347D01*
X141011877Y-74467823D01*
X141028353Y-74486002D01*
X141042967Y-74505707D01*
X141055580Y-74526751D01*
X141066070Y-74548929D01*
X141074335Y-74572029D01*
X141080296Y-74595827D01*
X141083896Y-74620096D01*
X141085100Y-74644600D01*
X141085100Y-75569600D01*
X141083896Y-75594104D01*
X141080296Y-75618373D01*
X141074335Y-75642171D01*
X141066070Y-75665271D01*
X141055580Y-75687449D01*
X141042967Y-75708493D01*
X141028353Y-75728198D01*
X141011877Y-75746377D01*
X140993698Y-75762853D01*
X140973993Y-75777467D01*
X140952949Y-75790080D01*
X140930771Y-75800570D01*
X140907671Y-75808835D01*
X140883873Y-75814796D01*
X140859604Y-75818396D01*
X140835100Y-75819600D01*
X139585100Y-75819600D01*
X139560596Y-75818396D01*
X139536327Y-75814796D01*
X139512529Y-75808835D01*
X139489429Y-75800570D01*
X139467251Y-75790080D01*
X139446207Y-75777467D01*
X139426502Y-75762853D01*
X139408323Y-75746377D01*
X139391847Y-75728198D01*
X139377233Y-75708493D01*
X139364620Y-75687449D01*
X139354130Y-75665271D01*
X139345865Y-75642171D01*
X139339904Y-75618373D01*
X139336304Y-75594104D01*
X139335100Y-75569600D01*
X139335100Y-74644600D01*
X139336304Y-74620096D01*
X139339904Y-74595827D01*
X139345865Y-74572029D01*
X139354130Y-74548929D01*
X139364620Y-74526751D01*
X139377233Y-74505707D01*
X139391847Y-74486002D01*
X139408323Y-74467823D01*
X139426502Y-74451347D01*
X139446207Y-74436733D01*
X139467251Y-74424120D01*
X139489429Y-74413630D01*
X139512529Y-74405365D01*
X139536327Y-74399404D01*
X139560596Y-74395804D01*
X139585100Y-74394600D01*
X140835100Y-74394600D01*
X140859604Y-74395804D01*
X140859604Y-74395804D01*
G37*
D15*
G04 #@! TD*
G04 #@! TO.P,C3,1*
G04 #@! TO.N,Net-(C3-Pad1)*
X140210100Y-75107100D03*
D14*
G04 #@! TO.N,29-GND*
G04 #@! TO.C,R1*
G36*
X145914204Y-51802504D02*
X145938473Y-51806104D01*
X145962271Y-51812065D01*
X145985371Y-51820330D01*
X146007549Y-51830820D01*
X146028593Y-51843433D01*
X146048298Y-51858047D01*
X146066477Y-51874523D01*
X146082953Y-51892702D01*
X146097567Y-51912407D01*
X146110180Y-51933451D01*
X146120670Y-51955629D01*
X146128935Y-51978729D01*
X146134896Y-52002527D01*
X146138496Y-52026796D01*
X146139700Y-52051300D01*
X146139700Y-52976300D01*
X146138496Y-53000804D01*
X146134896Y-53025073D01*
X146128935Y-53048871D01*
X146120670Y-53071971D01*
X146110180Y-53094149D01*
X146097567Y-53115193D01*
X146082953Y-53134898D01*
X146066477Y-53153077D01*
X146048298Y-53169553D01*
X146028593Y-53184167D01*
X146007549Y-53196780D01*
X145985371Y-53207270D01*
X145962271Y-53215535D01*
X145938473Y-53221496D01*
X145914204Y-53225096D01*
X145889700Y-53226300D01*
X144639700Y-53226300D01*
X144615196Y-53225096D01*
X144590927Y-53221496D01*
X144567129Y-53215535D01*
X144544029Y-53207270D01*
X144521851Y-53196780D01*
X144500807Y-53184167D01*
X144481102Y-53169553D01*
X144462923Y-53153077D01*
X144446447Y-53134898D01*
X144431833Y-53115193D01*
X144419220Y-53094149D01*
X144408730Y-53071971D01*
X144400465Y-53048871D01*
X144394504Y-53025073D01*
X144390904Y-53000804D01*
X144389700Y-52976300D01*
X144389700Y-52051300D01*
X144390904Y-52026796D01*
X144394504Y-52002527D01*
X144400465Y-51978729D01*
X144408730Y-51955629D01*
X144419220Y-51933451D01*
X144431833Y-51912407D01*
X144446447Y-51892702D01*
X144462923Y-51874523D01*
X144481102Y-51858047D01*
X144500807Y-51843433D01*
X144521851Y-51830820D01*
X144544029Y-51820330D01*
X144567129Y-51812065D01*
X144590927Y-51806104D01*
X144615196Y-51802504D01*
X144639700Y-51801300D01*
X145889700Y-51801300D01*
X145914204Y-51802504D01*
X145914204Y-51802504D01*
G37*
D15*
G04 #@! TD*
G04 #@! TO.P,R1,2*
G04 #@! TO.N,29-GND*
X145264700Y-52513800D03*
D14*
G04 #@! TO.N,A6-TEMP*
G04 #@! TO.C,R1*
G36*
X145914204Y-54777504D02*
X145938473Y-54781104D01*
X145962271Y-54787065D01*
X145985371Y-54795330D01*
X146007549Y-54805820D01*
X146028593Y-54818433D01*
X146048298Y-54833047D01*
X146066477Y-54849523D01*
X146082953Y-54867702D01*
X146097567Y-54887407D01*
X146110180Y-54908451D01*
X146120670Y-54930629D01*
X146128935Y-54953729D01*
X146134896Y-54977527D01*
X146138496Y-55001796D01*
X146139700Y-55026300D01*
X146139700Y-55951300D01*
X146138496Y-55975804D01*
X146134896Y-56000073D01*
X146128935Y-56023871D01*
X146120670Y-56046971D01*
X146110180Y-56069149D01*
X146097567Y-56090193D01*
X146082953Y-56109898D01*
X146066477Y-56128077D01*
X146048298Y-56144553D01*
X146028593Y-56159167D01*
X146007549Y-56171780D01*
X145985371Y-56182270D01*
X145962271Y-56190535D01*
X145938473Y-56196496D01*
X145914204Y-56200096D01*
X145889700Y-56201300D01*
X144639700Y-56201300D01*
X144615196Y-56200096D01*
X144590927Y-56196496D01*
X144567129Y-56190535D01*
X144544029Y-56182270D01*
X144521851Y-56171780D01*
X144500807Y-56159167D01*
X144481102Y-56144553D01*
X144462923Y-56128077D01*
X144446447Y-56109898D01*
X144431833Y-56090193D01*
X144419220Y-56069149D01*
X144408730Y-56046971D01*
X144400465Y-56023871D01*
X144394504Y-56000073D01*
X144390904Y-55975804D01*
X144389700Y-55951300D01*
X144389700Y-55026300D01*
X144390904Y-55001796D01*
X144394504Y-54977527D01*
X144400465Y-54953729D01*
X144408730Y-54930629D01*
X144419220Y-54908451D01*
X144431833Y-54887407D01*
X144446447Y-54867702D01*
X144462923Y-54849523D01*
X144481102Y-54833047D01*
X144500807Y-54818433D01*
X144521851Y-54805820D01*
X144544029Y-54795330D01*
X144567129Y-54787065D01*
X144590927Y-54781104D01*
X144615196Y-54777504D01*
X144639700Y-54776300D01*
X145889700Y-54776300D01*
X145914204Y-54777504D01*
X145914204Y-54777504D01*
G37*
D15*
G04 #@! TD*
G04 #@! TO.P,R1,1*
G04 #@! TO.N,A6-TEMP*
X145264700Y-55488800D03*
D14*
G04 #@! TO.N,Net-(R2-Pad1)*
G04 #@! TO.C,R2*
G36*
X144297569Y-61726731D02*
X144321838Y-61730331D01*
X144345636Y-61736292D01*
X144368736Y-61744557D01*
X144390914Y-61755047D01*
X144411958Y-61767660D01*
X144431663Y-61782274D01*
X144449842Y-61798750D01*
X144466318Y-61816929D01*
X144480932Y-61836634D01*
X144493545Y-61857678D01*
X144504035Y-61879856D01*
X144512300Y-61902956D01*
X144518261Y-61926754D01*
X144521861Y-61951023D01*
X144523065Y-61975527D01*
X144523065Y-63225527D01*
X144521861Y-63250031D01*
X144518261Y-63274300D01*
X144512300Y-63298098D01*
X144504035Y-63321198D01*
X144493545Y-63343376D01*
X144480932Y-63364420D01*
X144466318Y-63384125D01*
X144449842Y-63402304D01*
X144431663Y-63418780D01*
X144411958Y-63433394D01*
X144390914Y-63446007D01*
X144368736Y-63456497D01*
X144345636Y-63464762D01*
X144321838Y-63470723D01*
X144297569Y-63474323D01*
X144273065Y-63475527D01*
X143348065Y-63475527D01*
X143323561Y-63474323D01*
X143299292Y-63470723D01*
X143275494Y-63464762D01*
X143252394Y-63456497D01*
X143230216Y-63446007D01*
X143209172Y-63433394D01*
X143189467Y-63418780D01*
X143171288Y-63402304D01*
X143154812Y-63384125D01*
X143140198Y-63364420D01*
X143127585Y-63343376D01*
X143117095Y-63321198D01*
X143108830Y-63298098D01*
X143102869Y-63274300D01*
X143099269Y-63250031D01*
X143098065Y-63225527D01*
X143098065Y-61975527D01*
X143099269Y-61951023D01*
X143102869Y-61926754D01*
X143108830Y-61902956D01*
X143117095Y-61879856D01*
X143127585Y-61857678D01*
X143140198Y-61836634D01*
X143154812Y-61816929D01*
X143171288Y-61798750D01*
X143189467Y-61782274D01*
X143209172Y-61767660D01*
X143230216Y-61755047D01*
X143252394Y-61744557D01*
X143275494Y-61736292D01*
X143299292Y-61730331D01*
X143323561Y-61726731D01*
X143348065Y-61725527D01*
X144273065Y-61725527D01*
X144297569Y-61726731D01*
X144297569Y-61726731D01*
G37*
D15*
G04 #@! TD*
G04 #@! TO.P,R2,1*
G04 #@! TO.N,Net-(R2-Pad1)*
X143810565Y-62600527D03*
D14*
G04 #@! TO.N,29-GND*
G04 #@! TO.C,R2*
G36*
X141322569Y-61726731D02*
X141346838Y-61730331D01*
X141370636Y-61736292D01*
X141393736Y-61744557D01*
X141415914Y-61755047D01*
X141436958Y-61767660D01*
X141456663Y-61782274D01*
X141474842Y-61798750D01*
X141491318Y-61816929D01*
X141505932Y-61836634D01*
X141518545Y-61857678D01*
X141529035Y-61879856D01*
X141537300Y-61902956D01*
X141543261Y-61926754D01*
X141546861Y-61951023D01*
X141548065Y-61975527D01*
X141548065Y-63225527D01*
X141546861Y-63250031D01*
X141543261Y-63274300D01*
X141537300Y-63298098D01*
X141529035Y-63321198D01*
X141518545Y-63343376D01*
X141505932Y-63364420D01*
X141491318Y-63384125D01*
X141474842Y-63402304D01*
X141456663Y-63418780D01*
X141436958Y-63433394D01*
X141415914Y-63446007D01*
X141393736Y-63456497D01*
X141370636Y-63464762D01*
X141346838Y-63470723D01*
X141322569Y-63474323D01*
X141298065Y-63475527D01*
X140373065Y-63475527D01*
X140348561Y-63474323D01*
X140324292Y-63470723D01*
X140300494Y-63464762D01*
X140277394Y-63456497D01*
X140255216Y-63446007D01*
X140234172Y-63433394D01*
X140214467Y-63418780D01*
X140196288Y-63402304D01*
X140179812Y-63384125D01*
X140165198Y-63364420D01*
X140152585Y-63343376D01*
X140142095Y-63321198D01*
X140133830Y-63298098D01*
X140127869Y-63274300D01*
X140124269Y-63250031D01*
X140123065Y-63225527D01*
X140123065Y-61975527D01*
X140124269Y-61951023D01*
X140127869Y-61926754D01*
X140133830Y-61902956D01*
X140142095Y-61879856D01*
X140152585Y-61857678D01*
X140165198Y-61836634D01*
X140179812Y-61816929D01*
X140196288Y-61798750D01*
X140214467Y-61782274D01*
X140234172Y-61767660D01*
X140255216Y-61755047D01*
X140277394Y-61744557D01*
X140300494Y-61736292D01*
X140324292Y-61730331D01*
X140348561Y-61726731D01*
X140373065Y-61725527D01*
X141298065Y-61725527D01*
X141322569Y-61726731D01*
X141322569Y-61726731D01*
G37*
D15*
G04 #@! TD*
G04 #@! TO.P,R2,2*
G04 #@! TO.N,29-GND*
X140835565Y-62600527D03*
D14*
G04 #@! TO.N,A4-SDA*
G04 #@! TO.C,R3*
G36*
X158658304Y-70779404D02*
X158682573Y-70783004D01*
X158706371Y-70788965D01*
X158729471Y-70797230D01*
X158751649Y-70807720D01*
X158772693Y-70820333D01*
X158792398Y-70834947D01*
X158810577Y-70851423D01*
X158827053Y-70869602D01*
X158841667Y-70889307D01*
X158854280Y-70910351D01*
X158864770Y-70932529D01*
X158873035Y-70955629D01*
X158878996Y-70979427D01*
X158882596Y-71003696D01*
X158883800Y-71028200D01*
X158883800Y-72278200D01*
X158882596Y-72302704D01*
X158878996Y-72326973D01*
X158873035Y-72350771D01*
X158864770Y-72373871D01*
X158854280Y-72396049D01*
X158841667Y-72417093D01*
X158827053Y-72436798D01*
X158810577Y-72454977D01*
X158792398Y-72471453D01*
X158772693Y-72486067D01*
X158751649Y-72498680D01*
X158729471Y-72509170D01*
X158706371Y-72517435D01*
X158682573Y-72523396D01*
X158658304Y-72526996D01*
X158633800Y-72528200D01*
X157708800Y-72528200D01*
X157684296Y-72526996D01*
X157660027Y-72523396D01*
X157636229Y-72517435D01*
X157613129Y-72509170D01*
X157590951Y-72498680D01*
X157569907Y-72486067D01*
X157550202Y-72471453D01*
X157532023Y-72454977D01*
X157515547Y-72436798D01*
X157500933Y-72417093D01*
X157488320Y-72396049D01*
X157477830Y-72373871D01*
X157469565Y-72350771D01*
X157463604Y-72326973D01*
X157460004Y-72302704D01*
X157458800Y-72278200D01*
X157458800Y-71028200D01*
X157460004Y-71003696D01*
X157463604Y-70979427D01*
X157469565Y-70955629D01*
X157477830Y-70932529D01*
X157488320Y-70910351D01*
X157500933Y-70889307D01*
X157515547Y-70869602D01*
X157532023Y-70851423D01*
X157550202Y-70834947D01*
X157569907Y-70820333D01*
X157590951Y-70807720D01*
X157613129Y-70797230D01*
X157636229Y-70788965D01*
X157660027Y-70783004D01*
X157684296Y-70779404D01*
X157708800Y-70778200D01*
X158633800Y-70778200D01*
X158658304Y-70779404D01*
X158658304Y-70779404D01*
G37*
D15*
G04 #@! TD*
G04 #@! TO.P,R3,2*
G04 #@! TO.N,A4-SDA*
X158171300Y-71653200D03*
D14*
G04 #@! TO.N,27-5V*
G04 #@! TO.C,R3*
G36*
X161633304Y-70779404D02*
X161657573Y-70783004D01*
X161681371Y-70788965D01*
X161704471Y-70797230D01*
X161726649Y-70807720D01*
X161747693Y-70820333D01*
X161767398Y-70834947D01*
X161785577Y-70851423D01*
X161802053Y-70869602D01*
X161816667Y-70889307D01*
X161829280Y-70910351D01*
X161839770Y-70932529D01*
X161848035Y-70955629D01*
X161853996Y-70979427D01*
X161857596Y-71003696D01*
X161858800Y-71028200D01*
X161858800Y-72278200D01*
X161857596Y-72302704D01*
X161853996Y-72326973D01*
X161848035Y-72350771D01*
X161839770Y-72373871D01*
X161829280Y-72396049D01*
X161816667Y-72417093D01*
X161802053Y-72436798D01*
X161785577Y-72454977D01*
X161767398Y-72471453D01*
X161747693Y-72486067D01*
X161726649Y-72498680D01*
X161704471Y-72509170D01*
X161681371Y-72517435D01*
X161657573Y-72523396D01*
X161633304Y-72526996D01*
X161608800Y-72528200D01*
X160683800Y-72528200D01*
X160659296Y-72526996D01*
X160635027Y-72523396D01*
X160611229Y-72517435D01*
X160588129Y-72509170D01*
X160565951Y-72498680D01*
X160544907Y-72486067D01*
X160525202Y-72471453D01*
X160507023Y-72454977D01*
X160490547Y-72436798D01*
X160475933Y-72417093D01*
X160463320Y-72396049D01*
X160452830Y-72373871D01*
X160444565Y-72350771D01*
X160438604Y-72326973D01*
X160435004Y-72302704D01*
X160433800Y-72278200D01*
X160433800Y-71028200D01*
X160435004Y-71003696D01*
X160438604Y-70979427D01*
X160444565Y-70955629D01*
X160452830Y-70932529D01*
X160463320Y-70910351D01*
X160475933Y-70889307D01*
X160490547Y-70869602D01*
X160507023Y-70851423D01*
X160525202Y-70834947D01*
X160544907Y-70820333D01*
X160565951Y-70807720D01*
X160588129Y-70797230D01*
X160611229Y-70788965D01*
X160635027Y-70783004D01*
X160659296Y-70779404D01*
X160683800Y-70778200D01*
X161608800Y-70778200D01*
X161633304Y-70779404D01*
X161633304Y-70779404D01*
G37*
D15*
G04 #@! TD*
G04 #@! TO.P,R3,1*
G04 #@! TO.N,27-5V*
X161146300Y-71653200D03*
D14*
G04 #@! TO.N,27-5V*
G04 #@! TO.C,R4*
G36*
X161633304Y-65179804D02*
X161657573Y-65183404D01*
X161681371Y-65189365D01*
X161704471Y-65197630D01*
X161726649Y-65208120D01*
X161747693Y-65220733D01*
X161767398Y-65235347D01*
X161785577Y-65251823D01*
X161802053Y-65270002D01*
X161816667Y-65289707D01*
X161829280Y-65310751D01*
X161839770Y-65332929D01*
X161848035Y-65356029D01*
X161853996Y-65379827D01*
X161857596Y-65404096D01*
X161858800Y-65428600D01*
X161858800Y-66678600D01*
X161857596Y-66703104D01*
X161853996Y-66727373D01*
X161848035Y-66751171D01*
X161839770Y-66774271D01*
X161829280Y-66796449D01*
X161816667Y-66817493D01*
X161802053Y-66837198D01*
X161785577Y-66855377D01*
X161767398Y-66871853D01*
X161747693Y-66886467D01*
X161726649Y-66899080D01*
X161704471Y-66909570D01*
X161681371Y-66917835D01*
X161657573Y-66923796D01*
X161633304Y-66927396D01*
X161608800Y-66928600D01*
X160683800Y-66928600D01*
X160659296Y-66927396D01*
X160635027Y-66923796D01*
X160611229Y-66917835D01*
X160588129Y-66909570D01*
X160565951Y-66899080D01*
X160544907Y-66886467D01*
X160525202Y-66871853D01*
X160507023Y-66855377D01*
X160490547Y-66837198D01*
X160475933Y-66817493D01*
X160463320Y-66796449D01*
X160452830Y-66774271D01*
X160444565Y-66751171D01*
X160438604Y-66727373D01*
X160435004Y-66703104D01*
X160433800Y-66678600D01*
X160433800Y-65428600D01*
X160435004Y-65404096D01*
X160438604Y-65379827D01*
X160444565Y-65356029D01*
X160452830Y-65332929D01*
X160463320Y-65310751D01*
X160475933Y-65289707D01*
X160490547Y-65270002D01*
X160507023Y-65251823D01*
X160525202Y-65235347D01*
X160544907Y-65220733D01*
X160565951Y-65208120D01*
X160588129Y-65197630D01*
X160611229Y-65189365D01*
X160635027Y-65183404D01*
X160659296Y-65179804D01*
X160683800Y-65178600D01*
X161608800Y-65178600D01*
X161633304Y-65179804D01*
X161633304Y-65179804D01*
G37*
D15*
G04 #@! TD*
G04 #@! TO.P,R4,1*
G04 #@! TO.N,27-5V*
X161146300Y-66053600D03*
D14*
G04 #@! TO.N,A5-SCL*
G04 #@! TO.C,R4*
G36*
X158658304Y-65179804D02*
X158682573Y-65183404D01*
X158706371Y-65189365D01*
X158729471Y-65197630D01*
X158751649Y-65208120D01*
X158772693Y-65220733D01*
X158792398Y-65235347D01*
X158810577Y-65251823D01*
X158827053Y-65270002D01*
X158841667Y-65289707D01*
X158854280Y-65310751D01*
X158864770Y-65332929D01*
X158873035Y-65356029D01*
X158878996Y-65379827D01*
X158882596Y-65404096D01*
X158883800Y-65428600D01*
X158883800Y-66678600D01*
X158882596Y-66703104D01*
X158878996Y-66727373D01*
X158873035Y-66751171D01*
X158864770Y-66774271D01*
X158854280Y-66796449D01*
X158841667Y-66817493D01*
X158827053Y-66837198D01*
X158810577Y-66855377D01*
X158792398Y-66871853D01*
X158772693Y-66886467D01*
X158751649Y-66899080D01*
X158729471Y-66909570D01*
X158706371Y-66917835D01*
X158682573Y-66923796D01*
X158658304Y-66927396D01*
X158633800Y-66928600D01*
X157708800Y-66928600D01*
X157684296Y-66927396D01*
X157660027Y-66923796D01*
X157636229Y-66917835D01*
X157613129Y-66909570D01*
X157590951Y-66899080D01*
X157569907Y-66886467D01*
X157550202Y-66871853D01*
X157532023Y-66855377D01*
X157515547Y-66837198D01*
X157500933Y-66817493D01*
X157488320Y-66796449D01*
X157477830Y-66774271D01*
X157469565Y-66751171D01*
X157463604Y-66727373D01*
X157460004Y-66703104D01*
X157458800Y-66678600D01*
X157458800Y-65428600D01*
X157460004Y-65404096D01*
X157463604Y-65379827D01*
X157469565Y-65356029D01*
X157477830Y-65332929D01*
X157488320Y-65310751D01*
X157500933Y-65289707D01*
X157515547Y-65270002D01*
X157532023Y-65251823D01*
X157550202Y-65235347D01*
X157569907Y-65220733D01*
X157590951Y-65208120D01*
X157613129Y-65197630D01*
X157636229Y-65189365D01*
X157660027Y-65183404D01*
X157684296Y-65179804D01*
X157708800Y-65178600D01*
X158633800Y-65178600D01*
X158658304Y-65179804D01*
X158658304Y-65179804D01*
G37*
D15*
G04 #@! TD*
G04 #@! TO.P,R4,2*
G04 #@! TO.N,A5-SCL*
X158171300Y-66053600D03*
D16*
G04 #@! TO.N,*
X158000000Y-53600000D03*
X126700000Y-84900000D03*
X158000000Y-84900000D03*
G04 #@! TO.N,GND*
X126600000Y-53600000D03*
D17*
G04 #@! TO.N,Net-(C3-Pad1)*
X140057700Y-74969000D03*
G04 #@! TO.N,Net-(R2-Pad1)*
X143931200Y-62472200D03*
G04 #@! TO.N,A5-SCL*
X145404400Y-69812800D03*
G04 #@! TO.N,A7-ASA*
X139867200Y-68593600D03*
G04 #@! TO.N,A6-TEMP*
X140718100Y-58611400D03*
G04 #@! TO.N,27-5V*
X143867700Y-58598700D03*
X139500000Y-71133600D03*
X143855000Y-74803900D03*
G04 #@! TO.N,29-GND*
X140616500Y-62535700D03*
X140057700Y-78080500D03*
X143778800Y-78080500D03*
G04 #@! TD*
D18*
G04 #@! TO.N,A5-SCL*
X149956000Y-67640000D02*
X153571600Y-67640000D01*
X156961400Y-66053600D02*
X158171300Y-66053600D01*
X153583200Y-67628400D02*
X155386600Y-67628400D01*
X155386600Y-67628400D02*
X156961400Y-66053600D01*
D19*
X146280700Y-69812800D02*
X145404400Y-69812800D01*
X149956000Y-67640000D02*
X148453500Y-67640000D01*
X148453500Y-67640000D02*
X146280700Y-69812800D01*
D18*
G04 #@! TO.N,A4-SDA*
X149956000Y-70180000D02*
X153571600Y-70180000D01*
X153583200Y-70168400D02*
X155716800Y-70168400D01*
X157358800Y-71653200D02*
X157321800Y-71616200D01*
X158171300Y-71653200D02*
X157358800Y-71653200D01*
X157164600Y-71616200D02*
X155716800Y-70168400D01*
X157321800Y-71616200D02*
X157164600Y-71616200D01*
G04 #@! TO.N,A7-ASA*
X149956000Y-62560000D02*
X153571600Y-62560000D01*
D19*
X146866000Y-62560000D02*
X149956000Y-62560000D01*
X139867200Y-68593600D02*
X140832400Y-68593600D01*
X140832400Y-68593600D02*
X146866000Y-62560000D01*
G04 #@! TO.N,A6-TEMP*
X140718100Y-56733400D02*
X140718100Y-58611400D01*
X139473500Y-55488800D02*
X140718100Y-56733400D01*
X144289700Y-55488800D02*
X139473500Y-55488800D01*
D20*
X145264700Y-55488800D02*
X144289700Y-55488800D01*
D18*
X149956000Y-65100000D02*
X153571600Y-65100000D01*
G04 #@! TO.N,D10-ASDIR*
X131409000Y-82868400D02*
X134704400Y-82868400D01*
D20*
G04 #@! TO.N,27-5V*
X149926000Y-60050000D02*
X149956000Y-60020000D01*
D18*
X153571600Y-60020000D02*
X153583200Y-60008400D01*
X149956000Y-60020000D02*
X153571600Y-60020000D01*
X154785281Y-60008400D02*
X154836081Y-59957600D01*
X153583200Y-60008400D02*
X154785281Y-60008400D01*
X154836081Y-59957600D02*
X159425200Y-59957600D01*
X161146300Y-61678700D02*
X161146300Y-66053600D01*
X159425200Y-59957600D02*
X161146300Y-61678700D01*
X161146300Y-66053600D02*
X161146300Y-71653200D01*
D19*
X143867700Y-58598700D02*
X145709200Y-58598700D01*
X147130500Y-60020000D02*
X149956000Y-60020000D01*
X145709200Y-58598700D02*
X147130500Y-60020000D01*
X143867700Y-60033800D02*
X143867700Y-58598700D01*
X138216200Y-71133600D02*
X137670100Y-70587500D01*
X139500000Y-71133600D02*
X138216200Y-71133600D01*
X137670100Y-70587500D02*
X137670100Y-61354600D01*
X138394000Y-60630700D02*
X143270800Y-60630700D01*
X143270800Y-60630700D02*
X143867700Y-60033800D01*
X137670100Y-61354600D02*
X138394000Y-60630700D01*
D18*
G04 #@! TO.N,17-3V3*
X153571600Y-85420000D02*
X153583200Y-85408400D01*
X149956000Y-85420000D02*
X153571600Y-85420000D01*
G04 #@! TO.N,29-GND*
X134704400Y-60008400D02*
X134716000Y-60020000D01*
X131409000Y-60008400D02*
X134704400Y-60008400D01*
X153571600Y-54940000D02*
X153583200Y-54928400D01*
X149956000Y-54940000D02*
X153571600Y-54940000D01*
D19*
X140448500Y-52513800D02*
X145264700Y-52513800D01*
X139473500Y-52513800D02*
X140448500Y-52513800D01*
X145264700Y-52513800D02*
X146239700Y-52513800D01*
X148665900Y-54940000D02*
X149956000Y-54940000D01*
X146239700Y-52513800D02*
X148665900Y-54940000D01*
X134716000Y-60020000D02*
X136452000Y-60020000D01*
X136452000Y-60020000D02*
X137136700Y-59335300D01*
X137136700Y-59335300D02*
X137136700Y-53163100D01*
X137786000Y-52513800D02*
X139473500Y-52513800D01*
X137136700Y-53163100D02*
X137786000Y-52513800D01*
D18*
G04 #@! TO.N,30-VIN*
X153571600Y-52400000D02*
X153583200Y-52388400D01*
X149956000Y-52400000D02*
X153571600Y-52400000D01*
G04 #@! TO.N,D1-TXD*
X134704400Y-52388400D02*
X134716000Y-52400000D01*
X131409000Y-52388400D02*
X134704400Y-52388400D01*
G04 #@! TO.N,D0-RXD*
X134704400Y-54928400D02*
X134716000Y-54940000D01*
X131409000Y-54928400D02*
X134704400Y-54928400D01*
G04 #@! TO.N,18-AREF*
X153571600Y-82880000D02*
X153583200Y-82868400D01*
X149956000Y-82880000D02*
X153571600Y-82880000D01*
G04 #@! TO.N,3-RST*
X134704400Y-57468400D02*
X134716000Y-57480000D01*
X131409000Y-57468400D02*
X134704400Y-57468400D01*
G04 #@! TO.N,A0-*
X153571600Y-80340000D02*
X153583200Y-80328400D01*
X149956000Y-80340000D02*
X153571600Y-80340000D01*
G04 #@! TO.N,A1-*
X153571600Y-77800000D02*
X153583200Y-77788400D01*
X149956000Y-77800000D02*
X153571600Y-77800000D01*
G04 #@! TO.N,A2-*
X153571600Y-75260000D02*
X153583200Y-75248400D01*
X149956000Y-75260000D02*
X153571600Y-75260000D01*
G04 #@! TO.N,A3-*
X153571600Y-72720000D02*
X153583200Y-72708400D01*
X149956000Y-72720000D02*
X153571600Y-72720000D01*
G04 #@! TO.N,D5-*
X134704400Y-70168400D02*
X134716000Y-70180000D01*
X131409000Y-70168400D02*
X134704400Y-70168400D01*
G04 #@! TO.N,D6-*
X134704400Y-72708400D02*
X134716000Y-72720000D01*
X131409000Y-72708400D02*
X134704400Y-72708400D01*
G04 #@! TO.N,28-RST*
X153571600Y-57480000D02*
X153583200Y-57468400D01*
X149956000Y-57480000D02*
X153571600Y-57480000D01*
G04 #@! TO.N,D2-*
X134704400Y-62548400D02*
X134716000Y-62560000D01*
X131409000Y-62548400D02*
X134704400Y-62548400D01*
G04 #@! TO.N,D3-*
X134704400Y-65088400D02*
X134716000Y-65100000D01*
X131409000Y-65088400D02*
X134704400Y-65088400D01*
G04 #@! TO.N,D4-STEP*
X134704400Y-67628400D02*
X134716000Y-67640000D01*
X131409000Y-67628400D02*
X134704400Y-67628400D01*
G04 #@! TO.N,D7-DIR*
X134704400Y-75248400D02*
X134716000Y-75260000D01*
X131409000Y-75248400D02*
X134704400Y-75248400D01*
G04 #@! TO.N,D8-ENA*
X134704400Y-77788400D02*
X134716000Y-77800000D01*
X131409000Y-77788400D02*
X134704400Y-77788400D01*
G04 #@! TO.N,D9-*
X131409000Y-80328400D02*
X134704400Y-80328400D01*
G04 #@! TO.N,D11-MS1*
X131409000Y-85408400D02*
X134704400Y-85408400D01*
G04 #@! TO.N,D12-MS2*
X131409000Y-87948400D02*
X134704400Y-87948400D01*
G04 #@! TO.N,D13-MS3*
X153571600Y-87960000D02*
X153583200Y-87948400D01*
X149956000Y-87960000D02*
X153571600Y-87960000D01*
G04 #@! TD*
M02*
