G04 #@! TF.GenerationSoftware,KiCad,Pcbnew,5.0.1-33cea8e~68~ubuntu18.04.1*
G04 #@! TF.CreationDate,2018-11-12T21:08:02+01:00*
G04 #@! TF.ProjectId,ustepper_nano,75737465707065725F6E616E6F2E6B69,rev?*
G04 #@! TF.SameCoordinates,Original*
G04 #@! TF.FileFunction,Legend,Bot*
G04 #@! TF.FilePolarity,Positive*
%FSLAX46Y46*%
G04 Gerber Fmt 4.6, Leading zero omitted, Abs format (unit mm)*
G04 Created by KiCad (PCBNEW 5.0.1-33cea8e~68~ubuntu18.04.1) date lun 12 nov 2018 21:08:02 CET*
%MOMM*%
%LPD*%
G01*
G04 APERTURE LIST*
%ADD10C,0.100000*%
%ADD11C,0.200000*%
%ADD12C,0.150000*%
%ADD13C,0.120000*%
G04 APERTURE END LIST*
D10*
X140176771Y-72754380D02*
X140081533Y-72706761D01*
X140033914Y-72659142D01*
X139986295Y-72563904D01*
X139986295Y-72278190D01*
X140033914Y-72182952D01*
X140081533Y-72135333D01*
X140176771Y-72087714D01*
X140319628Y-72087714D01*
X140414866Y-72135333D01*
X140462485Y-72182952D01*
X140510104Y-72278190D01*
X140510104Y-72563904D01*
X140462485Y-72659142D01*
X140414866Y-72706761D01*
X140319628Y-72754380D01*
X140176771Y-72754380D01*
D11*
X121400000Y-86000000D02*
X121400000Y-52500000D01*
X125600000Y-90200000D02*
X121400000Y-86000000D01*
X159000000Y-90200000D02*
X125600000Y-90200000D01*
X163300000Y-85900000D02*
X159000000Y-90200000D01*
X163300000Y-52700000D02*
X163300000Y-85900000D01*
X158900000Y-48300000D02*
X163300000Y-52700000D01*
X125600000Y-48300000D02*
X158900000Y-48300000D01*
X121400000Y-52500000D02*
X125600000Y-48300000D01*
D12*
G04 #@! TO.C,U1*
X140125000Y-71775000D02*
X140125000Y-71725000D01*
X144275000Y-71775000D02*
X144275000Y-71630000D01*
X144275000Y-66625000D02*
X144275000Y-66770000D01*
X140125000Y-66625000D02*
X140125000Y-66770000D01*
X140125000Y-71775000D02*
X144275000Y-71775000D01*
X140125000Y-66625000D02*
X144275000Y-66625000D01*
X140125000Y-71725000D02*
X138725000Y-71725000D01*
D13*
G04 #@! TO.C,TH1*
X142806064Y-57726800D02*
X141601936Y-57726800D01*
X142806064Y-59546800D02*
X141601936Y-59546800D01*
G04 #@! TO.C,U1*
D12*
X142961904Y-72152380D02*
X142961904Y-72961904D01*
X142914285Y-73057142D01*
X142866666Y-73104761D01*
X142771428Y-73152380D01*
X142580952Y-73152380D01*
X142485714Y-73104761D01*
X142438095Y-73057142D01*
X142390476Y-72961904D01*
X142390476Y-72152380D01*
X141390476Y-73152380D02*
X141961904Y-73152380D01*
X141676190Y-73152380D02*
X141676190Y-72152380D01*
X141771428Y-72295238D01*
X141866666Y-72390476D01*
X141961904Y-72438095D01*
X147247619Y-65866666D02*
X146771428Y-65866666D01*
X147342857Y-66152380D02*
X147009523Y-65152380D01*
X146676190Y-66152380D01*
X146390476Y-66104761D02*
X146247619Y-66152380D01*
X146009523Y-66152380D01*
X145914285Y-66104761D01*
X145866666Y-66057142D01*
X145819047Y-65961904D01*
X145819047Y-65866666D01*
X145866666Y-65771428D01*
X145914285Y-65723809D01*
X146009523Y-65676190D01*
X146200000Y-65628571D01*
X146295238Y-65580952D01*
X146342857Y-65533333D01*
X146390476Y-65438095D01*
X146390476Y-65342857D01*
X146342857Y-65247619D01*
X146295238Y-65200000D01*
X146200000Y-65152380D01*
X145961904Y-65152380D01*
X145819047Y-65200000D01*
X144914285Y-65152380D02*
X145390476Y-65152380D01*
X145438095Y-65628571D01*
X145390476Y-65580952D01*
X145295238Y-65533333D01*
X145057142Y-65533333D01*
X144961904Y-65580952D01*
X144914285Y-65628571D01*
X144866666Y-65723809D01*
X144866666Y-65961904D01*
X144914285Y-66057142D01*
X144961904Y-66104761D01*
X145057142Y-66152380D01*
X145295238Y-66152380D01*
X145390476Y-66104761D01*
X145438095Y-66057142D01*
X144009523Y-65152380D02*
X144200000Y-65152380D01*
X144295238Y-65200000D01*
X144342857Y-65247619D01*
X144438095Y-65390476D01*
X144485714Y-65580952D01*
X144485714Y-65961904D01*
X144438095Y-66057142D01*
X144390476Y-66104761D01*
X144295238Y-66152380D01*
X144104761Y-66152380D01*
X144009523Y-66104761D01*
X143961904Y-66057142D01*
X143914285Y-65961904D01*
X143914285Y-65723809D01*
X143961904Y-65628571D01*
X144009523Y-65580952D01*
X144104761Y-65533333D01*
X144295238Y-65533333D01*
X144390476Y-65580952D01*
X144438095Y-65628571D01*
X144485714Y-65723809D01*
X143295238Y-65152380D02*
X143200000Y-65152380D01*
X143104761Y-65200000D01*
X143057142Y-65247619D01*
X143009523Y-65342857D01*
X142961904Y-65533333D01*
X142961904Y-65771428D01*
X143009523Y-65961904D01*
X143057142Y-66057142D01*
X143104761Y-66104761D01*
X143200000Y-66152380D01*
X143295238Y-66152380D01*
X143390476Y-66104761D01*
X143438095Y-66057142D01*
X143485714Y-65961904D01*
X143533333Y-65771428D01*
X143533333Y-65533333D01*
X143485714Y-65342857D01*
X143438095Y-65247619D01*
X143390476Y-65200000D01*
X143295238Y-65152380D01*
X142342857Y-65152380D02*
X142247619Y-65152380D01*
X142152380Y-65200000D01*
X142104761Y-65247619D01*
X142057142Y-65342857D01*
X142009523Y-65533333D01*
X142009523Y-65771428D01*
X142057142Y-65961904D01*
X142104761Y-66057142D01*
X142152380Y-66104761D01*
X142247619Y-66152380D01*
X142342857Y-66152380D01*
X142438095Y-66104761D01*
X142485714Y-66057142D01*
X142533333Y-65961904D01*
X142580952Y-65771428D01*
X142580952Y-65533333D01*
X142533333Y-65342857D01*
X142485714Y-65247619D01*
X142438095Y-65200000D01*
X142342857Y-65152380D01*
X141580952Y-65771428D02*
X140819047Y-65771428D01*
X140390476Y-65866666D02*
X139914285Y-65866666D01*
X140485714Y-66152380D02*
X140152380Y-65152380D01*
X139819047Y-66152380D01*
X139533333Y-66104761D02*
X139390476Y-66152380D01*
X139152380Y-66152380D01*
X139057142Y-66104761D01*
X139009523Y-66057142D01*
X138961904Y-65961904D01*
X138961904Y-65866666D01*
X139009523Y-65771428D01*
X139057142Y-65723809D01*
X139152380Y-65676190D01*
X139342857Y-65628571D01*
X139438095Y-65580952D01*
X139485714Y-65533333D01*
X139533333Y-65438095D01*
X139533333Y-65342857D01*
X139485714Y-65247619D01*
X139438095Y-65200000D01*
X139342857Y-65152380D01*
X139104761Y-65152380D01*
X138961904Y-65200000D01*
X138342857Y-65152380D02*
X138152380Y-65152380D01*
X138057142Y-65200000D01*
X137961904Y-65295238D01*
X137914285Y-65485714D01*
X137914285Y-65819047D01*
X137961904Y-66009523D01*
X138057142Y-66104761D01*
X138152380Y-66152380D01*
X138342857Y-66152380D01*
X138438095Y-66104761D01*
X138533333Y-66009523D01*
X138580952Y-65819047D01*
X138580952Y-65485714D01*
X138533333Y-65295238D01*
X138438095Y-65200000D01*
X138342857Y-65152380D01*
X137628571Y-65152380D02*
X137057142Y-65152380D01*
X137342857Y-66152380D02*
X137342857Y-65152380D01*
G04 #@! TO.C,TH1*
X143578614Y-56260380D02*
X143007185Y-56260380D01*
X143292900Y-57260380D02*
X143292900Y-56260380D01*
X142673852Y-57260380D02*
X142673852Y-56260380D01*
X142673852Y-56736571D02*
X142102423Y-56736571D01*
X142102423Y-57260380D02*
X142102423Y-56260380D01*
X141102423Y-57260380D02*
X141673852Y-57260380D01*
X141388138Y-57260380D02*
X141388138Y-56260380D01*
X141483376Y-56403238D01*
X141578614Y-56498476D01*
X141673852Y-56546095D01*
X145204000Y-60909180D02*
X145204000Y-59909180D01*
X144632571Y-60909180D01*
X144632571Y-59909180D01*
X144299238Y-59909180D02*
X143727809Y-59909180D01*
X144013523Y-60909180D02*
X144013523Y-59909180D01*
X142823047Y-60813942D02*
X142870666Y-60861561D01*
X143013523Y-60909180D01*
X143108761Y-60909180D01*
X143251619Y-60861561D01*
X143346857Y-60766323D01*
X143394476Y-60671085D01*
X143442095Y-60480609D01*
X143442095Y-60337752D01*
X143394476Y-60147276D01*
X143346857Y-60052038D01*
X143251619Y-59956800D01*
X143108761Y-59909180D01*
X143013523Y-59909180D01*
X142870666Y-59956800D01*
X142823047Y-60004419D01*
X141204000Y-60242514D02*
X141204000Y-60909180D01*
X141442095Y-59861561D02*
X141680190Y-60575847D01*
X141061142Y-60575847D01*
X140680190Y-60909180D02*
X140680190Y-59909180D01*
X140108761Y-60909180D02*
X140537333Y-60337752D01*
X140108761Y-59909180D02*
X140680190Y-60480609D01*
X139775428Y-59909180D02*
X139108761Y-59909180D01*
X139537333Y-60909180D01*
G04 #@! TD*
M02*
