G04 #@! TF.GenerationSoftware,KiCad,Pcbnew,5.0.1-33cea8e~68~ubuntu18.04.1*
G04 #@! TF.CreationDate,2018-11-12T21:08:02+01:00*
G04 #@! TF.ProjectId,ustepper_nano,75737465707065725F6E616E6F2E6B69,rev?*
G04 #@! TF.SameCoordinates,Original*
G04 #@! TF.FileFunction,Legend,Top*
G04 #@! TF.FilePolarity,Positive*
%FSLAX46Y46*%
G04 Gerber Fmt 4.6, Leading zero omitted, Abs format (unit mm)*
G04 Created by KiCad (PCBNEW 5.0.1-33cea8e~68~ubuntu18.04.1) date lun 12 nov 2018 21:08:02 CET*
%MOMM*%
%LPD*%
G01*
G04 APERTURE LIST*
%ADD10C,0.200000*%
%ADD11C,0.300000*%
%ADD12C,0.120000*%
%ADD13C,0.150000*%
G04 APERTURE END LIST*
D10*
X146115600Y-90132800D02*
X138546400Y-90132800D01*
X146115600Y-84138400D02*
X146115600Y-90132800D01*
X138546400Y-84138400D02*
X146115600Y-84138400D01*
X138546400Y-90132800D02*
X138546400Y-84138400D01*
D11*
X131528571Y-49178571D02*
X131528571Y-50178571D01*
X130885714Y-49178571D02*
X130885714Y-49964285D01*
X130957142Y-50107142D01*
X131100000Y-50178571D01*
X131314285Y-50178571D01*
X131457142Y-50107142D01*
X131528571Y-50035714D01*
X132171428Y-50107142D02*
X132385714Y-50178571D01*
X132742857Y-50178571D01*
X132885714Y-50107142D01*
X132957142Y-50035714D01*
X133028571Y-49892857D01*
X133028571Y-49750000D01*
X132957142Y-49607142D01*
X132885714Y-49535714D01*
X132742857Y-49464285D01*
X132457142Y-49392857D01*
X132314285Y-49321428D01*
X132242857Y-49250000D01*
X132171428Y-49107142D01*
X132171428Y-48964285D01*
X132242857Y-48821428D01*
X132314285Y-48750000D01*
X132457142Y-48678571D01*
X132814285Y-48678571D01*
X133028571Y-48750000D01*
X133457142Y-49178571D02*
X134028571Y-49178571D01*
X133671428Y-48678571D02*
X133671428Y-49964285D01*
X133742857Y-50107142D01*
X133885714Y-50178571D01*
X134028571Y-50178571D01*
X135100000Y-50107142D02*
X134957142Y-50178571D01*
X134671428Y-50178571D01*
X134528571Y-50107142D01*
X134457142Y-49964285D01*
X134457142Y-49392857D01*
X134528571Y-49250000D01*
X134671428Y-49178571D01*
X134957142Y-49178571D01*
X135100000Y-49250000D01*
X135171428Y-49392857D01*
X135171428Y-49535714D01*
X134457142Y-49678571D01*
X135814285Y-49178571D02*
X135814285Y-50678571D01*
X135814285Y-49250000D02*
X135957142Y-49178571D01*
X136242857Y-49178571D01*
X136385714Y-49250000D01*
X136457142Y-49321428D01*
X136528571Y-49464285D01*
X136528571Y-49892857D01*
X136457142Y-50035714D01*
X136385714Y-50107142D01*
X136242857Y-50178571D01*
X135957142Y-50178571D01*
X135814285Y-50107142D01*
X137171428Y-49178571D02*
X137171428Y-50678571D01*
X137171428Y-49250000D02*
X137314285Y-49178571D01*
X137600000Y-49178571D01*
X137742857Y-49250000D01*
X137814285Y-49321428D01*
X137885714Y-49464285D01*
X137885714Y-49892857D01*
X137814285Y-50035714D01*
X137742857Y-50107142D01*
X137600000Y-50178571D01*
X137314285Y-50178571D01*
X137171428Y-50107142D01*
X139100000Y-50107142D02*
X138957142Y-50178571D01*
X138671428Y-50178571D01*
X138528571Y-50107142D01*
X138457142Y-49964285D01*
X138457142Y-49392857D01*
X138528571Y-49250000D01*
X138671428Y-49178571D01*
X138957142Y-49178571D01*
X139100000Y-49250000D01*
X139171428Y-49392857D01*
X139171428Y-49535714D01*
X138457142Y-49678571D01*
X139814285Y-50178571D02*
X139814285Y-49178571D01*
X139814285Y-49464285D02*
X139885714Y-49321428D01*
X139957142Y-49250000D01*
X140100000Y-49178571D01*
X140242857Y-49178571D01*
X142528571Y-50178571D02*
X142528571Y-49392857D01*
X142457142Y-49250000D01*
X142314285Y-49178571D01*
X142028571Y-49178571D01*
X141885714Y-49250000D01*
X142528571Y-50107142D02*
X142385714Y-50178571D01*
X142028571Y-50178571D01*
X141885714Y-50107142D01*
X141814285Y-49964285D01*
X141814285Y-49821428D01*
X141885714Y-49678571D01*
X142028571Y-49607142D01*
X142385714Y-49607142D01*
X142528571Y-49535714D01*
X144171428Y-49178571D02*
X144742857Y-49178571D01*
X144385714Y-48678571D02*
X144385714Y-49964285D01*
X144457142Y-50107142D01*
X144600000Y-50178571D01*
X144742857Y-50178571D01*
X145242857Y-50178571D02*
X145242857Y-49178571D01*
X145242857Y-49464285D02*
X145314285Y-49321428D01*
X145385714Y-49250000D01*
X145528571Y-49178571D01*
X145671428Y-49178571D01*
X146385714Y-50178571D02*
X146242857Y-50107142D01*
X146171428Y-50035714D01*
X146100000Y-49892857D01*
X146100000Y-49464285D01*
X146171428Y-49321428D01*
X146242857Y-49250000D01*
X146385714Y-49178571D01*
X146600000Y-49178571D01*
X146742857Y-49250000D01*
X146814285Y-49321428D01*
X146885714Y-49464285D01*
X146885714Y-49892857D01*
X146814285Y-50035714D01*
X146742857Y-50107142D01*
X146600000Y-50178571D01*
X146385714Y-50178571D01*
X147385714Y-49178571D02*
X148171428Y-49178571D01*
X147385714Y-50178571D01*
X148171428Y-50178571D01*
X148957142Y-50178571D02*
X148814285Y-50107142D01*
X148742857Y-50035714D01*
X148671428Y-49892857D01*
X148671428Y-49464285D01*
X148742857Y-49321428D01*
X148814285Y-49250000D01*
X148957142Y-49178571D01*
X149171428Y-49178571D01*
X149314285Y-49250000D01*
X149385714Y-49321428D01*
X149457142Y-49464285D01*
X149457142Y-49892857D01*
X149385714Y-50035714D01*
X149314285Y-50107142D01*
X149171428Y-50178571D01*
X148957142Y-50178571D01*
X150028571Y-50107142D02*
X150171428Y-50178571D01*
X150457142Y-50178571D01*
X150600000Y-50107142D01*
X150671428Y-49964285D01*
X150671428Y-49892857D01*
X150600000Y-49750000D01*
X150457142Y-49678571D01*
X150242857Y-49678571D01*
X150100000Y-49607142D01*
X150028571Y-49464285D01*
X150028571Y-49392857D01*
X150100000Y-49250000D01*
X150242857Y-49178571D01*
X150457142Y-49178571D01*
X150600000Y-49250000D01*
X152314285Y-49178571D02*
X152671428Y-50178571D01*
X153028571Y-49178571D01*
X153457142Y-48678571D02*
X154385714Y-48678571D01*
X153885714Y-49250000D01*
X154100000Y-49250000D01*
X154242857Y-49321428D01*
X154314285Y-49392857D01*
X154385714Y-49535714D01*
X154385714Y-49892857D01*
X154314285Y-50035714D01*
X154242857Y-50107142D01*
X154100000Y-50178571D01*
X153671428Y-50178571D01*
X153528571Y-50107142D01*
X153457142Y-50035714D01*
D10*
X121400000Y-86000000D02*
X121400000Y-52500000D01*
X125600000Y-90200000D02*
X121400000Y-86000000D01*
X159000000Y-90200000D02*
X125600000Y-90200000D01*
X163300000Y-85900000D02*
X159000000Y-90200000D01*
X163300000Y-52700000D02*
X163300000Y-85900000D01*
X158900000Y-48300000D02*
X163300000Y-52700000D01*
X125600000Y-48300000D02*
X158900000Y-48300000D01*
X121400000Y-52500000D02*
X125600000Y-48300000D01*
D12*
G04 #@! TO.C,J7*
X153583200Y-51058400D02*
X154913200Y-51058400D01*
X154913200Y-51058400D02*
X154913200Y-52388400D01*
X154913200Y-53658400D02*
X154913200Y-89278400D01*
X152253200Y-89278400D02*
X154913200Y-89278400D01*
X152253200Y-53658400D02*
X152253200Y-89278400D01*
X152253200Y-53658400D02*
X154913200Y-53658400D01*
G04 #@! TO.C,A2*
X135986000Y-53670000D02*
X135986000Y-51130000D01*
X135986000Y-51130000D02*
X133316000Y-51130000D01*
X133316000Y-53670000D02*
X133316000Y-91900000D01*
X133316000Y-48460000D02*
X133316000Y-51130000D01*
X148686000Y-51130000D02*
X151356000Y-51130000D01*
X148686000Y-51130000D02*
X148686000Y-89230000D01*
X148686000Y-89230000D02*
X151356000Y-89230000D01*
X135986000Y-53670000D02*
X133316000Y-53670000D01*
X135986000Y-53670000D02*
X135986000Y-89230000D01*
X135986000Y-89230000D02*
X133316000Y-89230000D01*
X133316000Y-91900000D02*
X151356000Y-91900000D01*
X151356000Y-91900000D02*
X151356000Y-48460000D01*
X151356000Y-48460000D02*
X133316000Y-48460000D01*
G04 #@! TO.C,J6*
X130079000Y-53658400D02*
X132739000Y-53658400D01*
X130079000Y-53658400D02*
X130079000Y-89278400D01*
X130079000Y-89278400D02*
X132739000Y-89278400D01*
X132739000Y-53658400D02*
X132739000Y-89278400D01*
X132739000Y-51058400D02*
X132739000Y-52388400D01*
X131409000Y-51058400D02*
X132739000Y-51058400D01*
G04 #@! TO.C,C1*
X138563500Y-54603364D02*
X138563500Y-53399236D01*
X140383500Y-54603364D02*
X140383500Y-53399236D01*
G04 #@! TO.C,C2*
X144777700Y-75992536D02*
X144777700Y-77196664D01*
X142957700Y-75992536D02*
X142957700Y-77196664D01*
G04 #@! TO.C,C3*
X139300100Y-75992536D02*
X139300100Y-77196664D01*
X141120100Y-75992536D02*
X141120100Y-77196664D01*
G04 #@! TO.C,R1*
X146174700Y-54603364D02*
X146174700Y-53399236D01*
X144354700Y-54603364D02*
X144354700Y-53399236D01*
G04 #@! TO.C,R2*
X142925129Y-63510527D02*
X141721001Y-63510527D01*
X142925129Y-61690527D02*
X141721001Y-61690527D01*
G04 #@! TO.C,R3*
X160260864Y-70743200D02*
X159056736Y-70743200D01*
X160260864Y-72563200D02*
X159056736Y-72563200D01*
G04 #@! TO.C,R4*
X160260864Y-66963600D02*
X159056736Y-66963600D01*
X160260864Y-65143600D02*
X159056736Y-65143600D01*
G04 #@! TO.C,A2*
D13*
X142243666Y-77541495D02*
X142243666Y-77065304D01*
X142529380Y-77636733D02*
X141529380Y-77303400D01*
X142529380Y-76970066D01*
X142529380Y-76636733D02*
X141862714Y-76636733D01*
X142053190Y-76636733D02*
X141957952Y-76589114D01*
X141910333Y-76541495D01*
X141862714Y-76446257D01*
X141862714Y-76351019D01*
X142529380Y-75589114D02*
X141529380Y-75589114D01*
X142481761Y-75589114D02*
X142529380Y-75684352D01*
X142529380Y-75874828D01*
X142481761Y-75970066D01*
X142434142Y-76017685D01*
X142338904Y-76065304D01*
X142053190Y-76065304D01*
X141957952Y-76017685D01*
X141910333Y-75970066D01*
X141862714Y-75874828D01*
X141862714Y-75684352D01*
X141910333Y-75589114D01*
X141862714Y-74684352D02*
X142529380Y-74684352D01*
X141862714Y-75112923D02*
X142386523Y-75112923D01*
X142481761Y-75065304D01*
X142529380Y-74970066D01*
X142529380Y-74827209D01*
X142481761Y-74731971D01*
X142434142Y-74684352D01*
X142529380Y-74208161D02*
X141862714Y-74208161D01*
X141529380Y-74208161D02*
X141577000Y-74255780D01*
X141624619Y-74208161D01*
X141577000Y-74160542D01*
X141529380Y-74208161D01*
X141624619Y-74208161D01*
X141862714Y-73731971D02*
X142529380Y-73731971D01*
X141957952Y-73731971D02*
X141910333Y-73684352D01*
X141862714Y-73589114D01*
X141862714Y-73446257D01*
X141910333Y-73351019D01*
X142005571Y-73303400D01*
X142529380Y-73303400D01*
X142529380Y-72684352D02*
X142481761Y-72779590D01*
X142434142Y-72827209D01*
X142338904Y-72874828D01*
X142053190Y-72874828D01*
X141957952Y-72827209D01*
X141910333Y-72779590D01*
X141862714Y-72684352D01*
X141862714Y-72541495D01*
X141910333Y-72446257D01*
X141957952Y-72398638D01*
X142053190Y-72351019D01*
X142338904Y-72351019D01*
X142434142Y-72398638D01*
X142481761Y-72446257D01*
X142529380Y-72541495D01*
X142529380Y-72684352D01*
X142624619Y-72160542D02*
X142624619Y-71398638D01*
X142529380Y-71160542D02*
X141529380Y-71160542D01*
X142529380Y-70589114D01*
X141529380Y-70589114D01*
X142529380Y-69684352D02*
X142005571Y-69684352D01*
X141910333Y-69731971D01*
X141862714Y-69827209D01*
X141862714Y-70017685D01*
X141910333Y-70112923D01*
X142481761Y-69684352D02*
X142529380Y-69779590D01*
X142529380Y-70017685D01*
X142481761Y-70112923D01*
X142386523Y-70160542D01*
X142291285Y-70160542D01*
X142196047Y-70112923D01*
X142148428Y-70017685D01*
X142148428Y-69779590D01*
X142100809Y-69684352D01*
X141862714Y-69208161D02*
X142529380Y-69208161D01*
X141957952Y-69208161D02*
X141910333Y-69160542D01*
X141862714Y-69065304D01*
X141862714Y-68922447D01*
X141910333Y-68827209D01*
X142005571Y-68779590D01*
X142529380Y-68779590D01*
X142529380Y-68160542D02*
X142481761Y-68255780D01*
X142434142Y-68303400D01*
X142338904Y-68351019D01*
X142053190Y-68351019D01*
X141957952Y-68303400D01*
X141910333Y-68255780D01*
X141862714Y-68160542D01*
X141862714Y-68017685D01*
X141910333Y-67922447D01*
X141957952Y-67874828D01*
X142053190Y-67827209D01*
X142338904Y-67827209D01*
X142434142Y-67874828D01*
X142481761Y-67922447D01*
X142529380Y-68017685D01*
X142529380Y-68160542D01*
X142624619Y-67636733D02*
X142624619Y-66874828D01*
X141862714Y-66731971D02*
X142529380Y-66493876D01*
X141862714Y-66255780D01*
X141529380Y-65970066D02*
X141529380Y-65351019D01*
X141910333Y-65684352D01*
X141910333Y-65541495D01*
X141957952Y-65446257D01*
X142005571Y-65398638D01*
X142100809Y-65351019D01*
X142338904Y-65351019D01*
X142434142Y-65398638D01*
X142481761Y-65446257D01*
X142529380Y-65541495D01*
X142529380Y-65827209D01*
X142481761Y-65922447D01*
X142434142Y-65970066D01*
X142434142Y-64922447D02*
X142481761Y-64874828D01*
X142529380Y-64922447D01*
X142481761Y-64970066D01*
X142434142Y-64922447D01*
X142529380Y-64922447D01*
X142529380Y-64541495D02*
X141862714Y-64017685D01*
X141862714Y-64541495D02*
X142529380Y-64017685D01*
G04 #@! TO.C,C1*
X137938342Y-56492066D02*
X137985961Y-56539685D01*
X138033580Y-56682542D01*
X138033580Y-56777780D01*
X137985961Y-56920638D01*
X137890723Y-57015876D01*
X137795485Y-57063495D01*
X137605009Y-57111114D01*
X137462152Y-57111114D01*
X137271676Y-57063495D01*
X137176438Y-57015876D01*
X137081200Y-56920638D01*
X137033580Y-56777780D01*
X137033580Y-56682542D01*
X137081200Y-56539685D01*
X137128819Y-56492066D01*
X138033580Y-55539685D02*
X138033580Y-56111114D01*
X138033580Y-55825400D02*
X137033580Y-55825400D01*
X137176438Y-55920638D01*
X137271676Y-56015876D01*
X137319295Y-56111114D01*
X138033580Y-54215419D02*
X138033580Y-54786847D01*
X138033580Y-54501133D02*
X137033580Y-54501133D01*
X137176438Y-54596371D01*
X137271676Y-54691609D01*
X137319295Y-54786847D01*
X137033580Y-53596371D02*
X137033580Y-53501133D01*
X137081200Y-53405895D01*
X137128819Y-53358276D01*
X137224057Y-53310657D01*
X137414533Y-53263038D01*
X137652628Y-53263038D01*
X137843104Y-53310657D01*
X137938342Y-53358276D01*
X137985961Y-53405895D01*
X138033580Y-53501133D01*
X138033580Y-53596371D01*
X137985961Y-53691609D01*
X137938342Y-53739228D01*
X137843104Y-53786847D01*
X137652628Y-53834466D01*
X137414533Y-53834466D01*
X137224057Y-53786847D01*
X137128819Y-53739228D01*
X137081200Y-53691609D01*
X137033580Y-53596371D01*
X137033580Y-52643990D02*
X137033580Y-52548752D01*
X137081200Y-52453514D01*
X137128819Y-52405895D01*
X137224057Y-52358276D01*
X137414533Y-52310657D01*
X137652628Y-52310657D01*
X137843104Y-52358276D01*
X137938342Y-52405895D01*
X137985961Y-52453514D01*
X138033580Y-52548752D01*
X138033580Y-52643990D01*
X137985961Y-52739228D01*
X137938342Y-52786847D01*
X137843104Y-52834466D01*
X137652628Y-52882085D01*
X137414533Y-52882085D01*
X137224057Y-52834466D01*
X137128819Y-52786847D01*
X137081200Y-52739228D01*
X137033580Y-52643990D01*
X137366914Y-51882085D02*
X138033580Y-51882085D01*
X137462152Y-51882085D02*
X137414533Y-51834466D01*
X137366914Y-51739228D01*
X137366914Y-51596371D01*
X137414533Y-51501133D01*
X137509771Y-51453514D01*
X138033580Y-51453514D01*
X137509771Y-50643990D02*
X137509771Y-50977323D01*
X138033580Y-50977323D02*
X137033580Y-50977323D01*
X137033580Y-50501133D01*
G04 #@! TO.C,C2*
X146612442Y-79567966D02*
X146660061Y-79615585D01*
X146707680Y-79758442D01*
X146707680Y-79853680D01*
X146660061Y-79996538D01*
X146564823Y-80091776D01*
X146469585Y-80139395D01*
X146279109Y-80187014D01*
X146136252Y-80187014D01*
X145945776Y-80139395D01*
X145850538Y-80091776D01*
X145755300Y-79996538D01*
X145707680Y-79853680D01*
X145707680Y-79758442D01*
X145755300Y-79615585D01*
X145802919Y-79567966D01*
X145802919Y-79187014D02*
X145755300Y-79139395D01*
X145707680Y-79044157D01*
X145707680Y-78806061D01*
X145755300Y-78710823D01*
X145802919Y-78663204D01*
X145898157Y-78615585D01*
X145993395Y-78615585D01*
X146136252Y-78663204D01*
X146707680Y-79234633D01*
X146707680Y-78615585D01*
X146809280Y-77202419D02*
X146809280Y-77773847D01*
X146809280Y-77488133D02*
X145809280Y-77488133D01*
X145952138Y-77583371D01*
X146047376Y-77678609D01*
X146094995Y-77773847D01*
X145809280Y-76583371D02*
X145809280Y-76488133D01*
X145856900Y-76392895D01*
X145904519Y-76345276D01*
X145999757Y-76297657D01*
X146190233Y-76250038D01*
X146428328Y-76250038D01*
X146618804Y-76297657D01*
X146714042Y-76345276D01*
X146761661Y-76392895D01*
X146809280Y-76488133D01*
X146809280Y-76583371D01*
X146761661Y-76678609D01*
X146714042Y-76726228D01*
X146618804Y-76773847D01*
X146428328Y-76821466D01*
X146190233Y-76821466D01*
X145999757Y-76773847D01*
X145904519Y-76726228D01*
X145856900Y-76678609D01*
X145809280Y-76583371D01*
X145809280Y-75630990D02*
X145809280Y-75535752D01*
X145856900Y-75440514D01*
X145904519Y-75392895D01*
X145999757Y-75345276D01*
X146190233Y-75297657D01*
X146428328Y-75297657D01*
X146618804Y-75345276D01*
X146714042Y-75392895D01*
X146761661Y-75440514D01*
X146809280Y-75535752D01*
X146809280Y-75630990D01*
X146761661Y-75726228D01*
X146714042Y-75773847D01*
X146618804Y-75821466D01*
X146428328Y-75869085D01*
X146190233Y-75869085D01*
X145999757Y-75821466D01*
X145904519Y-75773847D01*
X145856900Y-75726228D01*
X145809280Y-75630990D01*
X146142614Y-74869085D02*
X146809280Y-74869085D01*
X146237852Y-74869085D02*
X146190233Y-74821466D01*
X146142614Y-74726228D01*
X146142614Y-74583371D01*
X146190233Y-74488133D01*
X146285471Y-74440514D01*
X146809280Y-74440514D01*
X146285471Y-73630990D02*
X146285471Y-73964323D01*
X146809280Y-73964323D02*
X145809280Y-73964323D01*
X145809280Y-73488133D01*
G04 #@! TO.C,C3*
X138205042Y-78717066D02*
X138252661Y-78764685D01*
X138300280Y-78907542D01*
X138300280Y-79002780D01*
X138252661Y-79145638D01*
X138157423Y-79240876D01*
X138062185Y-79288495D01*
X137871709Y-79336114D01*
X137728852Y-79336114D01*
X137538376Y-79288495D01*
X137443138Y-79240876D01*
X137347900Y-79145638D01*
X137300280Y-79002780D01*
X137300280Y-78907542D01*
X137347900Y-78764685D01*
X137395519Y-78717066D01*
X137300280Y-78383733D02*
X137300280Y-77764685D01*
X137681233Y-78098019D01*
X137681233Y-77955161D01*
X137728852Y-77859923D01*
X137776471Y-77812304D01*
X137871709Y-77764685D01*
X138109804Y-77764685D01*
X138205042Y-77812304D01*
X138252661Y-77859923D01*
X138300280Y-77955161D01*
X138300280Y-78240876D01*
X138252661Y-78336114D01*
X138205042Y-78383733D01*
X138325680Y-75500738D02*
X138325680Y-76072166D01*
X138325680Y-75786452D02*
X137325680Y-75786452D01*
X137468538Y-75881690D01*
X137563776Y-75976928D01*
X137611395Y-76072166D01*
X137659014Y-74643595D02*
X138325680Y-74643595D01*
X137659014Y-75072166D02*
X138182823Y-75072166D01*
X138278061Y-75024547D01*
X138325680Y-74929309D01*
X138325680Y-74786452D01*
X138278061Y-74691214D01*
X138230442Y-74643595D01*
X137801871Y-73834071D02*
X137801871Y-74167404D01*
X138325680Y-74167404D02*
X137325680Y-74167404D01*
X137325680Y-73691214D01*
G04 #@! TO.C,R1*
X147660180Y-55755466D02*
X147183990Y-56088800D01*
X147660180Y-56326895D02*
X146660180Y-56326895D01*
X146660180Y-55945942D01*
X146707800Y-55850704D01*
X146755419Y-55803085D01*
X146850657Y-55755466D01*
X146993514Y-55755466D01*
X147088752Y-55803085D01*
X147136371Y-55850704D01*
X147183990Y-55945942D01*
X147183990Y-56326895D01*
X147660180Y-54803085D02*
X147660180Y-55374514D01*
X147660180Y-55088800D02*
X146660180Y-55088800D01*
X146803038Y-55184038D01*
X146898276Y-55279276D01*
X146945895Y-55374514D01*
X147018914Y-53123314D02*
X147685580Y-53123314D01*
X146637961Y-53361409D02*
X147352247Y-53599504D01*
X147352247Y-52980457D01*
X147685580Y-52599504D02*
X146685580Y-52599504D01*
X147685580Y-52028076D02*
X147114152Y-52456647D01*
X146685580Y-52028076D02*
X147257009Y-52599504D01*
X146685580Y-51694742D02*
X146685580Y-51028076D01*
X147685580Y-51456647D01*
G04 #@! TO.C,R2*
X137909833Y-62939934D02*
X137576500Y-62463744D01*
X137338404Y-62939934D02*
X137338404Y-61939934D01*
X137719357Y-61939934D01*
X137814595Y-61987554D01*
X137862214Y-62035173D01*
X137909833Y-62130411D01*
X137909833Y-62273268D01*
X137862214Y-62368506D01*
X137814595Y-62416125D01*
X137719357Y-62463744D01*
X137338404Y-62463744D01*
X138290785Y-62035173D02*
X138338404Y-61987554D01*
X138433642Y-61939934D01*
X138671738Y-61939934D01*
X138766976Y-61987554D01*
X138814595Y-62035173D01*
X138862214Y-62130411D01*
X138862214Y-62225649D01*
X138814595Y-62368506D01*
X138243166Y-62939934D01*
X138862214Y-62939934D01*
G04 #@! TO.C,R3*
X159492133Y-73925580D02*
X159158800Y-73449390D01*
X158920704Y-73925580D02*
X158920704Y-72925580D01*
X159301657Y-72925580D01*
X159396895Y-72973200D01*
X159444514Y-73020819D01*
X159492133Y-73116057D01*
X159492133Y-73258914D01*
X159444514Y-73354152D01*
X159396895Y-73401771D01*
X159301657Y-73449390D01*
X158920704Y-73449390D01*
X159825466Y-72925580D02*
X160444514Y-72925580D01*
X160111180Y-73306533D01*
X160254038Y-73306533D01*
X160349276Y-73354152D01*
X160396895Y-73401771D01*
X160444514Y-73497009D01*
X160444514Y-73735104D01*
X160396895Y-73830342D01*
X160349276Y-73877961D01*
X160254038Y-73925580D01*
X159968323Y-73925580D01*
X159873085Y-73877961D01*
X159825466Y-73830342D01*
X158873085Y-69618914D02*
X158873085Y-70285580D01*
X158634990Y-69237961D02*
X158396895Y-69952247D01*
X159015942Y-69952247D01*
X159396895Y-70285580D02*
X159396895Y-69285580D01*
X159968323Y-70285580D02*
X159539752Y-69714152D01*
X159968323Y-69285580D02*
X159396895Y-69857009D01*
X160301657Y-69285580D02*
X160968323Y-69285580D01*
X160539752Y-70285580D01*
G04 #@! TO.C,R4*
X159492133Y-68325980D02*
X159158800Y-67849790D01*
X158920704Y-68325980D02*
X158920704Y-67325980D01*
X159301657Y-67325980D01*
X159396895Y-67373600D01*
X159444514Y-67421219D01*
X159492133Y-67516457D01*
X159492133Y-67659314D01*
X159444514Y-67754552D01*
X159396895Y-67802171D01*
X159301657Y-67849790D01*
X158920704Y-67849790D01*
X160349276Y-67659314D02*
X160349276Y-68325980D01*
X160111180Y-67278361D02*
X159873085Y-67992647D01*
X160492133Y-67992647D01*
X158873085Y-64019314D02*
X158873085Y-64685980D01*
X158634990Y-63638361D02*
X158396895Y-64352647D01*
X159015942Y-64352647D01*
X159396895Y-64685980D02*
X159396895Y-63685980D01*
X159968323Y-64685980D02*
X159539752Y-64114552D01*
X159968323Y-63685980D02*
X159396895Y-64257409D01*
X160301657Y-63685980D02*
X160968323Y-63685980D01*
X160539752Y-64685980D01*
G04 #@! TD*
M02*
