M48
;DRILL file {KiCad 5.0.1-33cea8e~68~ubuntu18.04.1} date lun 12 nov 2018 21:08:05 CET
;FORMAT={-:-/ absolute / metric / decimal}
FMAT,2
METRIC,TZ
T1C0.400
T2C0.800
T3C1.000
T4C3.000
%
G90
G05
M71
T1
X139.5Y-71.134
X139.867Y-68.594
X140.058Y-74.969
X140.058Y-78.081
X140.617Y-62.536
X140.718Y-58.611
X143.779Y-78.081
X143.855Y-74.804
X143.868Y-58.599
X143.931Y-62.472
X145.404Y-69.813
T2
X134.716Y-52.4
X134.716Y-54.94
X134.716Y-57.48
X134.716Y-60.02
X134.716Y-62.56
X134.716Y-65.1
X134.716Y-67.64
X134.716Y-70.18
X134.716Y-72.72
X134.716Y-75.26
X134.716Y-77.8
X134.716Y-80.34
X134.716Y-82.88
X134.716Y-85.42
X134.716Y-87.96
X149.956Y-52.4
X149.956Y-54.94
X149.956Y-57.48
X149.956Y-60.02
X149.956Y-62.56
X149.956Y-65.1
X149.956Y-67.64
X149.956Y-70.18
X149.956Y-72.72
X149.956Y-75.26
X149.956Y-77.8
X149.956Y-80.34
X149.956Y-82.88
X149.956Y-85.42
X149.956Y-87.96
T3
X131.409Y-52.388
X131.409Y-54.928
X131.409Y-57.468
X131.409Y-60.008
X131.409Y-62.548
X131.409Y-65.088
X131.409Y-67.628
X131.409Y-70.168
X131.409Y-72.708
X131.409Y-75.248
X131.409Y-77.788
X131.409Y-80.328
X131.409Y-82.868
X131.409Y-85.408
X131.409Y-87.948
X153.583Y-52.388
X153.583Y-54.928
X153.583Y-57.468
X153.583Y-60.008
X153.583Y-62.548
X153.583Y-65.088
X153.583Y-67.628
X153.583Y-70.168
X153.583Y-72.708
X153.583Y-75.248
X153.583Y-77.788
X153.583Y-80.328
X153.583Y-82.868
X153.583Y-85.408
X153.583Y-87.948
T4
X126.6Y-53.6
X126.7Y-84.9
X158.Y-53.6
X158.Y-84.9
T0
M30
