G04 #@! TF.GenerationSoftware,KiCad,Pcbnew,5.0.1-33cea8e~68~ubuntu18.04.1*
G04 #@! TF.CreationDate,2018-11-12T21:08:02+01:00*
G04 #@! TF.ProjectId,ustepper_nano,75737465707065725F6E616E6F2E6B69,rev?*
G04 #@! TF.SameCoordinates,Original*
G04 #@! TF.FileFunction,Soldermask,Top*
G04 #@! TF.FilePolarity,Negative*
%FSLAX46Y46*%
G04 Gerber Fmt 4.6, Leading zero omitted, Abs format (unit mm)*
G04 Created by KiCad (PCBNEW 5.0.1-33cea8e~68~ubuntu18.04.1) date lun 12 nov 2018 21:08:02 CET*
%MOMM*%
%LPD*%
G01*
G04 APERTURE LIST*
%ADD10C,0.100000*%
G04 APERTURE END LIST*
D10*
G36*
X153711907Y-86905996D02*
X153789036Y-86913593D01*
X153920987Y-86953620D01*
X153986963Y-86973633D01*
X154169372Y-87071133D01*
X154329254Y-87202346D01*
X154460467Y-87362228D01*
X154557967Y-87544637D01*
X154557967Y-87544638D01*
X154618007Y-87742564D01*
X154638280Y-87948400D01*
X154618007Y-88154236D01*
X154577980Y-88286187D01*
X154557967Y-88352163D01*
X154460467Y-88534572D01*
X154329254Y-88694454D01*
X154169372Y-88825667D01*
X153986963Y-88923167D01*
X153920987Y-88943180D01*
X153789036Y-88983207D01*
X153711907Y-88990804D01*
X153634780Y-88998400D01*
X153531620Y-88998400D01*
X153454493Y-88990804D01*
X153377364Y-88983207D01*
X153245413Y-88943180D01*
X153179437Y-88923167D01*
X152997028Y-88825667D01*
X152837146Y-88694454D01*
X152705933Y-88534572D01*
X152608433Y-88352163D01*
X152588420Y-88286187D01*
X152548393Y-88154236D01*
X152528120Y-87948400D01*
X152548393Y-87742564D01*
X152608433Y-87544638D01*
X152608433Y-87544637D01*
X152705933Y-87362228D01*
X152837146Y-87202346D01*
X152997028Y-87071133D01*
X153179437Y-86973633D01*
X153245413Y-86953620D01*
X153377364Y-86913593D01*
X153454493Y-86905996D01*
X153531620Y-86898400D01*
X153634780Y-86898400D01*
X153711907Y-86905996D01*
X153711907Y-86905996D01*
G37*
G36*
X131537707Y-86905996D02*
X131614836Y-86913593D01*
X131746787Y-86953620D01*
X131812763Y-86973633D01*
X131995172Y-87071133D01*
X132155054Y-87202346D01*
X132286267Y-87362228D01*
X132383767Y-87544637D01*
X132383767Y-87544638D01*
X132443807Y-87742564D01*
X132464080Y-87948400D01*
X132443807Y-88154236D01*
X132403780Y-88286187D01*
X132383767Y-88352163D01*
X132286267Y-88534572D01*
X132155054Y-88694454D01*
X131995172Y-88825667D01*
X131812763Y-88923167D01*
X131746787Y-88943180D01*
X131614836Y-88983207D01*
X131537707Y-88990804D01*
X131460580Y-88998400D01*
X131357420Y-88998400D01*
X131280293Y-88990804D01*
X131203164Y-88983207D01*
X131071213Y-88943180D01*
X131005237Y-88923167D01*
X130822828Y-88825667D01*
X130662946Y-88694454D01*
X130531733Y-88534572D01*
X130434233Y-88352163D01*
X130414220Y-88286187D01*
X130374193Y-88154236D01*
X130353920Y-87948400D01*
X130374193Y-87742564D01*
X130434233Y-87544638D01*
X130434233Y-87544637D01*
X130531733Y-87362228D01*
X130662946Y-87202346D01*
X130822828Y-87071133D01*
X131005237Y-86973633D01*
X131071213Y-86953620D01*
X131203164Y-86913593D01*
X131280293Y-86905996D01*
X131357420Y-86898400D01*
X131460580Y-86898400D01*
X131537707Y-86905996D01*
X131537707Y-86905996D01*
G37*
G36*
X150152030Y-86974469D02*
X150152033Y-86974470D01*
X150152034Y-86974470D01*
X150340535Y-87031651D01*
X150340537Y-87031652D01*
X150514260Y-87124509D01*
X150666528Y-87249472D01*
X150791491Y-87401740D01*
X150884348Y-87575463D01*
X150941531Y-87763970D01*
X150960838Y-87960000D01*
X150941531Y-88156030D01*
X150884348Y-88344537D01*
X150791491Y-88518260D01*
X150666528Y-88670528D01*
X150514260Y-88795491D01*
X150514258Y-88795492D01*
X150340535Y-88888349D01*
X150152034Y-88945530D01*
X150152033Y-88945530D01*
X150152030Y-88945531D01*
X150005124Y-88960000D01*
X149906876Y-88960000D01*
X149759970Y-88945531D01*
X149759967Y-88945530D01*
X149759966Y-88945530D01*
X149571465Y-88888349D01*
X149397742Y-88795492D01*
X149397740Y-88795491D01*
X149245472Y-88670528D01*
X149120509Y-88518260D01*
X149027652Y-88344537D01*
X148970469Y-88156030D01*
X148951162Y-87960000D01*
X148970469Y-87763970D01*
X149027652Y-87575463D01*
X149120509Y-87401740D01*
X149245472Y-87249472D01*
X149397740Y-87124509D01*
X149571463Y-87031652D01*
X149571465Y-87031651D01*
X149759966Y-86974470D01*
X149759967Y-86974470D01*
X149759970Y-86974469D01*
X149906876Y-86960000D01*
X150005124Y-86960000D01*
X150152030Y-86974469D01*
X150152030Y-86974469D01*
G37*
G36*
X134912030Y-86974469D02*
X134912033Y-86974470D01*
X134912034Y-86974470D01*
X135100535Y-87031651D01*
X135100537Y-87031652D01*
X135274260Y-87124509D01*
X135426528Y-87249472D01*
X135551491Y-87401740D01*
X135644348Y-87575463D01*
X135701531Y-87763970D01*
X135720838Y-87960000D01*
X135701531Y-88156030D01*
X135644348Y-88344537D01*
X135551491Y-88518260D01*
X135426528Y-88670528D01*
X135274260Y-88795491D01*
X135274258Y-88795492D01*
X135100535Y-88888349D01*
X134912034Y-88945530D01*
X134912033Y-88945530D01*
X134912030Y-88945531D01*
X134765124Y-88960000D01*
X134666876Y-88960000D01*
X134519970Y-88945531D01*
X134519967Y-88945530D01*
X134519966Y-88945530D01*
X134331465Y-88888349D01*
X134157742Y-88795492D01*
X134157740Y-88795491D01*
X134005472Y-88670528D01*
X133880509Y-88518260D01*
X133787652Y-88344537D01*
X133730469Y-88156030D01*
X133711162Y-87960000D01*
X133730469Y-87763970D01*
X133787652Y-87575463D01*
X133880509Y-87401740D01*
X134005472Y-87249472D01*
X134157740Y-87124509D01*
X134331463Y-87031652D01*
X134331465Y-87031651D01*
X134519966Y-86974470D01*
X134519967Y-86974470D01*
X134519970Y-86974469D01*
X134666876Y-86960000D01*
X134765124Y-86960000D01*
X134912030Y-86974469D01*
X134912030Y-86974469D01*
G37*
G36*
X153711907Y-84365996D02*
X153789036Y-84373593D01*
X153920987Y-84413620D01*
X153986963Y-84433633D01*
X154169372Y-84531133D01*
X154329254Y-84662346D01*
X154460467Y-84822228D01*
X154557967Y-85004637D01*
X154557967Y-85004638D01*
X154618007Y-85202564D01*
X154638280Y-85408400D01*
X154618007Y-85614236D01*
X154577980Y-85746187D01*
X154557967Y-85812163D01*
X154460467Y-85994572D01*
X154329254Y-86154454D01*
X154169372Y-86285667D01*
X153986963Y-86383167D01*
X153920987Y-86403180D01*
X153789036Y-86443207D01*
X153711907Y-86450804D01*
X153634780Y-86458400D01*
X153531620Y-86458400D01*
X153454493Y-86450804D01*
X153377364Y-86443207D01*
X153245413Y-86403180D01*
X153179437Y-86383167D01*
X152997028Y-86285667D01*
X152837146Y-86154454D01*
X152705933Y-85994572D01*
X152608433Y-85812163D01*
X152588420Y-85746187D01*
X152548393Y-85614236D01*
X152528120Y-85408400D01*
X152548393Y-85202564D01*
X152608433Y-85004638D01*
X152608433Y-85004637D01*
X152705933Y-84822228D01*
X152837146Y-84662346D01*
X152997028Y-84531133D01*
X153179437Y-84433633D01*
X153245413Y-84413620D01*
X153377364Y-84373593D01*
X153454493Y-84365996D01*
X153531620Y-84358400D01*
X153634780Y-84358400D01*
X153711907Y-84365996D01*
X153711907Y-84365996D01*
G37*
G36*
X131537707Y-84365996D02*
X131614836Y-84373593D01*
X131746787Y-84413620D01*
X131812763Y-84433633D01*
X131995172Y-84531133D01*
X132155054Y-84662346D01*
X132286267Y-84822228D01*
X132383767Y-85004637D01*
X132383767Y-85004638D01*
X132443807Y-85202564D01*
X132464080Y-85408400D01*
X132443807Y-85614236D01*
X132403780Y-85746187D01*
X132383767Y-85812163D01*
X132286267Y-85994572D01*
X132155054Y-86154454D01*
X131995172Y-86285667D01*
X131812763Y-86383167D01*
X131746787Y-86403180D01*
X131614836Y-86443207D01*
X131537707Y-86450804D01*
X131460580Y-86458400D01*
X131357420Y-86458400D01*
X131280293Y-86450804D01*
X131203164Y-86443207D01*
X131071213Y-86403180D01*
X131005237Y-86383167D01*
X130822828Y-86285667D01*
X130662946Y-86154454D01*
X130531733Y-85994572D01*
X130434233Y-85812163D01*
X130414220Y-85746187D01*
X130374193Y-85614236D01*
X130353920Y-85408400D01*
X130374193Y-85202564D01*
X130434233Y-85004638D01*
X130434233Y-85004637D01*
X130531733Y-84822228D01*
X130662946Y-84662346D01*
X130822828Y-84531133D01*
X131005237Y-84433633D01*
X131071213Y-84413620D01*
X131203164Y-84373593D01*
X131280293Y-84365996D01*
X131357420Y-84358400D01*
X131460580Y-84358400D01*
X131537707Y-84365996D01*
X131537707Y-84365996D01*
G37*
G36*
X150152030Y-84434469D02*
X150152033Y-84434470D01*
X150152034Y-84434470D01*
X150340535Y-84491651D01*
X150340537Y-84491652D01*
X150514260Y-84584509D01*
X150666528Y-84709472D01*
X150791491Y-84861740D01*
X150884348Y-85035463D01*
X150941531Y-85223970D01*
X150960838Y-85420000D01*
X150941531Y-85616030D01*
X150884348Y-85804537D01*
X150791491Y-85978260D01*
X150666528Y-86130528D01*
X150514260Y-86255491D01*
X150514258Y-86255492D01*
X150340535Y-86348349D01*
X150152034Y-86405530D01*
X150152033Y-86405530D01*
X150152030Y-86405531D01*
X150005124Y-86420000D01*
X149906876Y-86420000D01*
X149759970Y-86405531D01*
X149759967Y-86405530D01*
X149759966Y-86405530D01*
X149571465Y-86348349D01*
X149397742Y-86255492D01*
X149397740Y-86255491D01*
X149245472Y-86130528D01*
X149120509Y-85978260D01*
X149027652Y-85804537D01*
X148970469Y-85616030D01*
X148951162Y-85420000D01*
X148970469Y-85223970D01*
X149027652Y-85035463D01*
X149120509Y-84861740D01*
X149245472Y-84709472D01*
X149397740Y-84584509D01*
X149571463Y-84491652D01*
X149571465Y-84491651D01*
X149759966Y-84434470D01*
X149759967Y-84434470D01*
X149759970Y-84434469D01*
X149906876Y-84420000D01*
X150005124Y-84420000D01*
X150152030Y-84434469D01*
X150152030Y-84434469D01*
G37*
G36*
X134912030Y-84434469D02*
X134912033Y-84434470D01*
X134912034Y-84434470D01*
X135100535Y-84491651D01*
X135100537Y-84491652D01*
X135274260Y-84584509D01*
X135426528Y-84709472D01*
X135551491Y-84861740D01*
X135644348Y-85035463D01*
X135701531Y-85223970D01*
X135720838Y-85420000D01*
X135701531Y-85616030D01*
X135644348Y-85804537D01*
X135551491Y-85978260D01*
X135426528Y-86130528D01*
X135274260Y-86255491D01*
X135274258Y-86255492D01*
X135100535Y-86348349D01*
X134912034Y-86405530D01*
X134912033Y-86405530D01*
X134912030Y-86405531D01*
X134765124Y-86420000D01*
X134666876Y-86420000D01*
X134519970Y-86405531D01*
X134519967Y-86405530D01*
X134519966Y-86405530D01*
X134331465Y-86348349D01*
X134157742Y-86255492D01*
X134157740Y-86255491D01*
X134005472Y-86130528D01*
X133880509Y-85978260D01*
X133787652Y-85804537D01*
X133730469Y-85616030D01*
X133711162Y-85420000D01*
X133730469Y-85223970D01*
X133787652Y-85035463D01*
X133880509Y-84861740D01*
X134005472Y-84709472D01*
X134157740Y-84584509D01*
X134331463Y-84491652D01*
X134331465Y-84491651D01*
X134519966Y-84434470D01*
X134519967Y-84434470D01*
X134519970Y-84434469D01*
X134666876Y-84420000D01*
X134765124Y-84420000D01*
X134912030Y-84434469D01*
X134912030Y-84434469D01*
G37*
G36*
X131537707Y-81825996D02*
X131614836Y-81833593D01*
X131746787Y-81873620D01*
X131812763Y-81893633D01*
X131995172Y-81991133D01*
X132155054Y-82122346D01*
X132286267Y-82282228D01*
X132383767Y-82464637D01*
X132383767Y-82464638D01*
X132443807Y-82662564D01*
X132464080Y-82868400D01*
X132443807Y-83074236D01*
X132403780Y-83206187D01*
X132383767Y-83272163D01*
X132286267Y-83454572D01*
X132155054Y-83614454D01*
X131995172Y-83745667D01*
X131812763Y-83843167D01*
X131746787Y-83863180D01*
X131614836Y-83903207D01*
X131537707Y-83910803D01*
X131460580Y-83918400D01*
X131357420Y-83918400D01*
X131280293Y-83910803D01*
X131203164Y-83903207D01*
X131071213Y-83863180D01*
X131005237Y-83843167D01*
X130822828Y-83745667D01*
X130662946Y-83614454D01*
X130531733Y-83454572D01*
X130434233Y-83272163D01*
X130414220Y-83206187D01*
X130374193Y-83074236D01*
X130353920Y-82868400D01*
X130374193Y-82662564D01*
X130434233Y-82464638D01*
X130434233Y-82464637D01*
X130531733Y-82282228D01*
X130662946Y-82122346D01*
X130822828Y-81991133D01*
X131005237Y-81893633D01*
X131071213Y-81873620D01*
X131203164Y-81833593D01*
X131280293Y-81825996D01*
X131357420Y-81818400D01*
X131460580Y-81818400D01*
X131537707Y-81825996D01*
X131537707Y-81825996D01*
G37*
G36*
X153711907Y-81825996D02*
X153789036Y-81833593D01*
X153920987Y-81873620D01*
X153986963Y-81893633D01*
X154169372Y-81991133D01*
X154329254Y-82122346D01*
X154460467Y-82282228D01*
X154557967Y-82464637D01*
X154557967Y-82464638D01*
X154618007Y-82662564D01*
X154638280Y-82868400D01*
X154618007Y-83074236D01*
X154577980Y-83206187D01*
X154557967Y-83272163D01*
X154460467Y-83454572D01*
X154329254Y-83614454D01*
X154169372Y-83745667D01*
X153986963Y-83843167D01*
X153920987Y-83863180D01*
X153789036Y-83903207D01*
X153711907Y-83910803D01*
X153634780Y-83918400D01*
X153531620Y-83918400D01*
X153454493Y-83910803D01*
X153377364Y-83903207D01*
X153245413Y-83863180D01*
X153179437Y-83843167D01*
X152997028Y-83745667D01*
X152837146Y-83614454D01*
X152705933Y-83454572D01*
X152608433Y-83272163D01*
X152588420Y-83206187D01*
X152548393Y-83074236D01*
X152528120Y-82868400D01*
X152548393Y-82662564D01*
X152608433Y-82464638D01*
X152608433Y-82464637D01*
X152705933Y-82282228D01*
X152837146Y-82122346D01*
X152997028Y-81991133D01*
X153179437Y-81893633D01*
X153245413Y-81873620D01*
X153377364Y-81833593D01*
X153454493Y-81825996D01*
X153531620Y-81818400D01*
X153634780Y-81818400D01*
X153711907Y-81825996D01*
X153711907Y-81825996D01*
G37*
G36*
X150152030Y-81894469D02*
X150152033Y-81894470D01*
X150152034Y-81894470D01*
X150340535Y-81951651D01*
X150340537Y-81951652D01*
X150514260Y-82044509D01*
X150666528Y-82169472D01*
X150791491Y-82321740D01*
X150884348Y-82495463D01*
X150941531Y-82683970D01*
X150960838Y-82880000D01*
X150941531Y-83076030D01*
X150884348Y-83264537D01*
X150791491Y-83438260D01*
X150666528Y-83590528D01*
X150514260Y-83715491D01*
X150514258Y-83715492D01*
X150340535Y-83808349D01*
X150152034Y-83865530D01*
X150152033Y-83865530D01*
X150152030Y-83865531D01*
X150005124Y-83880000D01*
X149906876Y-83880000D01*
X149759970Y-83865531D01*
X149759967Y-83865530D01*
X149759966Y-83865530D01*
X149571465Y-83808349D01*
X149397742Y-83715492D01*
X149397740Y-83715491D01*
X149245472Y-83590528D01*
X149120509Y-83438260D01*
X149027652Y-83264537D01*
X148970469Y-83076030D01*
X148951162Y-82880000D01*
X148970469Y-82683970D01*
X149027652Y-82495463D01*
X149120509Y-82321740D01*
X149245472Y-82169472D01*
X149397740Y-82044509D01*
X149571463Y-81951652D01*
X149571465Y-81951651D01*
X149759966Y-81894470D01*
X149759967Y-81894470D01*
X149759970Y-81894469D01*
X149906876Y-81880000D01*
X150005124Y-81880000D01*
X150152030Y-81894469D01*
X150152030Y-81894469D01*
G37*
G36*
X134912030Y-81894469D02*
X134912033Y-81894470D01*
X134912034Y-81894470D01*
X135100535Y-81951651D01*
X135100537Y-81951652D01*
X135274260Y-82044509D01*
X135426528Y-82169472D01*
X135551491Y-82321740D01*
X135644348Y-82495463D01*
X135701531Y-82683970D01*
X135720838Y-82880000D01*
X135701531Y-83076030D01*
X135644348Y-83264537D01*
X135551491Y-83438260D01*
X135426528Y-83590528D01*
X135274260Y-83715491D01*
X135274258Y-83715492D01*
X135100535Y-83808349D01*
X134912034Y-83865530D01*
X134912033Y-83865530D01*
X134912030Y-83865531D01*
X134765124Y-83880000D01*
X134666876Y-83880000D01*
X134519970Y-83865531D01*
X134519967Y-83865530D01*
X134519966Y-83865530D01*
X134331465Y-83808349D01*
X134157742Y-83715492D01*
X134157740Y-83715491D01*
X134005472Y-83590528D01*
X133880509Y-83438260D01*
X133787652Y-83264537D01*
X133730469Y-83076030D01*
X133711162Y-82880000D01*
X133730469Y-82683970D01*
X133787652Y-82495463D01*
X133880509Y-82321740D01*
X134005472Y-82169472D01*
X134157740Y-82044509D01*
X134331463Y-81951652D01*
X134331465Y-81951651D01*
X134519966Y-81894470D01*
X134519967Y-81894470D01*
X134519970Y-81894469D01*
X134666876Y-81880000D01*
X134765124Y-81880000D01*
X134912030Y-81894469D01*
X134912030Y-81894469D01*
G37*
G36*
X153711907Y-79285996D02*
X153789036Y-79293593D01*
X153920987Y-79333620D01*
X153986963Y-79353633D01*
X154169372Y-79451133D01*
X154329254Y-79582346D01*
X154460467Y-79742228D01*
X154557967Y-79924637D01*
X154557967Y-79924638D01*
X154618007Y-80122564D01*
X154638280Y-80328400D01*
X154618007Y-80534236D01*
X154577980Y-80666187D01*
X154557967Y-80732163D01*
X154460467Y-80914572D01*
X154329254Y-81074454D01*
X154169372Y-81205667D01*
X153986963Y-81303167D01*
X153920987Y-81323180D01*
X153789036Y-81363207D01*
X153711907Y-81370803D01*
X153634780Y-81378400D01*
X153531620Y-81378400D01*
X153454493Y-81370803D01*
X153377364Y-81363207D01*
X153245413Y-81323180D01*
X153179437Y-81303167D01*
X152997028Y-81205667D01*
X152837146Y-81074454D01*
X152705933Y-80914572D01*
X152608433Y-80732163D01*
X152588420Y-80666187D01*
X152548393Y-80534236D01*
X152528120Y-80328400D01*
X152548393Y-80122564D01*
X152608433Y-79924638D01*
X152608433Y-79924637D01*
X152705933Y-79742228D01*
X152837146Y-79582346D01*
X152997028Y-79451133D01*
X153179437Y-79353633D01*
X153245413Y-79333620D01*
X153377364Y-79293593D01*
X153454493Y-79285996D01*
X153531620Y-79278400D01*
X153634780Y-79278400D01*
X153711907Y-79285996D01*
X153711907Y-79285996D01*
G37*
G36*
X131537707Y-79285996D02*
X131614836Y-79293593D01*
X131746787Y-79333620D01*
X131812763Y-79353633D01*
X131995172Y-79451133D01*
X132155054Y-79582346D01*
X132286267Y-79742228D01*
X132383767Y-79924637D01*
X132383767Y-79924638D01*
X132443807Y-80122564D01*
X132464080Y-80328400D01*
X132443807Y-80534236D01*
X132403780Y-80666187D01*
X132383767Y-80732163D01*
X132286267Y-80914572D01*
X132155054Y-81074454D01*
X131995172Y-81205667D01*
X131812763Y-81303167D01*
X131746787Y-81323180D01*
X131614836Y-81363207D01*
X131537707Y-81370803D01*
X131460580Y-81378400D01*
X131357420Y-81378400D01*
X131280293Y-81370803D01*
X131203164Y-81363207D01*
X131071213Y-81323180D01*
X131005237Y-81303167D01*
X130822828Y-81205667D01*
X130662946Y-81074454D01*
X130531733Y-80914572D01*
X130434233Y-80732163D01*
X130414220Y-80666187D01*
X130374193Y-80534236D01*
X130353920Y-80328400D01*
X130374193Y-80122564D01*
X130434233Y-79924638D01*
X130434233Y-79924637D01*
X130531733Y-79742228D01*
X130662946Y-79582346D01*
X130822828Y-79451133D01*
X131005237Y-79353633D01*
X131071213Y-79333620D01*
X131203164Y-79293593D01*
X131280293Y-79285996D01*
X131357420Y-79278400D01*
X131460580Y-79278400D01*
X131537707Y-79285996D01*
X131537707Y-79285996D01*
G37*
G36*
X150152030Y-79354469D02*
X150152033Y-79354470D01*
X150152034Y-79354470D01*
X150340535Y-79411651D01*
X150340537Y-79411652D01*
X150514260Y-79504509D01*
X150666528Y-79629472D01*
X150791491Y-79781740D01*
X150884348Y-79955463D01*
X150941531Y-80143970D01*
X150960838Y-80340000D01*
X150941531Y-80536030D01*
X150884348Y-80724537D01*
X150791491Y-80898260D01*
X150666528Y-81050528D01*
X150514260Y-81175491D01*
X150514258Y-81175492D01*
X150340535Y-81268349D01*
X150152034Y-81325530D01*
X150152033Y-81325530D01*
X150152030Y-81325531D01*
X150005124Y-81340000D01*
X149906876Y-81340000D01*
X149759970Y-81325531D01*
X149759967Y-81325530D01*
X149759966Y-81325530D01*
X149571465Y-81268349D01*
X149397742Y-81175492D01*
X149397740Y-81175491D01*
X149245472Y-81050528D01*
X149120509Y-80898260D01*
X149027652Y-80724537D01*
X148970469Y-80536030D01*
X148951162Y-80340000D01*
X148970469Y-80143970D01*
X149027652Y-79955463D01*
X149120509Y-79781740D01*
X149245472Y-79629472D01*
X149397740Y-79504509D01*
X149571463Y-79411652D01*
X149571465Y-79411651D01*
X149759966Y-79354470D01*
X149759967Y-79354470D01*
X149759970Y-79354469D01*
X149906876Y-79340000D01*
X150005124Y-79340000D01*
X150152030Y-79354469D01*
X150152030Y-79354469D01*
G37*
G36*
X134912030Y-79354469D02*
X134912033Y-79354470D01*
X134912034Y-79354470D01*
X135100535Y-79411651D01*
X135100537Y-79411652D01*
X135274260Y-79504509D01*
X135426528Y-79629472D01*
X135551491Y-79781740D01*
X135644348Y-79955463D01*
X135701531Y-80143970D01*
X135720838Y-80340000D01*
X135701531Y-80536030D01*
X135644348Y-80724537D01*
X135551491Y-80898260D01*
X135426528Y-81050528D01*
X135274260Y-81175491D01*
X135274258Y-81175492D01*
X135100535Y-81268349D01*
X134912034Y-81325530D01*
X134912033Y-81325530D01*
X134912030Y-81325531D01*
X134765124Y-81340000D01*
X134666876Y-81340000D01*
X134519970Y-81325531D01*
X134519967Y-81325530D01*
X134519966Y-81325530D01*
X134331465Y-81268349D01*
X134157742Y-81175492D01*
X134157740Y-81175491D01*
X134005472Y-81050528D01*
X133880509Y-80898260D01*
X133787652Y-80724537D01*
X133730469Y-80536030D01*
X133711162Y-80340000D01*
X133730469Y-80143970D01*
X133787652Y-79955463D01*
X133880509Y-79781740D01*
X134005472Y-79629472D01*
X134157740Y-79504509D01*
X134331463Y-79411652D01*
X134331465Y-79411651D01*
X134519966Y-79354470D01*
X134519967Y-79354470D01*
X134519970Y-79354469D01*
X134666876Y-79340000D01*
X134765124Y-79340000D01*
X134912030Y-79354469D01*
X134912030Y-79354469D01*
G37*
G36*
X141092582Y-77174786D02*
X141137304Y-77188353D01*
X141178533Y-77210390D01*
X141214661Y-77240039D01*
X141244310Y-77276167D01*
X141266347Y-77317396D01*
X141279914Y-77362118D01*
X141285100Y-77414775D01*
X141285100Y-78749425D01*
X141279914Y-78802082D01*
X141266347Y-78846804D01*
X141244310Y-78888033D01*
X141214661Y-78924161D01*
X141178533Y-78953810D01*
X141137304Y-78975847D01*
X141092582Y-78989414D01*
X141039925Y-78994600D01*
X139380275Y-78994600D01*
X139327618Y-78989414D01*
X139282896Y-78975847D01*
X139241667Y-78953810D01*
X139205539Y-78924161D01*
X139175890Y-78888033D01*
X139153853Y-78846804D01*
X139140286Y-78802082D01*
X139135100Y-78749425D01*
X139135100Y-77414775D01*
X139140286Y-77362118D01*
X139153853Y-77317396D01*
X139175890Y-77276167D01*
X139205539Y-77240039D01*
X139241667Y-77210390D01*
X139282896Y-77188353D01*
X139327618Y-77174786D01*
X139380275Y-77169600D01*
X141039925Y-77169600D01*
X141092582Y-77174786D01*
X141092582Y-77174786D01*
G37*
G36*
X144750182Y-77174786D02*
X144794904Y-77188353D01*
X144836133Y-77210390D01*
X144872261Y-77240039D01*
X144901910Y-77276167D01*
X144923947Y-77317396D01*
X144937514Y-77362118D01*
X144942700Y-77414775D01*
X144942700Y-78749425D01*
X144937514Y-78802082D01*
X144923947Y-78846804D01*
X144901910Y-78888033D01*
X144872261Y-78924161D01*
X144836133Y-78953810D01*
X144794904Y-78975847D01*
X144750182Y-78989414D01*
X144697525Y-78994600D01*
X143037875Y-78994600D01*
X142985218Y-78989414D01*
X142940496Y-78975847D01*
X142899267Y-78953810D01*
X142863139Y-78924161D01*
X142833490Y-78888033D01*
X142811453Y-78846804D01*
X142797886Y-78802082D01*
X142792700Y-78749425D01*
X142792700Y-77414775D01*
X142797886Y-77362118D01*
X142811453Y-77317396D01*
X142833490Y-77276167D01*
X142863139Y-77240039D01*
X142899267Y-77210390D01*
X142940496Y-77188353D01*
X142985218Y-77174786D01*
X143037875Y-77169600D01*
X144697525Y-77169600D01*
X144750182Y-77174786D01*
X144750182Y-77174786D01*
G37*
G36*
X153711907Y-76745996D02*
X153789036Y-76753593D01*
X153920987Y-76793620D01*
X153986963Y-76813633D01*
X154169372Y-76911133D01*
X154329254Y-77042346D01*
X154460467Y-77202228D01*
X154557967Y-77384637D01*
X154557967Y-77384638D01*
X154618007Y-77582564D01*
X154638280Y-77788400D01*
X154618007Y-77994236D01*
X154577980Y-78126187D01*
X154557967Y-78192163D01*
X154460467Y-78374572D01*
X154329254Y-78534454D01*
X154169372Y-78665667D01*
X153986963Y-78763167D01*
X153920987Y-78783180D01*
X153789036Y-78823207D01*
X153711907Y-78830803D01*
X153634780Y-78838400D01*
X153531620Y-78838400D01*
X153454493Y-78830803D01*
X153377364Y-78823207D01*
X153245413Y-78783180D01*
X153179437Y-78763167D01*
X152997028Y-78665667D01*
X152837146Y-78534454D01*
X152705933Y-78374572D01*
X152608433Y-78192163D01*
X152588420Y-78126187D01*
X152548393Y-77994236D01*
X152528120Y-77788400D01*
X152548393Y-77582564D01*
X152608433Y-77384638D01*
X152608433Y-77384637D01*
X152705933Y-77202228D01*
X152837146Y-77042346D01*
X152997028Y-76911133D01*
X153179437Y-76813633D01*
X153245413Y-76793620D01*
X153377364Y-76753593D01*
X153454493Y-76745996D01*
X153531620Y-76738400D01*
X153634780Y-76738400D01*
X153711907Y-76745996D01*
X153711907Y-76745996D01*
G37*
G36*
X131537707Y-76745996D02*
X131614836Y-76753593D01*
X131746787Y-76793620D01*
X131812763Y-76813633D01*
X131995172Y-76911133D01*
X132155054Y-77042346D01*
X132286267Y-77202228D01*
X132383767Y-77384637D01*
X132383767Y-77384638D01*
X132443807Y-77582564D01*
X132464080Y-77788400D01*
X132443807Y-77994236D01*
X132403780Y-78126187D01*
X132383767Y-78192163D01*
X132286267Y-78374572D01*
X132155054Y-78534454D01*
X131995172Y-78665667D01*
X131812763Y-78763167D01*
X131746787Y-78783180D01*
X131614836Y-78823207D01*
X131537707Y-78830803D01*
X131460580Y-78838400D01*
X131357420Y-78838400D01*
X131280293Y-78830803D01*
X131203164Y-78823207D01*
X131071213Y-78783180D01*
X131005237Y-78763167D01*
X130822828Y-78665667D01*
X130662946Y-78534454D01*
X130531733Y-78374572D01*
X130434233Y-78192163D01*
X130414220Y-78126187D01*
X130374193Y-77994236D01*
X130353920Y-77788400D01*
X130374193Y-77582564D01*
X130434233Y-77384638D01*
X130434233Y-77384637D01*
X130531733Y-77202228D01*
X130662946Y-77042346D01*
X130822828Y-76911133D01*
X131005237Y-76813633D01*
X131071213Y-76793620D01*
X131203164Y-76753593D01*
X131280293Y-76745996D01*
X131357420Y-76738400D01*
X131460580Y-76738400D01*
X131537707Y-76745996D01*
X131537707Y-76745996D01*
G37*
G36*
X150152030Y-76814469D02*
X150152033Y-76814470D01*
X150152034Y-76814470D01*
X150340535Y-76871651D01*
X150340537Y-76871652D01*
X150514260Y-76964509D01*
X150666528Y-77089472D01*
X150791491Y-77241740D01*
X150884348Y-77415463D01*
X150941531Y-77603970D01*
X150960838Y-77800000D01*
X150941531Y-77996030D01*
X150884348Y-78184537D01*
X150791491Y-78358260D01*
X150666528Y-78510528D01*
X150514260Y-78635491D01*
X150340537Y-78728348D01*
X150340535Y-78728349D01*
X150152034Y-78785530D01*
X150152033Y-78785530D01*
X150152030Y-78785531D01*
X150005124Y-78800000D01*
X149906876Y-78800000D01*
X149759970Y-78785531D01*
X149759967Y-78785530D01*
X149759966Y-78785530D01*
X149571465Y-78728349D01*
X149571463Y-78728348D01*
X149397740Y-78635491D01*
X149245472Y-78510528D01*
X149120509Y-78358260D01*
X149027652Y-78184537D01*
X148970469Y-77996030D01*
X148951162Y-77800000D01*
X148970469Y-77603970D01*
X149027652Y-77415463D01*
X149120509Y-77241740D01*
X149245472Y-77089472D01*
X149397740Y-76964509D01*
X149571463Y-76871652D01*
X149571465Y-76871651D01*
X149759966Y-76814470D01*
X149759967Y-76814470D01*
X149759970Y-76814469D01*
X149906876Y-76800000D01*
X150005124Y-76800000D01*
X150152030Y-76814469D01*
X150152030Y-76814469D01*
G37*
G36*
X134912030Y-76814469D02*
X134912033Y-76814470D01*
X134912034Y-76814470D01*
X135100535Y-76871651D01*
X135100537Y-76871652D01*
X135274260Y-76964509D01*
X135426528Y-77089472D01*
X135551491Y-77241740D01*
X135644348Y-77415463D01*
X135701531Y-77603970D01*
X135720838Y-77800000D01*
X135701531Y-77996030D01*
X135644348Y-78184537D01*
X135551491Y-78358260D01*
X135426528Y-78510528D01*
X135274260Y-78635491D01*
X135100537Y-78728348D01*
X135100535Y-78728349D01*
X134912034Y-78785530D01*
X134912033Y-78785530D01*
X134912030Y-78785531D01*
X134765124Y-78800000D01*
X134666876Y-78800000D01*
X134519970Y-78785531D01*
X134519967Y-78785530D01*
X134519966Y-78785530D01*
X134331465Y-78728349D01*
X134331463Y-78728348D01*
X134157740Y-78635491D01*
X134005472Y-78510528D01*
X133880509Y-78358260D01*
X133787652Y-78184537D01*
X133730469Y-77996030D01*
X133711162Y-77800000D01*
X133730469Y-77603970D01*
X133787652Y-77415463D01*
X133880509Y-77241740D01*
X134005472Y-77089472D01*
X134157740Y-76964509D01*
X134331463Y-76871652D01*
X134331465Y-76871651D01*
X134519966Y-76814470D01*
X134519967Y-76814470D01*
X134519970Y-76814469D01*
X134666876Y-76800000D01*
X134765124Y-76800000D01*
X134912030Y-76814469D01*
X134912030Y-76814469D01*
G37*
G36*
X131537707Y-74205997D02*
X131614836Y-74213593D01*
X131730104Y-74248559D01*
X131812763Y-74273633D01*
X131995172Y-74371133D01*
X132155054Y-74502346D01*
X132286267Y-74662228D01*
X132383767Y-74844637D01*
X132383767Y-74844638D01*
X132443807Y-75042564D01*
X132464080Y-75248400D01*
X132443807Y-75454236D01*
X132403780Y-75586187D01*
X132383767Y-75652163D01*
X132286267Y-75834572D01*
X132155054Y-75994454D01*
X131995172Y-76125667D01*
X131812763Y-76223167D01*
X131746787Y-76243180D01*
X131614836Y-76283207D01*
X131537707Y-76290803D01*
X131460580Y-76298400D01*
X131357420Y-76298400D01*
X131280293Y-76290803D01*
X131203164Y-76283207D01*
X131071213Y-76243180D01*
X131005237Y-76223167D01*
X130822828Y-76125667D01*
X130662946Y-75994454D01*
X130531733Y-75834572D01*
X130434233Y-75652163D01*
X130414220Y-75586187D01*
X130374193Y-75454236D01*
X130353920Y-75248400D01*
X130374193Y-75042564D01*
X130434233Y-74844638D01*
X130434233Y-74844637D01*
X130531733Y-74662228D01*
X130662946Y-74502346D01*
X130822828Y-74371133D01*
X131005237Y-74273633D01*
X131087896Y-74248559D01*
X131203164Y-74213593D01*
X131280293Y-74205997D01*
X131357420Y-74198400D01*
X131460580Y-74198400D01*
X131537707Y-74205997D01*
X131537707Y-74205997D01*
G37*
G36*
X153711907Y-74205997D02*
X153789036Y-74213593D01*
X153904304Y-74248559D01*
X153986963Y-74273633D01*
X154169372Y-74371133D01*
X154329254Y-74502346D01*
X154460467Y-74662228D01*
X154557967Y-74844637D01*
X154557967Y-74844638D01*
X154618007Y-75042564D01*
X154638280Y-75248400D01*
X154618007Y-75454236D01*
X154577980Y-75586187D01*
X154557967Y-75652163D01*
X154460467Y-75834572D01*
X154329254Y-75994454D01*
X154169372Y-76125667D01*
X153986963Y-76223167D01*
X153920987Y-76243180D01*
X153789036Y-76283207D01*
X153711907Y-76290803D01*
X153634780Y-76298400D01*
X153531620Y-76298400D01*
X153454493Y-76290803D01*
X153377364Y-76283207D01*
X153245413Y-76243180D01*
X153179437Y-76223167D01*
X152997028Y-76125667D01*
X152837146Y-75994454D01*
X152705933Y-75834572D01*
X152608433Y-75652163D01*
X152588420Y-75586187D01*
X152548393Y-75454236D01*
X152528120Y-75248400D01*
X152548393Y-75042564D01*
X152608433Y-74844638D01*
X152608433Y-74844637D01*
X152705933Y-74662228D01*
X152837146Y-74502346D01*
X152997028Y-74371133D01*
X153179437Y-74273633D01*
X153262096Y-74248559D01*
X153377364Y-74213593D01*
X153454493Y-74205997D01*
X153531620Y-74198400D01*
X153634780Y-74198400D01*
X153711907Y-74205997D01*
X153711907Y-74205997D01*
G37*
G36*
X150152030Y-74274469D02*
X150152033Y-74274470D01*
X150152034Y-74274470D01*
X150340535Y-74331651D01*
X150340537Y-74331652D01*
X150514260Y-74424509D01*
X150666528Y-74549472D01*
X150791491Y-74701740D01*
X150884348Y-74875463D01*
X150941531Y-75063970D01*
X150960838Y-75260000D01*
X150941531Y-75456030D01*
X150884348Y-75644537D01*
X150791491Y-75818260D01*
X150666528Y-75970528D01*
X150514260Y-76095491D01*
X150514258Y-76095492D01*
X150340535Y-76188349D01*
X150152034Y-76245530D01*
X150152033Y-76245530D01*
X150152030Y-76245531D01*
X150005124Y-76260000D01*
X149906876Y-76260000D01*
X149759970Y-76245531D01*
X149759967Y-76245530D01*
X149759966Y-76245530D01*
X149571465Y-76188349D01*
X149397742Y-76095492D01*
X149397740Y-76095491D01*
X149245472Y-75970528D01*
X149120509Y-75818260D01*
X149027652Y-75644537D01*
X148970469Y-75456030D01*
X148951162Y-75260000D01*
X148970469Y-75063970D01*
X149027652Y-74875463D01*
X149120509Y-74701740D01*
X149245472Y-74549472D01*
X149397740Y-74424509D01*
X149571463Y-74331652D01*
X149571465Y-74331651D01*
X149759966Y-74274470D01*
X149759967Y-74274470D01*
X149759970Y-74274469D01*
X149906876Y-74260000D01*
X150005124Y-74260000D01*
X150152030Y-74274469D01*
X150152030Y-74274469D01*
G37*
G36*
X134912030Y-74274469D02*
X134912033Y-74274470D01*
X134912034Y-74274470D01*
X135100535Y-74331651D01*
X135100537Y-74331652D01*
X135274260Y-74424509D01*
X135426528Y-74549472D01*
X135551491Y-74701740D01*
X135644348Y-74875463D01*
X135701531Y-75063970D01*
X135720838Y-75260000D01*
X135701531Y-75456030D01*
X135644348Y-75644537D01*
X135551491Y-75818260D01*
X135426528Y-75970528D01*
X135274260Y-76095491D01*
X135274258Y-76095492D01*
X135100535Y-76188349D01*
X134912034Y-76245530D01*
X134912033Y-76245530D01*
X134912030Y-76245531D01*
X134765124Y-76260000D01*
X134666876Y-76260000D01*
X134519970Y-76245531D01*
X134519967Y-76245530D01*
X134519966Y-76245530D01*
X134331465Y-76188349D01*
X134157742Y-76095492D01*
X134157740Y-76095491D01*
X134005472Y-75970528D01*
X133880509Y-75818260D01*
X133787652Y-75644537D01*
X133730469Y-75456030D01*
X133711162Y-75260000D01*
X133730469Y-75063970D01*
X133787652Y-74875463D01*
X133880509Y-74701740D01*
X134005472Y-74549472D01*
X134157740Y-74424509D01*
X134331463Y-74331652D01*
X134331465Y-74331651D01*
X134519966Y-74274470D01*
X134519967Y-74274470D01*
X134519970Y-74274469D01*
X134666876Y-74260000D01*
X134765124Y-74260000D01*
X134912030Y-74274469D01*
X134912030Y-74274469D01*
G37*
G36*
X141092582Y-74199786D02*
X141137304Y-74213353D01*
X141178533Y-74235390D01*
X141214661Y-74265039D01*
X141244310Y-74301167D01*
X141266347Y-74342396D01*
X141279914Y-74387118D01*
X141285100Y-74439775D01*
X141285100Y-75774425D01*
X141279914Y-75827082D01*
X141266347Y-75871804D01*
X141244310Y-75913033D01*
X141214661Y-75949161D01*
X141178533Y-75978810D01*
X141137304Y-76000847D01*
X141092582Y-76014414D01*
X141039925Y-76019600D01*
X139380275Y-76019600D01*
X139327618Y-76014414D01*
X139282896Y-76000847D01*
X139241667Y-75978810D01*
X139205539Y-75949161D01*
X139175890Y-75913033D01*
X139153853Y-75871804D01*
X139140286Y-75827082D01*
X139135100Y-75774425D01*
X139135100Y-74439775D01*
X139140286Y-74387118D01*
X139153853Y-74342396D01*
X139175890Y-74301167D01*
X139205539Y-74265039D01*
X139241667Y-74235390D01*
X139282896Y-74213353D01*
X139327618Y-74199786D01*
X139380275Y-74194600D01*
X141039925Y-74194600D01*
X141092582Y-74199786D01*
X141092582Y-74199786D01*
G37*
G36*
X144750182Y-74199786D02*
X144794904Y-74213353D01*
X144836133Y-74235390D01*
X144872261Y-74265039D01*
X144901910Y-74301167D01*
X144923947Y-74342396D01*
X144937514Y-74387118D01*
X144942700Y-74439775D01*
X144942700Y-75774425D01*
X144937514Y-75827082D01*
X144923947Y-75871804D01*
X144901910Y-75913033D01*
X144872261Y-75949161D01*
X144836133Y-75978810D01*
X144794904Y-76000847D01*
X144750182Y-76014414D01*
X144697525Y-76019600D01*
X143037875Y-76019600D01*
X142985218Y-76014414D01*
X142940496Y-76000847D01*
X142899267Y-75978810D01*
X142863139Y-75949161D01*
X142833490Y-75913033D01*
X142811453Y-75871804D01*
X142797886Y-75827082D01*
X142792700Y-75774425D01*
X142792700Y-74439775D01*
X142797886Y-74387118D01*
X142811453Y-74342396D01*
X142833490Y-74301167D01*
X142863139Y-74265039D01*
X142899267Y-74235390D01*
X142940496Y-74213353D01*
X142985218Y-74199786D01*
X143037875Y-74194600D01*
X144697525Y-74194600D01*
X144750182Y-74199786D01*
X144750182Y-74199786D01*
G37*
G36*
X131537707Y-71665996D02*
X131614836Y-71673593D01*
X131746787Y-71713620D01*
X131812763Y-71733633D01*
X131995172Y-71831133D01*
X132155054Y-71962346D01*
X132286267Y-72122228D01*
X132383767Y-72304637D01*
X132383767Y-72304638D01*
X132443807Y-72502564D01*
X132464080Y-72708400D01*
X132443807Y-72914236D01*
X132403780Y-73046187D01*
X132383767Y-73112163D01*
X132286267Y-73294572D01*
X132155054Y-73454454D01*
X131995172Y-73585667D01*
X131812763Y-73683167D01*
X131746787Y-73703180D01*
X131614836Y-73743207D01*
X131537707Y-73750803D01*
X131460580Y-73758400D01*
X131357420Y-73758400D01*
X131280293Y-73750803D01*
X131203164Y-73743207D01*
X131071213Y-73703180D01*
X131005237Y-73683167D01*
X130822828Y-73585667D01*
X130662946Y-73454454D01*
X130531733Y-73294572D01*
X130434233Y-73112163D01*
X130414220Y-73046187D01*
X130374193Y-72914236D01*
X130353920Y-72708400D01*
X130374193Y-72502564D01*
X130434233Y-72304638D01*
X130434233Y-72304637D01*
X130531733Y-72122228D01*
X130662946Y-71962346D01*
X130822828Y-71831133D01*
X131005237Y-71733633D01*
X131071213Y-71713620D01*
X131203164Y-71673593D01*
X131280293Y-71665996D01*
X131357420Y-71658400D01*
X131460580Y-71658400D01*
X131537707Y-71665996D01*
X131537707Y-71665996D01*
G37*
G36*
X153711907Y-71665996D02*
X153789036Y-71673593D01*
X153920987Y-71713620D01*
X153986963Y-71733633D01*
X154169372Y-71831133D01*
X154329254Y-71962346D01*
X154460467Y-72122228D01*
X154557967Y-72304637D01*
X154557967Y-72304638D01*
X154618007Y-72502564D01*
X154638280Y-72708400D01*
X154618007Y-72914236D01*
X154577980Y-73046187D01*
X154557967Y-73112163D01*
X154460467Y-73294572D01*
X154329254Y-73454454D01*
X154169372Y-73585667D01*
X153986963Y-73683167D01*
X153920987Y-73703180D01*
X153789036Y-73743207D01*
X153711907Y-73750803D01*
X153634780Y-73758400D01*
X153531620Y-73758400D01*
X153454493Y-73750803D01*
X153377364Y-73743207D01*
X153245413Y-73703180D01*
X153179437Y-73683167D01*
X152997028Y-73585667D01*
X152837146Y-73454454D01*
X152705933Y-73294572D01*
X152608433Y-73112163D01*
X152588420Y-73046187D01*
X152548393Y-72914236D01*
X152528120Y-72708400D01*
X152548393Y-72502564D01*
X152608433Y-72304638D01*
X152608433Y-72304637D01*
X152705933Y-72122228D01*
X152837146Y-71962346D01*
X152997028Y-71831133D01*
X153179437Y-71733633D01*
X153245413Y-71713620D01*
X153377364Y-71673593D01*
X153454493Y-71665996D01*
X153531620Y-71658400D01*
X153634780Y-71658400D01*
X153711907Y-71665996D01*
X153711907Y-71665996D01*
G37*
G36*
X134912030Y-71734469D02*
X134912033Y-71734470D01*
X134912034Y-71734470D01*
X135100535Y-71791651D01*
X135100537Y-71791652D01*
X135274260Y-71884509D01*
X135426528Y-72009472D01*
X135551491Y-72161740D01*
X135551492Y-72161742D01*
X135644349Y-72335465D01*
X135695038Y-72502564D01*
X135701531Y-72523970D01*
X135720838Y-72720000D01*
X135701531Y-72916030D01*
X135644348Y-73104537D01*
X135551491Y-73278260D01*
X135426528Y-73430528D01*
X135274260Y-73555491D01*
X135274258Y-73555492D01*
X135100535Y-73648349D01*
X134912034Y-73705530D01*
X134912033Y-73705530D01*
X134912030Y-73705531D01*
X134765124Y-73720000D01*
X134666876Y-73720000D01*
X134519970Y-73705531D01*
X134519967Y-73705530D01*
X134519966Y-73705530D01*
X134331465Y-73648349D01*
X134157742Y-73555492D01*
X134157740Y-73555491D01*
X134005472Y-73430528D01*
X133880509Y-73278260D01*
X133787652Y-73104537D01*
X133730469Y-72916030D01*
X133711162Y-72720000D01*
X133730469Y-72523970D01*
X133736962Y-72502564D01*
X133787651Y-72335465D01*
X133880508Y-72161742D01*
X133880509Y-72161740D01*
X134005472Y-72009472D01*
X134157740Y-71884509D01*
X134331463Y-71791652D01*
X134331465Y-71791651D01*
X134519966Y-71734470D01*
X134519967Y-71734470D01*
X134519970Y-71734469D01*
X134666876Y-71720000D01*
X134765124Y-71720000D01*
X134912030Y-71734469D01*
X134912030Y-71734469D01*
G37*
G36*
X150152030Y-71734469D02*
X150152033Y-71734470D01*
X150152034Y-71734470D01*
X150340535Y-71791651D01*
X150340537Y-71791652D01*
X150514260Y-71884509D01*
X150666528Y-72009472D01*
X150791491Y-72161740D01*
X150791492Y-72161742D01*
X150884349Y-72335465D01*
X150935038Y-72502564D01*
X150941531Y-72523970D01*
X150960838Y-72720000D01*
X150941531Y-72916030D01*
X150884348Y-73104537D01*
X150791491Y-73278260D01*
X150666528Y-73430528D01*
X150514260Y-73555491D01*
X150514258Y-73555492D01*
X150340535Y-73648349D01*
X150152034Y-73705530D01*
X150152033Y-73705530D01*
X150152030Y-73705531D01*
X150005124Y-73720000D01*
X149906876Y-73720000D01*
X149759970Y-73705531D01*
X149759967Y-73705530D01*
X149759966Y-73705530D01*
X149571465Y-73648349D01*
X149397742Y-73555492D01*
X149397740Y-73555491D01*
X149245472Y-73430528D01*
X149120509Y-73278260D01*
X149027652Y-73104537D01*
X148970469Y-72916030D01*
X148951162Y-72720000D01*
X148970469Y-72523970D01*
X148976962Y-72502564D01*
X149027651Y-72335465D01*
X149120508Y-72161742D01*
X149120509Y-72161740D01*
X149245472Y-72009472D01*
X149397740Y-71884509D01*
X149571463Y-71791652D01*
X149571465Y-71791651D01*
X149759966Y-71734470D01*
X149759967Y-71734470D01*
X149759970Y-71734469D01*
X149906876Y-71720000D01*
X150005124Y-71720000D01*
X150152030Y-71734469D01*
X150152030Y-71734469D01*
G37*
G36*
X158891282Y-70583386D02*
X158936004Y-70596953D01*
X158977233Y-70618990D01*
X159013361Y-70648639D01*
X159043010Y-70684767D01*
X159065047Y-70725996D01*
X159078614Y-70770718D01*
X159083800Y-70823375D01*
X159083800Y-72483025D01*
X159078614Y-72535682D01*
X159065047Y-72580404D01*
X159043010Y-72621633D01*
X159013361Y-72657761D01*
X158977233Y-72687410D01*
X158936004Y-72709447D01*
X158891282Y-72723014D01*
X158838625Y-72728200D01*
X157503975Y-72728200D01*
X157451318Y-72723014D01*
X157406596Y-72709447D01*
X157365367Y-72687410D01*
X157329239Y-72657761D01*
X157299590Y-72621633D01*
X157277553Y-72580404D01*
X157263986Y-72535682D01*
X157258800Y-72483025D01*
X157258800Y-70823375D01*
X157263986Y-70770718D01*
X157277553Y-70725996D01*
X157299590Y-70684767D01*
X157329239Y-70648639D01*
X157365367Y-70618990D01*
X157406596Y-70596953D01*
X157451318Y-70583386D01*
X157503975Y-70578200D01*
X158838625Y-70578200D01*
X158891282Y-70583386D01*
X158891282Y-70583386D01*
G37*
G36*
X161866282Y-70583386D02*
X161911004Y-70596953D01*
X161952233Y-70618990D01*
X161988361Y-70648639D01*
X162018010Y-70684767D01*
X162040047Y-70725996D01*
X162053614Y-70770718D01*
X162058800Y-70823375D01*
X162058800Y-72483025D01*
X162053614Y-72535682D01*
X162040047Y-72580404D01*
X162018010Y-72621633D01*
X161988361Y-72657761D01*
X161952233Y-72687410D01*
X161911004Y-72709447D01*
X161866282Y-72723014D01*
X161813625Y-72728200D01*
X160478975Y-72728200D01*
X160426318Y-72723014D01*
X160381596Y-72709447D01*
X160340367Y-72687410D01*
X160304239Y-72657761D01*
X160274590Y-72621633D01*
X160252553Y-72580404D01*
X160238986Y-72535682D01*
X160233800Y-72483025D01*
X160233800Y-70823375D01*
X160238986Y-70770718D01*
X160252553Y-70725996D01*
X160274590Y-70684767D01*
X160304239Y-70648639D01*
X160340367Y-70618990D01*
X160381596Y-70596953D01*
X160426318Y-70583386D01*
X160478975Y-70578200D01*
X161813625Y-70578200D01*
X161866282Y-70583386D01*
X161866282Y-70583386D01*
G37*
G36*
X153711907Y-69125997D02*
X153789036Y-69133593D01*
X153920987Y-69173620D01*
X153986963Y-69193633D01*
X154169372Y-69291133D01*
X154329254Y-69422346D01*
X154460467Y-69582228D01*
X154557967Y-69764637D01*
X154557967Y-69764638D01*
X154618007Y-69962564D01*
X154638280Y-70168400D01*
X154618007Y-70374236D01*
X154577980Y-70506187D01*
X154557967Y-70572163D01*
X154460467Y-70754572D01*
X154329254Y-70914454D01*
X154169372Y-71045667D01*
X153986963Y-71143167D01*
X153920987Y-71163180D01*
X153789036Y-71203207D01*
X153711907Y-71210803D01*
X153634780Y-71218400D01*
X153531620Y-71218400D01*
X153454493Y-71210803D01*
X153377364Y-71203207D01*
X153245413Y-71163180D01*
X153179437Y-71143167D01*
X152997028Y-71045667D01*
X152837146Y-70914454D01*
X152705933Y-70754572D01*
X152608433Y-70572163D01*
X152588420Y-70506187D01*
X152548393Y-70374236D01*
X152528120Y-70168400D01*
X152548393Y-69962564D01*
X152608433Y-69764638D01*
X152608433Y-69764637D01*
X152705933Y-69582228D01*
X152837146Y-69422346D01*
X152997028Y-69291133D01*
X153179437Y-69193633D01*
X153245413Y-69173620D01*
X153377364Y-69133593D01*
X153454493Y-69125997D01*
X153531620Y-69118400D01*
X153634780Y-69118400D01*
X153711907Y-69125997D01*
X153711907Y-69125997D01*
G37*
G36*
X131537707Y-69125997D02*
X131614836Y-69133593D01*
X131746787Y-69173620D01*
X131812763Y-69193633D01*
X131995172Y-69291133D01*
X132155054Y-69422346D01*
X132286267Y-69582228D01*
X132383767Y-69764637D01*
X132383767Y-69764638D01*
X132443807Y-69962564D01*
X132464080Y-70168400D01*
X132443807Y-70374236D01*
X132403780Y-70506187D01*
X132383767Y-70572163D01*
X132286267Y-70754572D01*
X132155054Y-70914454D01*
X131995172Y-71045667D01*
X131812763Y-71143167D01*
X131746787Y-71163180D01*
X131614836Y-71203207D01*
X131537707Y-71210803D01*
X131460580Y-71218400D01*
X131357420Y-71218400D01*
X131280293Y-71210803D01*
X131203164Y-71203207D01*
X131071213Y-71163180D01*
X131005237Y-71143167D01*
X130822828Y-71045667D01*
X130662946Y-70914454D01*
X130531733Y-70754572D01*
X130434233Y-70572163D01*
X130414220Y-70506187D01*
X130374193Y-70374236D01*
X130353920Y-70168400D01*
X130374193Y-69962564D01*
X130434233Y-69764638D01*
X130434233Y-69764637D01*
X130531733Y-69582228D01*
X130662946Y-69422346D01*
X130822828Y-69291133D01*
X131005237Y-69193633D01*
X131071213Y-69173620D01*
X131203164Y-69133593D01*
X131280293Y-69125997D01*
X131357420Y-69118400D01*
X131460580Y-69118400D01*
X131537707Y-69125997D01*
X131537707Y-69125997D01*
G37*
G36*
X134912030Y-69194469D02*
X134912033Y-69194470D01*
X134912034Y-69194470D01*
X135100535Y-69251651D01*
X135100537Y-69251652D01*
X135274260Y-69344509D01*
X135426528Y-69469472D01*
X135551491Y-69621740D01*
X135644348Y-69795463D01*
X135701531Y-69983970D01*
X135720838Y-70180000D01*
X135701531Y-70376030D01*
X135644348Y-70564537D01*
X135551491Y-70738260D01*
X135426528Y-70890528D01*
X135274260Y-71015491D01*
X135274258Y-71015492D01*
X135100535Y-71108349D01*
X134912034Y-71165530D01*
X134912033Y-71165530D01*
X134912030Y-71165531D01*
X134765124Y-71180000D01*
X134666876Y-71180000D01*
X134519970Y-71165531D01*
X134519967Y-71165530D01*
X134519966Y-71165530D01*
X134331465Y-71108349D01*
X134157742Y-71015492D01*
X134157740Y-71015491D01*
X134005472Y-70890528D01*
X133880509Y-70738260D01*
X133787652Y-70564537D01*
X133730469Y-70376030D01*
X133711162Y-70180000D01*
X133730469Y-69983970D01*
X133787652Y-69795463D01*
X133880509Y-69621740D01*
X134005472Y-69469472D01*
X134157740Y-69344509D01*
X134331463Y-69251652D01*
X134331465Y-69251651D01*
X134519966Y-69194470D01*
X134519967Y-69194470D01*
X134519970Y-69194469D01*
X134666876Y-69180000D01*
X134765124Y-69180000D01*
X134912030Y-69194469D01*
X134912030Y-69194469D01*
G37*
G36*
X150152030Y-69194469D02*
X150152033Y-69194470D01*
X150152034Y-69194470D01*
X150340535Y-69251651D01*
X150340537Y-69251652D01*
X150514260Y-69344509D01*
X150666528Y-69469472D01*
X150791491Y-69621740D01*
X150884348Y-69795463D01*
X150941531Y-69983970D01*
X150960838Y-70180000D01*
X150941531Y-70376030D01*
X150884348Y-70564537D01*
X150791491Y-70738260D01*
X150666528Y-70890528D01*
X150514260Y-71015491D01*
X150514258Y-71015492D01*
X150340535Y-71108349D01*
X150152034Y-71165530D01*
X150152033Y-71165530D01*
X150152030Y-71165531D01*
X150005124Y-71180000D01*
X149906876Y-71180000D01*
X149759970Y-71165531D01*
X149759967Y-71165530D01*
X149759966Y-71165530D01*
X149571465Y-71108349D01*
X149397742Y-71015492D01*
X149397740Y-71015491D01*
X149245472Y-70890528D01*
X149120509Y-70738260D01*
X149027652Y-70564537D01*
X148970469Y-70376030D01*
X148951162Y-70180000D01*
X148970469Y-69983970D01*
X149027652Y-69795463D01*
X149120509Y-69621740D01*
X149245472Y-69469472D01*
X149397740Y-69344509D01*
X149571463Y-69251652D01*
X149571465Y-69251651D01*
X149759966Y-69194470D01*
X149759967Y-69194470D01*
X149759970Y-69194469D01*
X149906876Y-69180000D01*
X150005124Y-69180000D01*
X150152030Y-69194469D01*
X150152030Y-69194469D01*
G37*
G36*
X153711907Y-66585996D02*
X153789036Y-66593593D01*
X153920987Y-66633620D01*
X153986963Y-66653633D01*
X154169372Y-66751133D01*
X154329254Y-66882346D01*
X154460467Y-67042228D01*
X154557967Y-67224637D01*
X154557967Y-67224638D01*
X154618007Y-67422564D01*
X154638280Y-67628400D01*
X154618007Y-67834236D01*
X154577980Y-67966187D01*
X154557967Y-68032163D01*
X154460467Y-68214572D01*
X154329254Y-68374454D01*
X154169372Y-68505667D01*
X153986963Y-68603167D01*
X153920987Y-68623180D01*
X153789036Y-68663207D01*
X153711907Y-68670803D01*
X153634780Y-68678400D01*
X153531620Y-68678400D01*
X153454493Y-68670803D01*
X153377364Y-68663207D01*
X153245413Y-68623180D01*
X153179437Y-68603167D01*
X152997028Y-68505667D01*
X152837146Y-68374454D01*
X152705933Y-68214572D01*
X152608433Y-68032163D01*
X152588420Y-67966187D01*
X152548393Y-67834236D01*
X152528120Y-67628400D01*
X152548393Y-67422564D01*
X152608433Y-67224638D01*
X152608433Y-67224637D01*
X152705933Y-67042228D01*
X152837146Y-66882346D01*
X152997028Y-66751133D01*
X153179437Y-66653633D01*
X153245413Y-66633620D01*
X153377364Y-66593593D01*
X153454493Y-66585996D01*
X153531620Y-66578400D01*
X153634780Y-66578400D01*
X153711907Y-66585996D01*
X153711907Y-66585996D01*
G37*
G36*
X131537707Y-66585996D02*
X131614836Y-66593593D01*
X131746787Y-66633620D01*
X131812763Y-66653633D01*
X131995172Y-66751133D01*
X132155054Y-66882346D01*
X132286267Y-67042228D01*
X132383767Y-67224637D01*
X132383767Y-67224638D01*
X132443807Y-67422564D01*
X132464080Y-67628400D01*
X132443807Y-67834236D01*
X132403780Y-67966187D01*
X132383767Y-68032163D01*
X132286267Y-68214572D01*
X132155054Y-68374454D01*
X131995172Y-68505667D01*
X131812763Y-68603167D01*
X131746787Y-68623180D01*
X131614836Y-68663207D01*
X131537707Y-68670803D01*
X131460580Y-68678400D01*
X131357420Y-68678400D01*
X131280293Y-68670803D01*
X131203164Y-68663207D01*
X131071213Y-68623180D01*
X131005237Y-68603167D01*
X130822828Y-68505667D01*
X130662946Y-68374454D01*
X130531733Y-68214572D01*
X130434233Y-68032163D01*
X130414220Y-67966187D01*
X130374193Y-67834236D01*
X130353920Y-67628400D01*
X130374193Y-67422564D01*
X130434233Y-67224638D01*
X130434233Y-67224637D01*
X130531733Y-67042228D01*
X130662946Y-66882346D01*
X130822828Y-66751133D01*
X131005237Y-66653633D01*
X131071213Y-66633620D01*
X131203164Y-66593593D01*
X131280293Y-66585996D01*
X131357420Y-66578400D01*
X131460580Y-66578400D01*
X131537707Y-66585996D01*
X131537707Y-66585996D01*
G37*
G36*
X150152030Y-66654469D02*
X150152033Y-66654470D01*
X150152034Y-66654470D01*
X150340535Y-66711651D01*
X150340537Y-66711652D01*
X150514260Y-66804509D01*
X150666528Y-66929472D01*
X150791491Y-67081740D01*
X150884348Y-67255463D01*
X150941531Y-67443970D01*
X150960838Y-67640000D01*
X150941531Y-67836030D01*
X150884348Y-68024537D01*
X150791491Y-68198260D01*
X150666528Y-68350528D01*
X150514260Y-68475491D01*
X150514258Y-68475492D01*
X150340535Y-68568349D01*
X150152034Y-68625530D01*
X150152033Y-68625530D01*
X150152030Y-68625531D01*
X150005124Y-68640000D01*
X149906876Y-68640000D01*
X149759970Y-68625531D01*
X149759967Y-68625530D01*
X149759966Y-68625530D01*
X149571465Y-68568349D01*
X149397742Y-68475492D01*
X149397740Y-68475491D01*
X149245472Y-68350528D01*
X149120509Y-68198260D01*
X149027652Y-68024537D01*
X148970469Y-67836030D01*
X148951162Y-67640000D01*
X148970469Y-67443970D01*
X149027652Y-67255463D01*
X149120509Y-67081740D01*
X149245472Y-66929472D01*
X149397740Y-66804509D01*
X149571463Y-66711652D01*
X149571465Y-66711651D01*
X149759966Y-66654470D01*
X149759967Y-66654470D01*
X149759970Y-66654469D01*
X149906876Y-66640000D01*
X150005124Y-66640000D01*
X150152030Y-66654469D01*
X150152030Y-66654469D01*
G37*
G36*
X134912030Y-66654469D02*
X134912033Y-66654470D01*
X134912034Y-66654470D01*
X135100535Y-66711651D01*
X135100537Y-66711652D01*
X135274260Y-66804509D01*
X135426528Y-66929472D01*
X135551491Y-67081740D01*
X135644348Y-67255463D01*
X135701531Y-67443970D01*
X135720838Y-67640000D01*
X135701531Y-67836030D01*
X135644348Y-68024537D01*
X135551491Y-68198260D01*
X135426528Y-68350528D01*
X135274260Y-68475491D01*
X135274258Y-68475492D01*
X135100535Y-68568349D01*
X134912034Y-68625530D01*
X134912033Y-68625530D01*
X134912030Y-68625531D01*
X134765124Y-68640000D01*
X134666876Y-68640000D01*
X134519970Y-68625531D01*
X134519967Y-68625530D01*
X134519966Y-68625530D01*
X134331465Y-68568349D01*
X134157742Y-68475492D01*
X134157740Y-68475491D01*
X134005472Y-68350528D01*
X133880509Y-68198260D01*
X133787652Y-68024537D01*
X133730469Y-67836030D01*
X133711162Y-67640000D01*
X133730469Y-67443970D01*
X133787652Y-67255463D01*
X133880509Y-67081740D01*
X134005472Y-66929472D01*
X134157740Y-66804509D01*
X134331463Y-66711652D01*
X134331465Y-66711651D01*
X134519966Y-66654470D01*
X134519967Y-66654470D01*
X134519970Y-66654469D01*
X134666876Y-66640000D01*
X134765124Y-66640000D01*
X134912030Y-66654469D01*
X134912030Y-66654469D01*
G37*
G36*
X158891282Y-64983786D02*
X158936004Y-64997353D01*
X158977233Y-65019390D01*
X159013361Y-65049039D01*
X159043010Y-65085167D01*
X159065047Y-65126396D01*
X159078614Y-65171118D01*
X159083800Y-65223775D01*
X159083800Y-66883425D01*
X159078614Y-66936082D01*
X159065047Y-66980804D01*
X159043010Y-67022033D01*
X159013361Y-67058161D01*
X158977233Y-67087810D01*
X158936004Y-67109847D01*
X158891282Y-67123414D01*
X158838625Y-67128600D01*
X157503975Y-67128600D01*
X157451318Y-67123414D01*
X157406596Y-67109847D01*
X157365367Y-67087810D01*
X157329239Y-67058161D01*
X157299590Y-67022033D01*
X157277553Y-66980804D01*
X157263986Y-66936082D01*
X157258800Y-66883425D01*
X157258800Y-65223775D01*
X157263986Y-65171118D01*
X157277553Y-65126396D01*
X157299590Y-65085167D01*
X157329239Y-65049039D01*
X157365367Y-65019390D01*
X157406596Y-64997353D01*
X157451318Y-64983786D01*
X157503975Y-64978600D01*
X158838625Y-64978600D01*
X158891282Y-64983786D01*
X158891282Y-64983786D01*
G37*
G36*
X161866282Y-64983786D02*
X161911004Y-64997353D01*
X161952233Y-65019390D01*
X161988361Y-65049039D01*
X162018010Y-65085167D01*
X162040047Y-65126396D01*
X162053614Y-65171118D01*
X162058800Y-65223775D01*
X162058800Y-66883425D01*
X162053614Y-66936082D01*
X162040047Y-66980804D01*
X162018010Y-67022033D01*
X161988361Y-67058161D01*
X161952233Y-67087810D01*
X161911004Y-67109847D01*
X161866282Y-67123414D01*
X161813625Y-67128600D01*
X160478975Y-67128600D01*
X160426318Y-67123414D01*
X160381596Y-67109847D01*
X160340367Y-67087810D01*
X160304239Y-67058161D01*
X160274590Y-67022033D01*
X160252553Y-66980804D01*
X160238986Y-66936082D01*
X160233800Y-66883425D01*
X160233800Y-65223775D01*
X160238986Y-65171118D01*
X160252553Y-65126396D01*
X160274590Y-65085167D01*
X160304239Y-65049039D01*
X160340367Y-65019390D01*
X160381596Y-64997353D01*
X160426318Y-64983786D01*
X160478975Y-64978600D01*
X161813625Y-64978600D01*
X161866282Y-64983786D01*
X161866282Y-64983786D01*
G37*
G36*
X131537707Y-64045997D02*
X131614836Y-64053593D01*
X131746787Y-64093620D01*
X131812763Y-64113633D01*
X131995172Y-64211133D01*
X132155054Y-64342346D01*
X132286267Y-64502228D01*
X132383767Y-64684637D01*
X132383767Y-64684638D01*
X132443807Y-64882564D01*
X132464080Y-65088400D01*
X132443807Y-65294236D01*
X132403780Y-65426187D01*
X132383767Y-65492163D01*
X132286267Y-65674572D01*
X132155054Y-65834454D01*
X131995172Y-65965667D01*
X131812763Y-66063167D01*
X131746787Y-66083180D01*
X131614836Y-66123207D01*
X131537707Y-66130804D01*
X131460580Y-66138400D01*
X131357420Y-66138400D01*
X131280293Y-66130804D01*
X131203164Y-66123207D01*
X131071213Y-66083180D01*
X131005237Y-66063167D01*
X130822828Y-65965667D01*
X130662946Y-65834454D01*
X130531733Y-65674572D01*
X130434233Y-65492163D01*
X130414220Y-65426187D01*
X130374193Y-65294236D01*
X130353920Y-65088400D01*
X130374193Y-64882564D01*
X130434233Y-64684638D01*
X130434233Y-64684637D01*
X130531733Y-64502228D01*
X130662946Y-64342346D01*
X130822828Y-64211133D01*
X131005237Y-64113633D01*
X131071213Y-64093620D01*
X131203164Y-64053593D01*
X131280293Y-64045997D01*
X131357420Y-64038400D01*
X131460580Y-64038400D01*
X131537707Y-64045997D01*
X131537707Y-64045997D01*
G37*
G36*
X153711907Y-64045997D02*
X153789036Y-64053593D01*
X153920987Y-64093620D01*
X153986963Y-64113633D01*
X154169372Y-64211133D01*
X154329254Y-64342346D01*
X154460467Y-64502228D01*
X154557967Y-64684637D01*
X154557967Y-64684638D01*
X154618007Y-64882564D01*
X154638280Y-65088400D01*
X154618007Y-65294236D01*
X154577980Y-65426187D01*
X154557967Y-65492163D01*
X154460467Y-65674572D01*
X154329254Y-65834454D01*
X154169372Y-65965667D01*
X153986963Y-66063167D01*
X153920987Y-66083180D01*
X153789036Y-66123207D01*
X153711907Y-66130804D01*
X153634780Y-66138400D01*
X153531620Y-66138400D01*
X153454493Y-66130804D01*
X153377364Y-66123207D01*
X153245413Y-66083180D01*
X153179437Y-66063167D01*
X152997028Y-65965667D01*
X152837146Y-65834454D01*
X152705933Y-65674572D01*
X152608433Y-65492163D01*
X152588420Y-65426187D01*
X152548393Y-65294236D01*
X152528120Y-65088400D01*
X152548393Y-64882564D01*
X152608433Y-64684638D01*
X152608433Y-64684637D01*
X152705933Y-64502228D01*
X152837146Y-64342346D01*
X152997028Y-64211133D01*
X153179437Y-64113633D01*
X153245413Y-64093620D01*
X153377364Y-64053593D01*
X153454493Y-64045997D01*
X153531620Y-64038400D01*
X153634780Y-64038400D01*
X153711907Y-64045997D01*
X153711907Y-64045997D01*
G37*
G36*
X134912030Y-64114469D02*
X134912033Y-64114470D01*
X134912034Y-64114470D01*
X135100535Y-64171651D01*
X135100537Y-64171652D01*
X135274260Y-64264509D01*
X135426528Y-64389472D01*
X135551491Y-64541740D01*
X135644348Y-64715463D01*
X135701531Y-64903970D01*
X135720838Y-65100000D01*
X135701531Y-65296030D01*
X135644348Y-65484537D01*
X135551491Y-65658260D01*
X135426528Y-65810528D01*
X135274260Y-65935491D01*
X135274258Y-65935492D01*
X135100535Y-66028349D01*
X134912034Y-66085530D01*
X134912033Y-66085530D01*
X134912030Y-66085531D01*
X134765124Y-66100000D01*
X134666876Y-66100000D01*
X134519970Y-66085531D01*
X134519967Y-66085530D01*
X134519966Y-66085530D01*
X134331465Y-66028349D01*
X134157742Y-65935492D01*
X134157740Y-65935491D01*
X134005472Y-65810528D01*
X133880509Y-65658260D01*
X133787652Y-65484537D01*
X133730469Y-65296030D01*
X133711162Y-65100000D01*
X133730469Y-64903970D01*
X133787652Y-64715463D01*
X133880509Y-64541740D01*
X134005472Y-64389472D01*
X134157740Y-64264509D01*
X134331463Y-64171652D01*
X134331465Y-64171651D01*
X134519966Y-64114470D01*
X134519967Y-64114470D01*
X134519970Y-64114469D01*
X134666876Y-64100000D01*
X134765124Y-64100000D01*
X134912030Y-64114469D01*
X134912030Y-64114469D01*
G37*
G36*
X150152030Y-64114469D02*
X150152033Y-64114470D01*
X150152034Y-64114470D01*
X150340535Y-64171651D01*
X150340537Y-64171652D01*
X150514260Y-64264509D01*
X150666528Y-64389472D01*
X150791491Y-64541740D01*
X150884348Y-64715463D01*
X150941531Y-64903970D01*
X150960838Y-65100000D01*
X150941531Y-65296030D01*
X150884348Y-65484537D01*
X150791491Y-65658260D01*
X150666528Y-65810528D01*
X150514260Y-65935491D01*
X150514258Y-65935492D01*
X150340535Y-66028349D01*
X150152034Y-66085530D01*
X150152033Y-66085530D01*
X150152030Y-66085531D01*
X150005124Y-66100000D01*
X149906876Y-66100000D01*
X149759970Y-66085531D01*
X149759967Y-66085530D01*
X149759966Y-66085530D01*
X149571465Y-66028349D01*
X149397742Y-65935492D01*
X149397740Y-65935491D01*
X149245472Y-65810528D01*
X149120509Y-65658260D01*
X149027652Y-65484537D01*
X148970469Y-65296030D01*
X148951162Y-65100000D01*
X148970469Y-64903970D01*
X149027652Y-64715463D01*
X149120509Y-64541740D01*
X149245472Y-64389472D01*
X149397740Y-64264509D01*
X149571463Y-64171652D01*
X149571465Y-64171651D01*
X149759966Y-64114470D01*
X149759967Y-64114470D01*
X149759970Y-64114469D01*
X149906876Y-64100000D01*
X150005124Y-64100000D01*
X150152030Y-64114469D01*
X150152030Y-64114469D01*
G37*
G36*
X144530547Y-61530713D02*
X144575269Y-61544280D01*
X144616498Y-61566317D01*
X144652626Y-61595966D01*
X144682275Y-61632094D01*
X144704312Y-61673323D01*
X144717879Y-61718045D01*
X144723065Y-61770702D01*
X144723065Y-63430352D01*
X144717879Y-63483009D01*
X144704312Y-63527731D01*
X144682275Y-63568960D01*
X144652626Y-63605088D01*
X144616498Y-63634737D01*
X144575269Y-63656774D01*
X144530547Y-63670341D01*
X144477890Y-63675527D01*
X143143240Y-63675527D01*
X143090583Y-63670341D01*
X143045861Y-63656774D01*
X143004632Y-63634737D01*
X142968504Y-63605088D01*
X142938855Y-63568960D01*
X142916818Y-63527731D01*
X142903251Y-63483009D01*
X142898065Y-63430352D01*
X142898065Y-61770702D01*
X142903251Y-61718045D01*
X142916818Y-61673323D01*
X142938855Y-61632094D01*
X142968504Y-61595966D01*
X143004632Y-61566317D01*
X143045861Y-61544280D01*
X143090583Y-61530713D01*
X143143240Y-61525527D01*
X144477890Y-61525527D01*
X144530547Y-61530713D01*
X144530547Y-61530713D01*
G37*
G36*
X141555547Y-61530713D02*
X141600269Y-61544280D01*
X141641498Y-61566317D01*
X141677626Y-61595966D01*
X141707275Y-61632094D01*
X141729312Y-61673323D01*
X141742879Y-61718045D01*
X141748065Y-61770702D01*
X141748065Y-63430352D01*
X141742879Y-63483009D01*
X141729312Y-63527731D01*
X141707275Y-63568960D01*
X141677626Y-63605088D01*
X141641498Y-63634737D01*
X141600269Y-63656774D01*
X141555547Y-63670341D01*
X141502890Y-63675527D01*
X140168240Y-63675527D01*
X140115583Y-63670341D01*
X140070861Y-63656774D01*
X140029632Y-63634737D01*
X139993504Y-63605088D01*
X139963855Y-63568960D01*
X139941818Y-63527731D01*
X139928251Y-63483009D01*
X139923065Y-63430352D01*
X139923065Y-61770702D01*
X139928251Y-61718045D01*
X139941818Y-61673323D01*
X139963855Y-61632094D01*
X139993504Y-61595966D01*
X140029632Y-61566317D01*
X140070861Y-61544280D01*
X140115583Y-61530713D01*
X140168240Y-61525527D01*
X141502890Y-61525527D01*
X141555547Y-61530713D01*
X141555547Y-61530713D01*
G37*
G36*
X131537707Y-61505997D02*
X131614836Y-61513593D01*
X131734521Y-61549899D01*
X131812763Y-61573633D01*
X131995172Y-61671133D01*
X132155054Y-61802346D01*
X132286267Y-61962228D01*
X132383767Y-62144637D01*
X132383767Y-62144638D01*
X132443807Y-62342564D01*
X132464080Y-62548400D01*
X132443807Y-62754236D01*
X132403780Y-62886187D01*
X132383767Y-62952163D01*
X132286267Y-63134572D01*
X132155054Y-63294454D01*
X131995172Y-63425667D01*
X131812763Y-63523167D01*
X131746787Y-63543180D01*
X131614836Y-63583207D01*
X131537707Y-63590804D01*
X131460580Y-63598400D01*
X131357420Y-63598400D01*
X131280293Y-63590804D01*
X131203164Y-63583207D01*
X131071213Y-63543180D01*
X131005237Y-63523167D01*
X130822828Y-63425667D01*
X130662946Y-63294454D01*
X130531733Y-63134572D01*
X130434233Y-62952163D01*
X130414220Y-62886187D01*
X130374193Y-62754236D01*
X130353920Y-62548400D01*
X130374193Y-62342564D01*
X130434233Y-62144638D01*
X130434233Y-62144637D01*
X130531733Y-61962228D01*
X130662946Y-61802346D01*
X130822828Y-61671133D01*
X131005237Y-61573633D01*
X131083479Y-61549899D01*
X131203164Y-61513593D01*
X131280293Y-61505997D01*
X131357420Y-61498400D01*
X131460580Y-61498400D01*
X131537707Y-61505997D01*
X131537707Y-61505997D01*
G37*
G36*
X153711907Y-61505997D02*
X153789036Y-61513593D01*
X153908721Y-61549899D01*
X153986963Y-61573633D01*
X154169372Y-61671133D01*
X154329254Y-61802346D01*
X154460467Y-61962228D01*
X154557967Y-62144637D01*
X154557967Y-62144638D01*
X154618007Y-62342564D01*
X154638280Y-62548400D01*
X154618007Y-62754236D01*
X154577980Y-62886187D01*
X154557967Y-62952163D01*
X154460467Y-63134572D01*
X154329254Y-63294454D01*
X154169372Y-63425667D01*
X153986963Y-63523167D01*
X153920987Y-63543180D01*
X153789036Y-63583207D01*
X153711907Y-63590804D01*
X153634780Y-63598400D01*
X153531620Y-63598400D01*
X153454493Y-63590804D01*
X153377364Y-63583207D01*
X153245413Y-63543180D01*
X153179437Y-63523167D01*
X152997028Y-63425667D01*
X152837146Y-63294454D01*
X152705933Y-63134572D01*
X152608433Y-62952163D01*
X152588420Y-62886187D01*
X152548393Y-62754236D01*
X152528120Y-62548400D01*
X152548393Y-62342564D01*
X152608433Y-62144638D01*
X152608433Y-62144637D01*
X152705933Y-61962228D01*
X152837146Y-61802346D01*
X152997028Y-61671133D01*
X153179437Y-61573633D01*
X153257679Y-61549899D01*
X153377364Y-61513593D01*
X153454493Y-61505997D01*
X153531620Y-61498400D01*
X153634780Y-61498400D01*
X153711907Y-61505997D01*
X153711907Y-61505997D01*
G37*
G36*
X134912030Y-61574469D02*
X134912033Y-61574470D01*
X134912034Y-61574470D01*
X135100535Y-61631651D01*
X135100537Y-61631652D01*
X135274260Y-61724509D01*
X135426528Y-61849472D01*
X135551491Y-62001740D01*
X135644348Y-62175463D01*
X135701531Y-62363970D01*
X135720838Y-62560000D01*
X135701531Y-62756030D01*
X135644348Y-62944537D01*
X135551491Y-63118260D01*
X135426528Y-63270528D01*
X135274260Y-63395491D01*
X135100537Y-63488348D01*
X135100535Y-63488349D01*
X134912034Y-63545530D01*
X134912033Y-63545530D01*
X134912030Y-63545531D01*
X134765124Y-63560000D01*
X134666876Y-63560000D01*
X134519970Y-63545531D01*
X134519967Y-63545530D01*
X134519966Y-63545530D01*
X134331465Y-63488349D01*
X134331463Y-63488348D01*
X134157740Y-63395491D01*
X134005472Y-63270528D01*
X133880509Y-63118260D01*
X133787652Y-62944537D01*
X133730469Y-62756030D01*
X133711162Y-62560000D01*
X133730469Y-62363970D01*
X133787652Y-62175463D01*
X133880509Y-62001740D01*
X134005472Y-61849472D01*
X134157740Y-61724509D01*
X134331463Y-61631652D01*
X134331465Y-61631651D01*
X134519966Y-61574470D01*
X134519967Y-61574470D01*
X134519970Y-61574469D01*
X134666876Y-61560000D01*
X134765124Y-61560000D01*
X134912030Y-61574469D01*
X134912030Y-61574469D01*
G37*
G36*
X150152030Y-61574469D02*
X150152033Y-61574470D01*
X150152034Y-61574470D01*
X150340535Y-61631651D01*
X150340537Y-61631652D01*
X150514260Y-61724509D01*
X150666528Y-61849472D01*
X150791491Y-62001740D01*
X150884348Y-62175463D01*
X150941531Y-62363970D01*
X150960838Y-62560000D01*
X150941531Y-62756030D01*
X150884348Y-62944537D01*
X150791491Y-63118260D01*
X150666528Y-63270528D01*
X150514260Y-63395491D01*
X150340537Y-63488348D01*
X150340535Y-63488349D01*
X150152034Y-63545530D01*
X150152033Y-63545530D01*
X150152030Y-63545531D01*
X150005124Y-63560000D01*
X149906876Y-63560000D01*
X149759970Y-63545531D01*
X149759967Y-63545530D01*
X149759966Y-63545530D01*
X149571465Y-63488349D01*
X149571463Y-63488348D01*
X149397740Y-63395491D01*
X149245472Y-63270528D01*
X149120509Y-63118260D01*
X149027652Y-62944537D01*
X148970469Y-62756030D01*
X148951162Y-62560000D01*
X148970469Y-62363970D01*
X149027652Y-62175463D01*
X149120509Y-62001740D01*
X149245472Y-61849472D01*
X149397740Y-61724509D01*
X149571463Y-61631652D01*
X149571465Y-61631651D01*
X149759966Y-61574470D01*
X149759967Y-61574470D01*
X149759970Y-61574469D01*
X149906876Y-61560000D01*
X150005124Y-61560000D01*
X150152030Y-61574469D01*
X150152030Y-61574469D01*
G37*
G36*
X131537707Y-58965997D02*
X131614836Y-58973593D01*
X131746787Y-59013620D01*
X131812763Y-59033633D01*
X131995172Y-59131133D01*
X132155054Y-59262346D01*
X132286267Y-59422228D01*
X132383767Y-59604637D01*
X132383767Y-59604638D01*
X132443807Y-59802564D01*
X132464080Y-60008400D01*
X132443807Y-60214236D01*
X132403780Y-60346187D01*
X132383767Y-60412163D01*
X132286267Y-60594572D01*
X132155054Y-60754454D01*
X131995172Y-60885667D01*
X131812763Y-60983167D01*
X131746787Y-61003180D01*
X131614836Y-61043207D01*
X131537707Y-61050804D01*
X131460580Y-61058400D01*
X131357420Y-61058400D01*
X131280293Y-61050804D01*
X131203164Y-61043207D01*
X131071213Y-61003180D01*
X131005237Y-60983167D01*
X130822828Y-60885667D01*
X130662946Y-60754454D01*
X130531733Y-60594572D01*
X130434233Y-60412163D01*
X130414220Y-60346187D01*
X130374193Y-60214236D01*
X130353920Y-60008400D01*
X130374193Y-59802564D01*
X130434233Y-59604638D01*
X130434233Y-59604637D01*
X130531733Y-59422228D01*
X130662946Y-59262346D01*
X130822828Y-59131133D01*
X131005237Y-59033633D01*
X131071213Y-59013620D01*
X131203164Y-58973593D01*
X131280293Y-58965997D01*
X131357420Y-58958400D01*
X131460580Y-58958400D01*
X131537707Y-58965997D01*
X131537707Y-58965997D01*
G37*
G36*
X153711907Y-58965997D02*
X153789036Y-58973593D01*
X153920987Y-59013620D01*
X153986963Y-59033633D01*
X154169372Y-59131133D01*
X154329254Y-59262346D01*
X154460467Y-59422228D01*
X154557967Y-59604637D01*
X154557967Y-59604638D01*
X154618007Y-59802564D01*
X154638280Y-60008400D01*
X154618007Y-60214236D01*
X154577980Y-60346187D01*
X154557967Y-60412163D01*
X154460467Y-60594572D01*
X154329254Y-60754454D01*
X154169372Y-60885667D01*
X153986963Y-60983167D01*
X153920987Y-61003180D01*
X153789036Y-61043207D01*
X153711907Y-61050804D01*
X153634780Y-61058400D01*
X153531620Y-61058400D01*
X153454493Y-61050804D01*
X153377364Y-61043207D01*
X153245413Y-61003180D01*
X153179437Y-60983167D01*
X152997028Y-60885667D01*
X152837146Y-60754454D01*
X152705933Y-60594572D01*
X152608433Y-60412163D01*
X152588420Y-60346187D01*
X152548393Y-60214236D01*
X152528120Y-60008400D01*
X152548393Y-59802564D01*
X152608433Y-59604638D01*
X152608433Y-59604637D01*
X152705933Y-59422228D01*
X152837146Y-59262346D01*
X152997028Y-59131133D01*
X153179437Y-59033633D01*
X153245413Y-59013620D01*
X153377364Y-58973593D01*
X153454493Y-58965997D01*
X153531620Y-58958400D01*
X153634780Y-58958400D01*
X153711907Y-58965997D01*
X153711907Y-58965997D01*
G37*
G36*
X150152030Y-59034469D02*
X150152033Y-59034470D01*
X150152034Y-59034470D01*
X150340535Y-59091651D01*
X150340537Y-59091652D01*
X150514260Y-59184509D01*
X150666528Y-59309472D01*
X150791491Y-59461740D01*
X150884348Y-59635463D01*
X150941531Y-59823970D01*
X150960838Y-60020000D01*
X150941531Y-60216030D01*
X150884348Y-60404537D01*
X150791491Y-60578260D01*
X150666528Y-60730528D01*
X150514260Y-60855491D01*
X150514258Y-60855492D01*
X150340535Y-60948349D01*
X150152034Y-61005530D01*
X150152033Y-61005530D01*
X150152030Y-61005531D01*
X150005124Y-61020000D01*
X149906876Y-61020000D01*
X149759970Y-61005531D01*
X149759967Y-61005530D01*
X149759966Y-61005530D01*
X149571465Y-60948349D01*
X149397742Y-60855492D01*
X149397740Y-60855491D01*
X149245472Y-60730528D01*
X149120509Y-60578260D01*
X149027652Y-60404537D01*
X148970469Y-60216030D01*
X148951162Y-60020000D01*
X148970469Y-59823970D01*
X149027652Y-59635463D01*
X149120509Y-59461740D01*
X149245472Y-59309472D01*
X149397740Y-59184509D01*
X149571463Y-59091652D01*
X149571465Y-59091651D01*
X149759966Y-59034470D01*
X149759967Y-59034470D01*
X149759970Y-59034469D01*
X149906876Y-59020000D01*
X150005124Y-59020000D01*
X150152030Y-59034469D01*
X150152030Y-59034469D01*
G37*
G36*
X134912030Y-59034469D02*
X134912033Y-59034470D01*
X134912034Y-59034470D01*
X135100535Y-59091651D01*
X135100537Y-59091652D01*
X135274260Y-59184509D01*
X135426528Y-59309472D01*
X135551491Y-59461740D01*
X135644348Y-59635463D01*
X135701531Y-59823970D01*
X135720838Y-60020000D01*
X135701531Y-60216030D01*
X135644348Y-60404537D01*
X135551491Y-60578260D01*
X135426528Y-60730528D01*
X135274260Y-60855491D01*
X135274258Y-60855492D01*
X135100535Y-60948349D01*
X134912034Y-61005530D01*
X134912033Y-61005530D01*
X134912030Y-61005531D01*
X134765124Y-61020000D01*
X134666876Y-61020000D01*
X134519970Y-61005531D01*
X134519967Y-61005530D01*
X134519966Y-61005530D01*
X134331465Y-60948349D01*
X134157742Y-60855492D01*
X134157740Y-60855491D01*
X134005472Y-60730528D01*
X133880509Y-60578260D01*
X133787652Y-60404537D01*
X133730469Y-60216030D01*
X133711162Y-60020000D01*
X133730469Y-59823970D01*
X133787652Y-59635463D01*
X133880509Y-59461740D01*
X134005472Y-59309472D01*
X134157740Y-59184509D01*
X134331463Y-59091652D01*
X134331465Y-59091651D01*
X134519966Y-59034470D01*
X134519967Y-59034470D01*
X134519970Y-59034469D01*
X134666876Y-59020000D01*
X134765124Y-59020000D01*
X134912030Y-59034469D01*
X134912030Y-59034469D01*
G37*
G36*
X131537707Y-56425996D02*
X131614836Y-56433593D01*
X131746787Y-56473620D01*
X131812763Y-56493633D01*
X131995172Y-56591133D01*
X132155054Y-56722346D01*
X132286267Y-56882228D01*
X132383767Y-57064637D01*
X132383767Y-57064638D01*
X132443807Y-57262564D01*
X132464080Y-57468400D01*
X132443807Y-57674236D01*
X132403780Y-57806187D01*
X132383767Y-57872163D01*
X132286267Y-58054572D01*
X132155054Y-58214454D01*
X131995172Y-58345667D01*
X131812763Y-58443167D01*
X131746787Y-58463180D01*
X131614836Y-58503207D01*
X131537707Y-58510804D01*
X131460580Y-58518400D01*
X131357420Y-58518400D01*
X131280293Y-58510804D01*
X131203164Y-58503207D01*
X131071213Y-58463180D01*
X131005237Y-58443167D01*
X130822828Y-58345667D01*
X130662946Y-58214454D01*
X130531733Y-58054572D01*
X130434233Y-57872163D01*
X130414220Y-57806187D01*
X130374193Y-57674236D01*
X130353920Y-57468400D01*
X130374193Y-57262564D01*
X130434233Y-57064638D01*
X130434233Y-57064637D01*
X130531733Y-56882228D01*
X130662946Y-56722346D01*
X130822828Y-56591133D01*
X131005237Y-56493633D01*
X131071213Y-56473620D01*
X131203164Y-56433593D01*
X131280293Y-56425996D01*
X131357420Y-56418400D01*
X131460580Y-56418400D01*
X131537707Y-56425996D01*
X131537707Y-56425996D01*
G37*
G36*
X153711907Y-56425996D02*
X153789036Y-56433593D01*
X153920987Y-56473620D01*
X153986963Y-56493633D01*
X154169372Y-56591133D01*
X154329254Y-56722346D01*
X154460467Y-56882228D01*
X154557967Y-57064637D01*
X154557967Y-57064638D01*
X154618007Y-57262564D01*
X154638280Y-57468400D01*
X154618007Y-57674236D01*
X154577980Y-57806187D01*
X154557967Y-57872163D01*
X154460467Y-58054572D01*
X154329254Y-58214454D01*
X154169372Y-58345667D01*
X153986963Y-58443167D01*
X153920987Y-58463180D01*
X153789036Y-58503207D01*
X153711907Y-58510804D01*
X153634780Y-58518400D01*
X153531620Y-58518400D01*
X153454493Y-58510804D01*
X153377364Y-58503207D01*
X153245413Y-58463180D01*
X153179437Y-58443167D01*
X152997028Y-58345667D01*
X152837146Y-58214454D01*
X152705933Y-58054572D01*
X152608433Y-57872163D01*
X152588420Y-57806187D01*
X152548393Y-57674236D01*
X152528120Y-57468400D01*
X152548393Y-57262564D01*
X152608433Y-57064638D01*
X152608433Y-57064637D01*
X152705933Y-56882228D01*
X152837146Y-56722346D01*
X152997028Y-56591133D01*
X153179437Y-56493633D01*
X153245413Y-56473620D01*
X153377364Y-56433593D01*
X153454493Y-56425996D01*
X153531620Y-56418400D01*
X153634780Y-56418400D01*
X153711907Y-56425996D01*
X153711907Y-56425996D01*
G37*
G36*
X134912030Y-56494469D02*
X134912033Y-56494470D01*
X134912034Y-56494470D01*
X135100535Y-56551651D01*
X135100537Y-56551652D01*
X135274260Y-56644509D01*
X135426528Y-56769472D01*
X135551491Y-56921740D01*
X135644348Y-57095463D01*
X135701531Y-57283970D01*
X135720838Y-57480000D01*
X135701531Y-57676030D01*
X135644348Y-57864537D01*
X135551491Y-58038260D01*
X135426528Y-58190528D01*
X135274260Y-58315491D01*
X135274258Y-58315492D01*
X135100535Y-58408349D01*
X134912034Y-58465530D01*
X134912033Y-58465530D01*
X134912030Y-58465531D01*
X134765124Y-58480000D01*
X134666876Y-58480000D01*
X134519970Y-58465531D01*
X134519967Y-58465530D01*
X134519966Y-58465530D01*
X134331465Y-58408349D01*
X134157742Y-58315492D01*
X134157740Y-58315491D01*
X134005472Y-58190528D01*
X133880509Y-58038260D01*
X133787652Y-57864537D01*
X133730469Y-57676030D01*
X133711162Y-57480000D01*
X133730469Y-57283970D01*
X133787652Y-57095463D01*
X133880509Y-56921740D01*
X134005472Y-56769472D01*
X134157740Y-56644509D01*
X134331463Y-56551652D01*
X134331465Y-56551651D01*
X134519966Y-56494470D01*
X134519967Y-56494470D01*
X134519970Y-56494469D01*
X134666876Y-56480000D01*
X134765124Y-56480000D01*
X134912030Y-56494469D01*
X134912030Y-56494469D01*
G37*
G36*
X150152030Y-56494469D02*
X150152033Y-56494470D01*
X150152034Y-56494470D01*
X150340535Y-56551651D01*
X150340537Y-56551652D01*
X150514260Y-56644509D01*
X150666528Y-56769472D01*
X150791491Y-56921740D01*
X150884348Y-57095463D01*
X150941531Y-57283970D01*
X150960838Y-57480000D01*
X150941531Y-57676030D01*
X150884348Y-57864537D01*
X150791491Y-58038260D01*
X150666528Y-58190528D01*
X150514260Y-58315491D01*
X150514258Y-58315492D01*
X150340535Y-58408349D01*
X150152034Y-58465530D01*
X150152033Y-58465530D01*
X150152030Y-58465531D01*
X150005124Y-58480000D01*
X149906876Y-58480000D01*
X149759970Y-58465531D01*
X149759967Y-58465530D01*
X149759966Y-58465530D01*
X149571465Y-58408349D01*
X149397742Y-58315492D01*
X149397740Y-58315491D01*
X149245472Y-58190528D01*
X149120509Y-58038260D01*
X149027652Y-57864537D01*
X148970469Y-57676030D01*
X148951162Y-57480000D01*
X148970469Y-57283970D01*
X149027652Y-57095463D01*
X149120509Y-56921740D01*
X149245472Y-56769472D01*
X149397740Y-56644509D01*
X149571463Y-56551652D01*
X149571465Y-56551651D01*
X149759966Y-56494470D01*
X149759967Y-56494470D01*
X149759970Y-56494469D01*
X149906876Y-56480000D01*
X150005124Y-56480000D01*
X150152030Y-56494469D01*
X150152030Y-56494469D01*
G37*
G36*
X146147182Y-54581486D02*
X146191904Y-54595053D01*
X146233133Y-54617090D01*
X146269261Y-54646739D01*
X146298910Y-54682867D01*
X146320947Y-54724096D01*
X146334514Y-54768818D01*
X146339700Y-54821475D01*
X146339700Y-56156125D01*
X146334514Y-56208782D01*
X146320947Y-56253504D01*
X146298910Y-56294733D01*
X146269261Y-56330861D01*
X146233133Y-56360510D01*
X146191904Y-56382547D01*
X146147182Y-56396114D01*
X146094525Y-56401300D01*
X144434875Y-56401300D01*
X144382218Y-56396114D01*
X144337496Y-56382547D01*
X144296267Y-56360510D01*
X144260139Y-56330861D01*
X144230490Y-56294733D01*
X144208453Y-56253504D01*
X144194886Y-56208782D01*
X144189700Y-56156125D01*
X144189700Y-54821475D01*
X144194886Y-54768818D01*
X144208453Y-54724096D01*
X144230490Y-54682867D01*
X144260139Y-54646739D01*
X144296267Y-54617090D01*
X144337496Y-54595053D01*
X144382218Y-54581486D01*
X144434875Y-54576300D01*
X146094525Y-54576300D01*
X146147182Y-54581486D01*
X146147182Y-54581486D01*
G37*
G36*
X140355982Y-54581486D02*
X140400704Y-54595053D01*
X140441933Y-54617090D01*
X140478061Y-54646739D01*
X140507710Y-54682867D01*
X140529747Y-54724096D01*
X140543314Y-54768818D01*
X140548500Y-54821475D01*
X140548500Y-56156125D01*
X140543314Y-56208782D01*
X140529747Y-56253504D01*
X140507710Y-56294733D01*
X140478061Y-56330861D01*
X140441933Y-56360510D01*
X140400704Y-56382547D01*
X140355982Y-56396114D01*
X140303325Y-56401300D01*
X138643675Y-56401300D01*
X138591018Y-56396114D01*
X138546296Y-56382547D01*
X138505067Y-56360510D01*
X138468939Y-56330861D01*
X138439290Y-56294733D01*
X138417253Y-56253504D01*
X138403686Y-56208782D01*
X138398500Y-56156125D01*
X138398500Y-54821475D01*
X138403686Y-54768818D01*
X138417253Y-54724096D01*
X138439290Y-54682867D01*
X138468939Y-54646739D01*
X138505067Y-54617090D01*
X138546296Y-54595053D01*
X138591018Y-54581486D01*
X138643675Y-54576300D01*
X140303325Y-54576300D01*
X140355982Y-54581486D01*
X140355982Y-54581486D01*
G37*
G36*
X131537707Y-53885996D02*
X131614836Y-53893593D01*
X131746787Y-53933620D01*
X131812763Y-53953633D01*
X131995172Y-54051133D01*
X132155054Y-54182346D01*
X132286267Y-54342228D01*
X132383767Y-54524637D01*
X132401012Y-54581486D01*
X132443807Y-54722564D01*
X132464080Y-54928400D01*
X132443807Y-55134236D01*
X132403780Y-55266187D01*
X132383767Y-55332163D01*
X132286267Y-55514572D01*
X132155054Y-55674454D01*
X131995172Y-55805667D01*
X131812763Y-55903167D01*
X131746787Y-55923180D01*
X131614836Y-55963207D01*
X131537707Y-55970804D01*
X131460580Y-55978400D01*
X131357420Y-55978400D01*
X131280293Y-55970804D01*
X131203164Y-55963207D01*
X131071213Y-55923180D01*
X131005237Y-55903167D01*
X130822828Y-55805667D01*
X130662946Y-55674454D01*
X130531733Y-55514572D01*
X130434233Y-55332163D01*
X130414220Y-55266187D01*
X130374193Y-55134236D01*
X130353920Y-54928400D01*
X130374193Y-54722564D01*
X130416988Y-54581486D01*
X130434233Y-54524637D01*
X130531733Y-54342228D01*
X130662946Y-54182346D01*
X130822828Y-54051133D01*
X131005237Y-53953633D01*
X131071213Y-53933620D01*
X131203164Y-53893593D01*
X131280293Y-53885996D01*
X131357420Y-53878400D01*
X131460580Y-53878400D01*
X131537707Y-53885996D01*
X131537707Y-53885996D01*
G37*
G36*
X153711907Y-53885996D02*
X153789036Y-53893593D01*
X153920987Y-53933620D01*
X153986963Y-53953633D01*
X154169372Y-54051133D01*
X154329254Y-54182346D01*
X154460467Y-54342228D01*
X154557967Y-54524637D01*
X154575212Y-54581486D01*
X154618007Y-54722564D01*
X154638280Y-54928400D01*
X154618007Y-55134236D01*
X154577980Y-55266187D01*
X154557967Y-55332163D01*
X154460467Y-55514572D01*
X154329254Y-55674454D01*
X154169372Y-55805667D01*
X153986963Y-55903167D01*
X153920987Y-55923180D01*
X153789036Y-55963207D01*
X153711907Y-55970804D01*
X153634780Y-55978400D01*
X153531620Y-55978400D01*
X153454493Y-55970804D01*
X153377364Y-55963207D01*
X153245413Y-55923180D01*
X153179437Y-55903167D01*
X152997028Y-55805667D01*
X152837146Y-55674454D01*
X152705933Y-55514572D01*
X152608433Y-55332163D01*
X152588420Y-55266187D01*
X152548393Y-55134236D01*
X152528120Y-54928400D01*
X152548393Y-54722564D01*
X152591188Y-54581486D01*
X152608433Y-54524637D01*
X152705933Y-54342228D01*
X152837146Y-54182346D01*
X152997028Y-54051133D01*
X153179437Y-53953633D01*
X153245413Y-53933620D01*
X153377364Y-53893593D01*
X153454493Y-53885996D01*
X153531620Y-53878400D01*
X153634780Y-53878400D01*
X153711907Y-53885996D01*
X153711907Y-53885996D01*
G37*
G36*
X150152030Y-53954469D02*
X150152033Y-53954470D01*
X150152034Y-53954470D01*
X150340535Y-54011651D01*
X150340537Y-54011652D01*
X150514260Y-54104509D01*
X150666528Y-54229472D01*
X150791491Y-54381740D01*
X150791492Y-54381742D01*
X150884349Y-54555465D01*
X150941530Y-54743966D01*
X150941531Y-54743970D01*
X150960838Y-54940000D01*
X150941531Y-55136030D01*
X150884348Y-55324537D01*
X150791491Y-55498260D01*
X150666528Y-55650528D01*
X150514260Y-55775491D01*
X150514258Y-55775492D01*
X150340535Y-55868349D01*
X150152034Y-55925530D01*
X150152033Y-55925530D01*
X150152030Y-55925531D01*
X150005124Y-55940000D01*
X149906876Y-55940000D01*
X149759970Y-55925531D01*
X149759967Y-55925530D01*
X149759966Y-55925530D01*
X149571465Y-55868349D01*
X149397742Y-55775492D01*
X149397740Y-55775491D01*
X149245472Y-55650528D01*
X149120509Y-55498260D01*
X149027652Y-55324537D01*
X148970469Y-55136030D01*
X148951162Y-54940000D01*
X148970469Y-54743970D01*
X148970470Y-54743966D01*
X149027651Y-54555465D01*
X149120508Y-54381742D01*
X149120509Y-54381740D01*
X149245472Y-54229472D01*
X149397740Y-54104509D01*
X149571463Y-54011652D01*
X149571465Y-54011651D01*
X149759966Y-53954470D01*
X149759967Y-53954470D01*
X149759970Y-53954469D01*
X149906876Y-53940000D01*
X150005124Y-53940000D01*
X150152030Y-53954469D01*
X150152030Y-53954469D01*
G37*
G36*
X134912030Y-53954469D02*
X134912033Y-53954470D01*
X134912034Y-53954470D01*
X135100535Y-54011651D01*
X135100537Y-54011652D01*
X135274260Y-54104509D01*
X135426528Y-54229472D01*
X135551491Y-54381740D01*
X135551492Y-54381742D01*
X135644349Y-54555465D01*
X135701530Y-54743966D01*
X135701531Y-54743970D01*
X135720838Y-54940000D01*
X135701531Y-55136030D01*
X135644348Y-55324537D01*
X135551491Y-55498260D01*
X135426528Y-55650528D01*
X135274260Y-55775491D01*
X135274258Y-55775492D01*
X135100535Y-55868349D01*
X134912034Y-55925530D01*
X134912033Y-55925530D01*
X134912030Y-55925531D01*
X134765124Y-55940000D01*
X134666876Y-55940000D01*
X134519970Y-55925531D01*
X134519967Y-55925530D01*
X134519966Y-55925530D01*
X134331465Y-55868349D01*
X134157742Y-55775492D01*
X134157740Y-55775491D01*
X134005472Y-55650528D01*
X133880509Y-55498260D01*
X133787652Y-55324537D01*
X133730469Y-55136030D01*
X133711162Y-54940000D01*
X133730469Y-54743970D01*
X133730470Y-54743966D01*
X133787651Y-54555465D01*
X133880508Y-54381742D01*
X133880509Y-54381740D01*
X134005472Y-54229472D01*
X134157740Y-54104509D01*
X134331463Y-54011652D01*
X134331465Y-54011651D01*
X134519966Y-53954470D01*
X134519967Y-53954470D01*
X134519970Y-53954469D01*
X134666876Y-53940000D01*
X134765124Y-53940000D01*
X134912030Y-53954469D01*
X134912030Y-53954469D01*
G37*
G36*
X154633200Y-53438400D02*
X152533200Y-53438400D01*
X152533200Y-51338400D01*
X154633200Y-51338400D01*
X154633200Y-53438400D01*
X154633200Y-53438400D01*
G37*
G36*
X132459000Y-53438400D02*
X130359000Y-53438400D01*
X130359000Y-51338400D01*
X132459000Y-51338400D01*
X132459000Y-53438400D01*
X132459000Y-53438400D01*
G37*
G36*
X146147182Y-51606486D02*
X146191904Y-51620053D01*
X146233133Y-51642090D01*
X146269261Y-51671739D01*
X146298910Y-51707867D01*
X146320947Y-51749096D01*
X146334514Y-51793818D01*
X146339700Y-51846475D01*
X146339700Y-53181125D01*
X146334514Y-53233782D01*
X146320947Y-53278504D01*
X146298910Y-53319733D01*
X146269261Y-53355861D01*
X146233133Y-53385510D01*
X146191904Y-53407547D01*
X146147182Y-53421114D01*
X146094525Y-53426300D01*
X144434875Y-53426300D01*
X144382218Y-53421114D01*
X144337496Y-53407547D01*
X144296267Y-53385510D01*
X144260139Y-53355861D01*
X144230490Y-53319733D01*
X144208453Y-53278504D01*
X144194886Y-53233782D01*
X144189700Y-53181125D01*
X144189700Y-51846475D01*
X144194886Y-51793818D01*
X144208453Y-51749096D01*
X144230490Y-51707867D01*
X144260139Y-51671739D01*
X144296267Y-51642090D01*
X144337496Y-51620053D01*
X144382218Y-51606486D01*
X144434875Y-51601300D01*
X146094525Y-51601300D01*
X146147182Y-51606486D01*
X146147182Y-51606486D01*
G37*
G36*
X140355982Y-51606486D02*
X140400704Y-51620053D01*
X140441933Y-51642090D01*
X140478061Y-51671739D01*
X140507710Y-51707867D01*
X140529747Y-51749096D01*
X140543314Y-51793818D01*
X140548500Y-51846475D01*
X140548500Y-53181125D01*
X140543314Y-53233782D01*
X140529747Y-53278504D01*
X140507710Y-53319733D01*
X140478061Y-53355861D01*
X140441933Y-53385510D01*
X140400704Y-53407547D01*
X140355982Y-53421114D01*
X140303325Y-53426300D01*
X138643675Y-53426300D01*
X138591018Y-53421114D01*
X138546296Y-53407547D01*
X138505067Y-53385510D01*
X138468939Y-53355861D01*
X138439290Y-53319733D01*
X138417253Y-53278504D01*
X138403686Y-53233782D01*
X138398500Y-53181125D01*
X138398500Y-51846475D01*
X138403686Y-51793818D01*
X138417253Y-51749096D01*
X138439290Y-51707867D01*
X138468939Y-51671739D01*
X138505067Y-51642090D01*
X138546296Y-51620053D01*
X138591018Y-51606486D01*
X138643675Y-51601300D01*
X140303325Y-51601300D01*
X140355982Y-51606486D01*
X140355982Y-51606486D01*
G37*
G36*
X135716000Y-53400000D02*
X133716000Y-53400000D01*
X133716000Y-51400000D01*
X135716000Y-51400000D01*
X135716000Y-53400000D01*
X135716000Y-53400000D01*
G37*
G36*
X150152030Y-51414469D02*
X150152033Y-51414470D01*
X150152034Y-51414470D01*
X150340535Y-51471651D01*
X150340537Y-51471652D01*
X150514260Y-51564509D01*
X150666528Y-51689472D01*
X150791491Y-51841740D01*
X150884348Y-52015463D01*
X150941531Y-52203970D01*
X150960838Y-52400000D01*
X150941531Y-52596030D01*
X150884348Y-52784537D01*
X150791491Y-52958260D01*
X150666528Y-53110528D01*
X150514260Y-53235491D01*
X150340537Y-53328348D01*
X150340535Y-53328349D01*
X150152034Y-53385530D01*
X150152033Y-53385530D01*
X150152030Y-53385531D01*
X150005124Y-53400000D01*
X149906876Y-53400000D01*
X149759970Y-53385531D01*
X149759967Y-53385530D01*
X149759966Y-53385530D01*
X149571465Y-53328349D01*
X149571463Y-53328348D01*
X149397740Y-53235491D01*
X149245472Y-53110528D01*
X149120509Y-52958260D01*
X149027652Y-52784537D01*
X148970469Y-52596030D01*
X148951162Y-52400000D01*
X148970469Y-52203970D01*
X149027652Y-52015463D01*
X149120509Y-51841740D01*
X149245472Y-51689472D01*
X149397740Y-51564509D01*
X149571463Y-51471652D01*
X149571465Y-51471651D01*
X149759966Y-51414470D01*
X149759967Y-51414470D01*
X149759970Y-51414469D01*
X149906876Y-51400000D01*
X150005124Y-51400000D01*
X150152030Y-51414469D01*
X150152030Y-51414469D01*
G37*
M02*
